<svg xmlns="http://www.w3.org/2000/svg" viewBox="0 0 89.05 89.05"><defs><style>.cls-1{fill:#f0ece8;}.cls-2{fill:#1d1d1b;}</style></defs><g id="Laag_2" data-name="Laag 2"><g id="Laag_1-2" data-name="Laag 1"><circle class="cls-1" cx="44.53" cy="44.53" r="44.53"/><path class="cls-2" d="M22.31,37a3.58,3.58,0,0,1-1,2.6,3.43,3.43,0,0,1-2.58,1,3.4,3.4,0,0,1-2.57-1,3.61,3.61,0,0,1-1-2.59V35.47a3.63,3.63,0,0,1,1-2.59,3.38,3.38,0,0,1,2.56-1,3.4,3.4,0,0,1,2.58,1,3.56,3.56,0,0,1,1,2.59ZM20.6,35.46a2.57,2.57,0,0,0-.49-1.63,1.65,1.65,0,0,0-1.38-.64,1.58,1.58,0,0,0-1.35.64,2.63,2.63,0,0,0-.48,1.63V37a2.69,2.69,0,0,0,.48,1.65,1.78,1.78,0,0,0,2.73,0A2.63,2.63,0,0,0,20.6,37Z"/><path class="cls-2" d="M25.1,34.17l.07.9a2.52,2.52,0,0,1,.78-.75,2,2,0,0,1,1-.27,1.89,1.89,0,0,1,1.5.62A2.91,2.91,0,0,1,29,36.62v3.89H27.31V36.63a1.59,1.59,0,0,0-.23-1,.89.89,0,0,0-.72-.28,1.6,1.6,0,0,0-.67.14,1.31,1.31,0,0,0-.47.4v4.59H23.5V34.17Z"/><path class="cls-2" d="M33.06,40.63a2.86,2.86,0,0,1-2.22-.87,3.2,3.2,0,0,1-.8-2.24v-.24A3.45,3.45,0,0,1,30.82,35a2.64,2.64,0,0,1,2.12-.9,2.45,2.45,0,0,1,2,.78,3.06,3.06,0,0,1,.69,2.11v.88H31.81l0,0a1.71,1.71,0,0,0,.4,1,1.31,1.31,0,0,0,1.05.41,3.43,3.43,0,0,0,1-.12,3.94,3.94,0,0,0,.83-.36l.46,1.06a3.19,3.19,0,0,1-1,.52A4.53,4.53,0,0,1,33.06,40.63Zm-.12-5.26a1,1,0,0,0-.79.35,1.76,1.76,0,0,0-.34.94v0h2.09v-.13a1.47,1.47,0,0,0-.23-.87A.83.83,0,0,0,32.94,35.37Z"/><path class="cls-2" d="M41.16,34.17l.07.83a2.12,2.12,0,0,1,.76-.7,2.17,2.17,0,0,1,1.07-.25,1.94,1.94,0,0,1,1,.27,1.68,1.68,0,0,1,.66.81,2.14,2.14,0,0,1,.76-.79,2,2,0,0,1,1.1-.29,1.82,1.82,0,0,1,1.48.66,3.2,3.2,0,0,1,.54,2v3.77H46.93V36.74a1.82,1.82,0,0,0-.23-1.06.84.84,0,0,0-.7-.3,1.18,1.18,0,0,0-.63.16,1.24,1.24,0,0,0-.43.45c0,.07,0,.14,0,.19s0,.11,0,.16v4.17H43.25V36.74A1.81,1.81,0,0,0,43,35.69a.83.83,0,0,0-.71-.31,1.26,1.26,0,0,0-.6.13,1.11,1.11,0,0,0-.43.37v4.63H39.57V34.17Z"/><path class="cls-2" d="M49.69,37.28A3.41,3.41,0,0,1,50.48,35a2.77,2.77,0,0,1,2.19-.9,2.81,2.81,0,0,1,2.21.9,3.39,3.39,0,0,1,.79,2.33v.12a3.39,3.39,0,0,1-.79,2.33,3.14,3.14,0,0,1-4.4,0,3.39,3.39,0,0,1-.79-2.33Zm1.71.12a2.78,2.78,0,0,0,.3,1.39,1,1,0,0,0,1,.53,1,1,0,0,0,1-.53A2.7,2.7,0,0,0,54,37.4v-.12a2.71,2.71,0,0,0-.31-1.38,1.16,1.16,0,0,0-1.95,0,2.82,2.82,0,0,0-.3,1.38Z"/><path class="cls-2" d="M58.29,34.17l.08.9a2.32,2.32,0,0,1,.78-.75,2,2,0,0,1,1-.27,1.89,1.89,0,0,1,1.5.62,2.91,2.91,0,0,1,.54,1.95v3.89H60.51V36.63a1.51,1.51,0,0,0-.24-1,.88.88,0,0,0-.71-.28,1.54,1.54,0,0,0-.67.14,1.26,1.26,0,0,0-.48.4v4.59H56.7V34.17Z"/><path class="cls-2" d="M65.55,32.61v1.56h1.07v1.2H65.55V38.6a.69.69,0,0,0,.16.52.52.52,0,0,0,.4.16h.24l.23-.05.14,1.23a3.43,3.43,0,0,1-.5.14,4.39,4.39,0,0,1-.53,0,1.82,1.82,0,0,1-1.37-.49,2.17,2.17,0,0,1-.47-1.54V35.37h-.93v-1.2h.93V32.61Z"/><path class="cls-2" d="M69.35,35a2.15,2.15,0,0,1,.73-.68,2.12,2.12,0,0,1,2.52.42,3.11,3.11,0,0,1,.56,2v3.77H71.45V36.73a1.71,1.71,0,0,0-.24-1,.81.81,0,0,0-.71-.31,1.59,1.59,0,0,0-.68.13,1.12,1.12,0,0,0-.47.36v4.64H67.64V31.37h1.71Z"/><path class="cls-2" d="M26.3,47v1.56h1.07v1.2H26.3V53a.69.69,0,0,0,.16.52.52.52,0,0,0,.4.16h.24l.23-.05.14,1.23A3.43,3.43,0,0,1,27,55a4.24,4.24,0,0,1-.53,0,1.82,1.82,0,0,1-1.37-.49A2.15,2.15,0,0,1,24.6,53V49.77h-.93v-1.2h.93V47Z"/><path class="cls-2" d="M31.76,50l-.62,0a1.09,1.09,0,0,0-.63.16,1,1,0,0,0-.38.44v4.29h-1.7V48.57H30l.07.93a1.94,1.94,0,0,1,.58-.77,1.27,1.27,0,0,1,.82-.28l.24,0,.21.05Z"/><path class="cls-2" d="M36.39,54.91c-.06-.15-.11-.3-.16-.46a3.86,3.86,0,0,1-.1-.49,2.19,2.19,0,0,1-.69.76,1.72,1.72,0,0,1-1,.31,2.15,2.15,0,0,1-1.54-.51,1.84,1.84,0,0,1-.54-1.4,1.66,1.66,0,0,1,.72-1.44,3.53,3.53,0,0,1,2.09-.52h1v-.5a1,1,0,0,0-.25-.71.92.92,0,0,0-.71-.25.89.89,0,0,0-.64.2.7.7,0,0,0-.23.55H32.64l0,0a1.64,1.64,0,0,1,.7-1.39,3,3,0,0,1,1.94-.58,2.86,2.86,0,0,1,1.85.57,2,2,0,0,1,.71,1.65v2.62a5.53,5.53,0,0,0,.06.84,4.56,4.56,0,0,0,.22.78Zm-1.56-1.15a1.43,1.43,0,0,0,.79-.22,1.25,1.25,0,0,0,.49-.51v-.9h-1a1.14,1.14,0,0,0-.82.27.91.91,0,0,0-.28.66.64.64,0,0,0,.21.51A.81.81,0,0,0,34.83,53.76Z"/><path class="cls-2" d="M41.75,53.72a1,1,0,0,0,.71-.27,1,1,0,0,0,.26-.71h1.56v0a2,2,0,0,1-.71,1.61,3,3,0,0,1-4-.25,3.43,3.43,0,0,1-.76-2.3v-.18a3.45,3.45,0,0,1,.76-2.3,2.69,2.69,0,0,1,2.17-.9,2.62,2.62,0,0,1,1.87.67,2.22,2.22,0,0,1,.68,1.76v0H42.72a1.3,1.3,0,0,0-.26-.82.89.89,0,0,0-.72-.32,1,1,0,0,0-.94.53,2.82,2.82,0,0,0-.28,1.35v.18a2.88,2.88,0,0,0,.28,1.37A1,1,0,0,0,41.75,53.72Z"/><path class="cls-2" d="M47.43,52.25H47v2.66H45.29V45.77H47V51h.38l1.52-2.38h2l-2.07,2.89,2.35,3.45h-2Z"/><path class="cls-2" d="M53.51,47.05H51.8V45.77h1.71Zm0,7.86H51.8V48.57h1.71Z"/><path class="cls-2" d="M56.48,48.57l.08.9a2.32,2.32,0,0,1,.78-.75,2,2,0,0,1,1-.27,1.89,1.89,0,0,1,1.5.62,2.91,2.91,0,0,1,.54,2v3.89H58.7V51a1.51,1.51,0,0,0-.24-1,.86.86,0,0,0-.71-.28,1.57,1.57,0,0,0-.67.14,1.43,1.43,0,0,0-.48.4v4.59H54.89V48.57Z"/><path class="cls-2" d="M61.44,51.79a4.13,4.13,0,0,1,.65-2.42,2.12,2.12,0,0,1,1.83-.92,1.8,1.8,0,0,1,.94.24,2.07,2.07,0,0,1,.69.69l.13-.81h1.47v6.31a2.38,2.38,0,0,1-.8,1.91,3.44,3.44,0,0,1-2.26.68,4.75,4.75,0,0,1-1-.13,4.58,4.58,0,0,1-1-.37l.29-1.27a3.88,3.88,0,0,0,.81.28,3.73,3.73,0,0,0,.91.1,1.54,1.54,0,0,0,1-.29,1.17,1.17,0,0,0,.33-.92V54.3a1.79,1.79,0,0,1-.66.54,1.86,1.86,0,0,1-.87.19,2.17,2.17,0,0,1-1.82-.86,3.65,3.65,0,0,1-.65-2.26Zm1.71.12a2.55,2.55,0,0,0,.28,1.31,1,1,0,0,0,.91.48,1.54,1.54,0,0,0,.67-.14,1.15,1.15,0,0,0,.43-.42V50.39a1.1,1.1,0,0,0-.43-.45,1.27,1.27,0,0,0-.66-.16,1,1,0,0,0-.91.56,3.17,3.17,0,0,0-.29,1.45Z"/></g></g></svg>