<svg xmlns="http://www.w3.org/2000/svg" viewBox="0 0 560.87 443.39"><defs><style>.cls-1,.cls-3,.cls-7{fill:#f0ece8;}.cls-2{fill:#070a0c;}.cls-3{font-size:10px;font-family:Roboto-Bold, Roboto;font-weight:700;}.cls-4,.cls-5,.cls-6,.cls-7{stroke:#f0ece8;stroke-miterlimit:10;}.cls-5{fill:#bdb6ac;}.cls-6{fill:#5c5a56;}</style></defs><g id="Laag_2" data-name="Laag 2"><g id="Laag_3" data-name="Laag 3"><path class="cls-1" d="M51.44,323.34H49.22v11.23c.63,0,1.24,0,1.85,0a.91.91,0,0,0,.5-.4c1.4-2.11,2.79-4.23,4.19-6.35.06-.1.13-.18.28-.38v7.11h2.24V323.31c-.64,0-1.25,0-1.86,0a.72.72,0,0,0-.42.32l-4.14,6.26-.42.59Zm-40.57,0a3.55,3.55,0,0,0-.4-.06,37.2,37.2,0,0,0-4.49.22,5.55,5.55,0,0,0,0,10.83,43.81,43.81,0,0,0,4.93.3Zm24.53,11.2c.75,0,1.42,0,2.08,0,.12,0,.27-.23.33-.39.63-1.51,1.23-3,1.85-4.53.08-.2.17-.39.3-.68l1.31,3.22c.28.69.56,1.39.86,2.07.06.14.21.32.32.32.65,0,1.3,0,2.06,0L40,323.34ZM20.13,329l-4.28,5.63c.87,0,1.63,0,2.38,0a.51.51,0,0,0,.33-.2L22.69,329c-1.39-1.82-2.75-3.63-4.13-5.42a.58.58,0,0,0-.38-.21c-.72,0-1.45,0-2.33,0Zm2.68-5.61v11.21H25V323.34Zm6.2,6.43h2.81c1.11,0,1.11,0,1.52-1,.07-.17.14-.35.21-.55a2.24,2.24,0,0,0-.26-.05H29Z"/><path class="cls-1" d="M51.44,330.5v-7.16H49.22v11.23c.63,0,1.24,0,1.85,0a.91.91,0,0,0,.5-.4c1.4-2.11,2.79-4.23,4.19-6.35.06-.1.13-.18.28-.38v7.11h2.24V323.31c-.64,0-1.25,0-1.86,0a.72.72,0,0,0-.42.32l-4.14,6.26Z"/><path class="cls-1" d="M5.94,334.36a5.55,5.55,0,0,1,0-10.83,37.2,37.2,0,0,1,4.49-.22,3.55,3.55,0,0,1,.4.06v11.29A43.81,43.81,0,0,1,5.94,334.36Zm2.7-8.9a3.87,3.87,0,0,0-4,1.37,3.53,3.53,0,0,0-.21,3.91,3.93,3.93,0,0,0,4.24,1.73Z"/><path class="cls-1" d="M40,323.34,35.4,334.57c.75,0,1.42,0,2.08,0,.12,0,.27-.23.33-.39.63-1.51,1.23-3,1.85-4.53.08-.2.17-.39.3-.68l1.31,3.22c.28.69.56,1.39.86,2.07.06.14.21.32.32.32.65,0,1.3,0,2.06,0Z"/><path class="cls-1" d="M15.85,323.31,20.13,329l-4.28,5.63c.87,0,1.63,0,2.38,0a.51.51,0,0,0,.33-.2L22.69,329c-1.39-1.82-2.75-3.63-4.13-5.42a.58.58,0,0,0-.38-.21C17.46,323.3,16.73,323.31,15.85,323.31Z"/><path class="cls-1" d="M25,323.34H22.81v11.21H25Z"/><path class="cls-1" d="M29,328.13v1.64h2.81c1.11,0,1.11,0,1.52-1,.07-.17.14-.35.21-.55a2.24,2.24,0,0,0-.26-.05Z"/><path class="cls-2" d="M8.64,332.47v-7a3.87,3.87,0,0,0-4,1.37,3.53,3.53,0,0,0-.21,3.91A3.93,3.93,0,0,0,8.64,332.47Z"/><path class="cls-1" d="M45.29,205.3a2.7,2.7,0,0,1-2.62,3.27,13.09,13.09,0,0,1-3.89-.42c-7.27-1.88-14.51-3.84-21.83-5.6.32.17.64.34,1,.48,7.22,3.06,14.43,6.15,21.67,9.15a19.72,19.72,0,0,0,4.86,1.34c3.24.42,5-1.74,4.14-4.87a15,15,0,0,0-3.9-6.07C44.94,203.67,45.18,204.47,45.29,205.3Z"/><path class="cls-1" d="M44.69,202.58c.25,1.09.49,1.89.6,2.72a2.7,2.7,0,0,1-2.62,3.27,13.09,13.09,0,0,1-3.89-.42c-7.27-1.88-14.51-3.84-21.83-5.6.32.17.64.34,1,.48,7.22,3.06,14.43,6.15,21.67,9.15a19.72,19.72,0,0,0,4.86,1.34c3.24.42,5-1.74,4.14-4.87A15,15,0,0,0,44.69,202.58Z"/><path class="cls-1" d="M17.82,162h28.8V133.28H17.82Z"/><path class="cls-1" d="M46.62,133.28V162H17.82V133.28Zm-16.24,8v-4.09c-2-.43-2.1-.36-2.1,1.41,0,2.13,0,4.27,0,6.41,0,.41.43,1.18.61,1.17.58-.05,1.4-.22,1.67-.64.72-1.12,1.21-2.39,2.05-3.55v4.06c2,.38,2,.33,2-1.39,0-2.51,0-5,0-7.7C31.24,136.8,32,140,30.38,141.28Zm9,17.61c.08-.31.62-.63,1-.71a3.19,3.19,0,0,0,2.86-3.3c0-1,0-2,0-3a3.14,3.14,0,0,0-3.16-3A3,3,0,0,0,37,151.92c0,1.75-.34,3.52.6,5.26.33.59-.3,1.71-.52,2.68C38.2,160.08,39.05,160.17,39.38,158.89Zm-11.94-7.64a3,3,0,0,0-3.07-2.39,2.89,2.89,0,0,0-2.91,2.38,16.7,16.7,0,0,0-.06,4.18,3,3,0,0,0,3.19,2.74,3.12,3.12,0,0,0,3-2.87c.09-.57.07-1.16.12-2A17.15,17.15,0,0,0,27.44,151.25Zm13.87-14.2v4.17a4.77,4.77,0,0,1-.09,1.74c-.2.49-.75.84-1.15,1.25-.37-.43-1-.84-1.07-1.31a34.69,34.69,0,0,1-.07-4.08V137.1H37.05c0,2.19-.12,4.42,0,6.62a2.93,2.93,0,0,0,3.13,2.49,3,3,0,0,0,3-2.7c.13-2.12,0-4.25,0-6.46Zm-12.9,19.16v1.87h6.24c0-2.87,0-5.71,0-8.56,0-.25-.74-.65-1.14-.66s-.79.54-.8.85c-.08,2.08,0,4.17,0,6.5Zm-3.09-10v-9.15h-1.7v9.15Z"/><path class="cls-2" d="M34.67,137c-3.43-.16-2.67,3.08-4.29,4.32v-4.09c-2-.43-2.1-.36-2.1,1.41,0,2.13,0,4.27,0,6.41,0,.41.43,1.18.61,1.17.58-.05,1.4-.22,1.67-.64.72-1.12,1.21-2.39,2.05-3.55v4.06c2,.38,2,.33,2-1.39C34.68,142.15,34.67,139.63,34.67,137Z"/><path class="cls-2" d="M37.61,157.18c-.94-1.74-.57-3.51-.6-5.26a3,3,0,0,1,3.06-3.07,3.14,3.14,0,0,1,3.16,3c.07,1,.05,2,0,3a3.19,3.19,0,0,1-2.86,3.3c-.39.08-.93.4-1,.71-.33,1.28-1.18,1.19-2.29,1C37.31,158.89,37.94,157.77,37.61,157.18ZM39,155.1c.18.41.68.92,1,.94a1.41,1.41,0,0,0,1.06-.89,9.34,9.34,0,0,0,.07-3c-.07-.46-.75-.83-1.15-1.24A7.13,7.13,0,0,0,39,152.22a3.26,3.26,0,0,0,0,1.29H38.9A4.81,4.81,0,0,0,39,155.1Z"/><path class="cls-2" d="M27.56,155.29a3.12,3.12,0,0,1-3,2.87,3,3,0,0,1-3.19-2.74,16.7,16.7,0,0,1,.06-4.18,2.89,2.89,0,0,1,2.91-2.38,3,3,0,0,1,3.07,2.39,17.15,17.15,0,0,1,.24,2C27.63,154.13,27.65,154.72,27.56,155.29ZM23.35,155c.15.41.62,1,.9,1,.45,0,1.18-.49,1.23-.85a12.3,12.3,0,0,0,0-3.32,1.45,1.45,0,0,0-1.05-.91,1.53,1.53,0,0,0-1.07.89,5.24,5.24,0,0,0-.05,1.73h0A4.32,4.32,0,0,0,23.35,155Z"/><path class="cls-2" d="M43.2,137.05H41.31v4.17a4.77,4.77,0,0,1-.09,1.74c-.2.49-.75.84-1.15,1.25-.37-.43-1-.84-1.07-1.31a34.69,34.69,0,0,1-.07-4.08V137.1H37.05c0,2.19-.12,4.42,0,6.62a2.93,2.93,0,0,0,3.13,2.49,3,3,0,0,0,3-2.7C43.3,141.39,43.2,139.26,43.2,137.05Z"/><path class="cls-2" d="M32.62,156.21H28.41v1.87h6.24c0-2.87,0-5.71,0-8.56,0-.25-.74-.65-1.14-.66s-.79.54-.8.85C32.58,151.79,32.62,153.88,32.62,156.21Z"/><path class="cls-2" d="M23.62,146.21h1.7v-9.15h-1.7Z"/><path class="cls-1" d="M38.9,153.52A4.81,4.81,0,0,0,39,155.1c.18.41.68.92,1,.94a1.41,1.41,0,0,0,1.06-.89,9.34,9.34,0,0,0,.07-3c-.07-.46-.75-.83-1.15-1.24A7.13,7.13,0,0,0,39,152.22a3.26,3.26,0,0,0,0,1.29Z"/><path class="cls-1" d="M23.31,153.57a4.32,4.32,0,0,0,0,1.44c.15.41.62,1,.9,1,.45,0,1.18-.49,1.23-.85a12.3,12.3,0,0,0,0-3.32,1.45,1.45,0,0,0-1.05-.91,1.53,1.53,0,0,0-1.07.89,5.24,5.24,0,0,0-.05,1.73Z"/><path class="cls-1" d="M26.72,266.51l-1.27-.05v8.39a1.75,1.75,0,0,0,2.41-1,42.76,42.76,0,0,1,3.34-5.42v6.46h1.26v-8.32c-1.05-.27-1.82-.21-2.39.94-1,1.9-2.09,3.72-3.15,5.58l-.2-.06ZM35.24,270v1.12h4.19v2.61h-5l-.16,1.14h6.48v-8.38H34.54c-.35.7-.1,1,.67,1,1.37,0,2.75,0,4.21,0V270Zm-21.6-2.53V270H9.49c-.27.89-.06,1.23.84,1.19,1.05-.06,2.12,0,3.27,0v2.6h-5l-.08,1.15h6.42v-8.46c-2,0-3.9,0-5.85,0-.19,0-.37.45-.55.7l.27.31Zm34.76,4.72s-.13.1-.15.16A2.42,2.42,0,0,1,45,273.81a1.57,1.57,0,0,1-.82-1.1,1.45,1.45,0,0,1,.78-1.07,17.08,17.08,0,0,1,2.38-.67A2.2,2.2,0,0,0,49,268.9a2.13,2.13,0,0,0-1.28-2.18c-2.13-1.2-4.75-.06-4.92,2.16a1,1,0,0,0,1.37-.58,2.08,2.08,0,0,1,3-.53,1.47,1.47,0,0,1,.54,1.05,1.36,1.36,0,0,1-.75.91c-.72.29-1.52.39-2.27.62a2.32,2.32,0,0,0,.39,4.6,8.06,8.06,0,0,0,2.77-.25,2.21,2.21,0,0,0,1.55-2.48Zm7.86.63c-.42,1.12-2.51,1.5-3.48.74a1.08,1.08,0,0,1,.32-1.95,14,14,0,0,1,1.93-.48c1.48-.38,2.2-1.14,2.24-2.36s-.76-2-2.19-2.42a3.2,3.2,0,0,0-4.16,2.91c.63-.41,1-.7,1.43-.92a6.8,6.8,0,0,1,1.9-.92,1.42,1.42,0,0,1,1.75,1.2c.11.89-.69,1.12-1.4,1.3s-1.23.26-1.83.45a2.31,2.31,0,0,0,.16,4.5c2.52.71,4.39-.3,4.76-2.63C57,272.13,56.57,272,56.26,272.85Zm-33.69-.64c-.06.06-.14.1-.17.16a2.38,2.38,0,0,1-3.09,1.49,1.69,1.69,0,0,1-1-1.12c0-.38.48-.95.89-1.15a13.69,13.69,0,0,1,2.16-.57A2.23,2.23,0,0,0,23.16,269a2.2,2.2,0,0,0-1.54-2.36c-2.15-1-4.48.16-4.65,2.28a1,1,0,0,0,1.4-.5,2.77,2.77,0,0,1,1.74-.92,1.42,1.42,0,0,1,1.8,1.13c.18,1-.71,1.17-1.42,1.38s-1.31.29-1.94.5A2.09,2.09,0,0,0,17,272.69a2.18,2.18,0,0,0,1.58,2.11c2.49,1,4.78-.17,5-2.59Z"/><path class="cls-1" d="M26.72,273v-6.52l-1.27-.05v8.39a1.75,1.75,0,0,0,2.41-1,42.76,42.76,0,0,1,3.34-5.42v6.46h1.26v-8.32c-1.05-.27-1.82-.21-2.39.94-1,1.9-2.09,3.72-3.15,5.58Z"/><path class="cls-1" d="M39.42,270H35.24v1.12h4.19v2.61h-5l-.16,1.14h6.48v-8.38H34.54c-.35.7-.1,1,.67,1,1.37,0,2.75,0,4.21,0Z"/><path class="cls-1" d="M8.76,267.5h4.88V270H9.49c-.27.89-.06,1.23.84,1.19,1.05-.06,2.12,0,3.27,0v2.6h-5l-.08,1.15h6.42v-8.46c-2,0-3.9,0-5.85,0-.19,0-.37.45-.55.7Z"/><path class="cls-1" d="M49.42,272.22h-1s-.13.1-.15.16A2.42,2.42,0,0,1,45,273.81a1.57,1.57,0,0,1-.82-1.1,1.45,1.45,0,0,1,.78-1.07,17.08,17.08,0,0,1,2.38-.67A2.2,2.2,0,0,0,49,268.9a2.13,2.13,0,0,0-1.28-2.18c-2.13-1.2-4.75-.06-4.92,2.16a1,1,0,0,0,1.37-.58,2.08,2.08,0,0,1,3-.53,1.47,1.47,0,0,1,.54,1.05,1.36,1.36,0,0,1-.75.91c-.72.29-1.52.39-2.27.62a2.32,2.32,0,0,0,.39,4.6,8.06,8.06,0,0,0,2.77-.25A2.21,2.21,0,0,0,49.42,272.22Z"/><path class="cls-1" d="M57.69,272.27c-.66-.14-1.12-.24-1.43.58-.42,1.12-2.51,1.5-3.48.74a1.08,1.08,0,0,1,.32-1.95,14,14,0,0,1,1.93-.48c1.48-.38,2.2-1.14,2.24-2.36s-.76-2-2.19-2.42a3.2,3.2,0,0,0-4.16,2.91c.63-.41,1-.7,1.43-.92a6.8,6.8,0,0,1,1.9-.92,1.42,1.42,0,0,1,1.75,1.2c.11.89-.69,1.12-1.4,1.3s-1.23.26-1.83.45a2.31,2.31,0,0,0,.16,4.5C55.45,275.61,57.32,274.6,57.69,272.27Z"/><path class="cls-1" d="M23.58,272.21h-1c-.06.06-.14.1-.17.16a2.38,2.38,0,0,1-3.09,1.49,1.69,1.69,0,0,1-1-1.12c0-.38.48-.95.89-1.15a13.69,13.69,0,0,1,2.16-.57A2.23,2.23,0,0,0,23.16,269a2.2,2.2,0,0,0-1.54-2.36c-2.15-1-4.48.16-4.65,2.28a1,1,0,0,0,1.4-.5,2.77,2.77,0,0,1,1.74-.92,1.42,1.42,0,0,1,1.8,1.13c.18,1-.71,1.17-1.42,1.38s-1.31.29-1.94.5A2.09,2.09,0,0,0,17,272.69a2.18,2.18,0,0,0,1.58,2.11C21.06,275.76,23.35,274.63,23.58,272.21Z"/><path class="cls-1" d="M45.05,385.54c-1.79,0-3.54-.06-5.28,0a1.64,1.64,0,0,0-1.61,1.33,1.85,1.85,0,0,0,1.05,2.17c-1.32.78-.5,2.17-1.12,3.22a10.85,10.85,0,0,1,1.29,0c.62.07.78-.22.74-.76a3.74,3.74,0,0,1,0-.58c.05-.87.34-1.15,1.24-1.15h2v2.44h1.7Zm-16.8,2.58h-4v1.36h3.95v1.42H23.74v1.33h6.19v-6.69H23.78s-.07.08-.07.11c-.1,1.2-.1,1.2,1.13,1.2h3.41Zm-23,4.11H6.87v-6.69H5.24v2.54H1.67v-2.54H0v6.69H1.62v-2.66h3.6Zm3.61-4.39a1.3,1.3,0,0,0,1.36-.6,2,2,0,0,1,2.15-.63,2.11,2.11,0,0,1,1.74,1.49,2.33,2.33,0,0,1-1.2,2.92,2.28,2.28,0,0,1-3-1,.82.82,0,0,0-.54-.32,13.85,13.85,0,0,0-1.46,0A3.3,3.3,0,0,0,9.53,392a5.25,5.25,0,0,0,4.4.16A3.21,3.21,0,0,0,16,388.78a3.27,3.27,0,0,0-2.16-3.13,4.89,4.89,0,0,0-4.42.26A3,3,0,0,0,8,387.84C8.31,387.84,8.57,387.82,8.83,387.84Zm38.24,4.44c.39,0,.64-.08.74-.45a1.23,1.23,0,0,1,1.61-1,2,2,0,0,0,.65,0c.91-.13,1.57.08,1.8,1.08a.58.58,0,0,0,.45.33,15.39,15.39,0,0,0,1.54,0c-.17-.36-.31-.65-.44-.94-.87-1.8-1.77-3.58-2.59-5.4-.23-.5-.57-.45-.95-.44s-.82-.15-1.08.43c-.92,2-1.9,3.95-2.85,5.93-.05.11-.09.23-.16.42C46.26,392.28,46.67,392.25,47.07,392.28Zm6.39-5.43h4.28v1.26H53.85v1.37h3.9v2.76h1.67v-6.69h-6Zm-18.25,0v1.24H31.32v1.39h3.89v2.73h1.7v-6.69h-6v1.33Zm-16.55,0v5.37h1.71v-5.36h2.36v-1.33h-6.4v1.32Z"/><path class="cls-1" d="M43.35,392.24V389.8h-2c-.9,0-1.19.28-1.24,1.15a3.74,3.74,0,0,0,0,.58c0,.54-.12.83-.74.76a10.85,10.85,0,0,0-1.29,0c.62-1-.2-2.44,1.12-3.22a1.85,1.85,0,0,1-1.05-2.17,1.64,1.64,0,0,1,1.61-1.33c1.74-.08,3.49,0,5.28,0v6.7Zm-2.62-5.36a.71.71,0,0,0-.77.78.76.76,0,0,0,.86.78c.68,0,1.36,0,2,0,.4,0,.56-.13.53-.53s0-.64,0-1C42.42,386.88,41.58,386.86,40.73,386.88Z"/><path class="cls-1" d="M28.25,386.85v1.27h-4v1.36h3.95v1.42H23.74v1.33h6.19v-6.69H23.78s-.07.08-.07.11c-.1,1.2-.1,1.2,1.13,1.2Z"/><path class="cls-1" d="M5.22,389.57v2.66H6.87v-6.69H5.24v2.54H1.67v-2.54H0v6.69H1.62v-2.66Z"/><path class="cls-1" d="M8,387.84c.35,0,.61,0,.87,0a1.3,1.3,0,0,0,1.36-.6,2,2,0,0,1,2.15-.63,2.11,2.11,0,0,1,1.74,1.49,2.33,2.33,0,0,1-1.2,2.92,2.28,2.28,0,0,1-3-1,.82.82,0,0,0-.54-.32,13.85,13.85,0,0,0-1.46,0A3.3,3.3,0,0,0,9.53,392a5.25,5.25,0,0,0,4.4.16A3.21,3.21,0,0,0,16,388.78a3.27,3.27,0,0,0-2.16-3.13,4.89,4.89,0,0,0-4.42.26A3,3,0,0,0,8,387.84Z"/><path class="cls-1" d="M46,391.86c.95-2,1.93-3.94,2.85-5.93.26-.58.68-.41,1.08-.43s.72-.06.95.44c.82,1.82,1.72,3.6,2.59,5.4.13.29.27.58.44.94a15.39,15.39,0,0,1-1.54,0,.58.58,0,0,1-.45-.33c-.23-1-.89-1.21-1.8-1.08a2,2,0,0,1-.65,0,1.23,1.23,0,0,0-1.61,1c-.1.37-.35.49-.74.45s-.81,0-1.28,0C45.86,392.09,45.9,392,46,391.86Zm4.88-2.35L50,387.4,49,389.51Z"/><path class="cls-1" d="M53.46,385.55v1.3h4.28v1.26H53.85v1.37h3.9v2.76h1.67v-6.69Z"/><path class="cls-1" d="M30.94,386.87h4.27v1.24H31.32v1.39h3.89v2.73h1.7v-6.69h-6Z"/><path class="cls-1" d="M16.33,386.86h2.33v5.37h1.71v-5.36h2.36v-1.33h-6.4Z"/><path class="cls-2" d="M43.37,386.88c-.95,0-1.79,0-2.64,0a.71.71,0,0,0-.77.78.76.76,0,0,0,.86.78c.68,0,1.36,0,2,0,.4,0,.56-.13.53-.53S43.37,387.28,43.37,386.88Z"/><path class="cls-2" d="M49,389.51h1.8L50,387.4Z"/><path class="cls-1" d="M20.36,81a9.91,9.91,0,0,0-.83-1.87L12.44,98.42H10.11v.08h7.56v-.07h-2.2L16.75,95c.32-.86.62-1.73,1-2.58.05-.14.23-.33.35-.34,1.47,0,2.94,0,4.3,0-.05,1.47-.08,2.89-.14,4.32A4.41,4.41,0,0,1,22,97.56a1.49,1.49,0,0,1-2.25.94,2.31,2.31,0,0,0-.54-.23,3.63,3.63,0,0,0,3.37.58c1.83-.51,2.44-2,2.74-3.85l1.28,3.41H24.87v.09h3.66v0H26.8a23.38,23.38,0,0,1-1.35-3.8,7.32,7.32,0,0,1,.19-3.85,2.74,2.74,0,0,1,2.29-1.73c1.41-.2,2.85-.22,4.33-.32v9.66H30.07v.11h8.8v-.08H36.7c.1-.3.18-.52.26-.75q1-2.58,1.91-5.18a.54.54,0,0,1,.6-.43c1.86,0,3.73,0,5.6,0a.51.51,0,0,1,.58.38c.66,1.85,1.35,3.7,2,5.55a1.7,1.7,0,0,1,0,.22c-2-.13-4.26-1.77-4.53-5.09v5.39h14.6L46.94,79.92l.48,0c1.27,0,2.53,0,3.8,0a5.1,5.1,0,0,1,5.31,5,1.23,1.23,0,0,0,.13.55V79.8H43.52L54.4,98.41h-3c-1,0-1.93,0-2.89,0-.43,0-.61-.15-.76-.55q-1.94-5.33-3.92-10.64a5.44,5.44,0,0,0-.27-.54l-.85-2.3c-.29-.87-.57-1.74-.87-2.6a22.71,22.71,0,0,0-1.12-2.7L35.27,94l-.09,0v-14h2.17v-.1a1.28,1.28,0,0,0-.27,0c-2.74,0-5.48,0-8.21,0a6.34,6.34,0,0,0-4.4,1.66c-2.3,2.22-1.57,5.45,1.47,6.69.64.26,1.31.44,1.82.61a17.64,17.64,0,0,0-2,.47,19.85,19.85,0,0,0-2,.94l-.24-.3-2.09-5.7C21.08,83.09,20.73,82,20.36,81Z"/><path class="cls-1" d="M42.25,83.32,39.09,91.9h6.28a2.77,2.77,0,0,0-.13-.48c-.48-1.34-1-2.68-1.46-4-.08-.22-.13-.47-.19-.7a5.44,5.44,0,0,1,.27.54q2,5.33,3.92,10.64c.15.4.33.57.76.55,1,0,1.93,0,2.89,0h3L43.52,79.8H56.66v5.62a1.23,1.23,0,0,1-.13-.55,5.1,5.1,0,0,0-5.31-5c-1.27,0-2.53,0-3.8,0l-.48,0L57.78,98.53H43.18V93.14c.27,3.32,2.49,5,4.53,5.09a1.7,1.7,0,0,0,0-.22c-.67-1.85-1.36-3.7-2-5.55a.51.51,0,0,0-.58-.38c-1.87,0-3.74,0-5.6,0a.54.54,0,0,0-.6.43Q37.93,95.1,37,97.69c-.08.23-.16.45-.26.75h2.17v.08h-8.8v-.11h2.19V88.75c-1.48.1-2.92.12-4.33.32a2.74,2.74,0,0,0-2.29,1.73,7.32,7.32,0,0,0-.19,3.85,23.38,23.38,0,0,0,1.35,3.8h1.74v0H24.87v-.09h1.74L25.33,95c-.3,1.84-.91,3.34-2.74,3.85a3.63,3.63,0,0,1-3.37-.58,2.31,2.31,0,0,1,.54.23A1.49,1.49,0,0,0,22,97.56a4.41,4.41,0,0,0,.21-1.15c.06-1.43.09-2.85.14-4.32-1.36,0-2.83,0-4.3,0-.12,0-.3.2-.35.34-.34.85-.64,1.72-1,2.58l-1.27,3.41h2.2v.07H10.11v-.08h2.33L19.53,79.1A9.91,9.91,0,0,1,20.36,81c.37,1.06.72,2.12,1.09,3.19L21,83.34,17.9,91.93c1.16,0,2.25,0,3.33,0,.84,0,1.58,0,1.95-.94.15-.38.57-.65.36-1.14l.24.3a19.85,19.85,0,0,1,2-.94,17.64,17.64,0,0,1,2-.47c-.51-.17-1.18-.35-1.82-.61-3-1.24-3.77-4.47-1.47-6.69a6.34,6.34,0,0,1,4.4-1.66c2.73-.05,5.47,0,8.21,0a1.28,1.28,0,0,1,.27,0v.1H35.18V94l.09,0,5.48-14.89a22.71,22.71,0,0,1,1.12,2.7c.3.86.58,1.73.87,2.6Zm-10-3.42a12.16,12.16,0,0,0-3.76.26,3,3,0,0,0-2,1.91,7.62,7.62,0,0,0-.09,5,1.84,1.84,0,0,0,1.59,1.42c1.38.16,2.77.22,4.22.33Z"/><path class="cls-2" d="M42.74,84.39l-.49-1.07L39.09,91.9h6.28a2.77,2.77,0,0,0-.13-.48c-.48-1.34-1-2.68-1.46-4-.08-.22-.13-.47-.19-.7Z"/><path class="cls-2" d="M21.45,84.16,21,83.34,17.9,91.93c1.16,0,2.25,0,3.33,0,.84,0,1.58,0,1.95-.94.15-.38.57-.65.36-1.14Z"/><path class="cls-2" d="M32.28,88.81V79.9a12.16,12.16,0,0,0-3.76.26,3,3,0,0,0-2,1.91,7.62,7.62,0,0,0-.09,5,1.84,1.84,0,0,0,1.59,1.42C29.44,88.64,30.83,88.7,32.28,88.81Z"/><path class="cls-1" d="M28.1,34.81l-.4.11c-.15-.28-.31-.56-.44-.86-1.9-4.24-3.86-8.46-5.64-12.75-.72-1.73-2.14-2.19-3.64-2.58-.95-.25-.93.44-.78,1.14Q18.49,25.93,19.73,32c.72,3.44,1.41,6.88,2.12,10.31.08.4.22.79.33,1.2,2.05-.8,2.64-1.76,2.29-3.63-.85-4.56-1.73-9.11-2.58-13.67a1.07,1.07,0,0,1,.28-.92L29,41.4c1.37-1.21,2.43-2.28,2.29-4.14-.27-3.77-.44-7.55-.65-11.35.22.58.47,1.18.66,1.8q2.07,6.57,4.13,13.16a4,4,0,0,0,.42,1.05,2.56,2.56,0,0,0,.77.47,2.37,2.37,0,0,0,.36-.82,3.61,3.61,0,0,0-.23-1.11c-1.93-6.1-4-12.17-5.75-18.32-.69-2.36-2.37-2.78-4.74-3.43C26.9,24.27,27.5,29.54,28.1,34.81ZM38,28l-.29.45c1.06,1,2.13,2,3.17,3a4.47,4.47,0,0,1,1.24,1.38c1.18,3.1,2.26,6.24,3.39,9.37.17.47.38.93.58,1.41,2.17-1.14,2.52-1.89,1.85-4-.73-2.25-1.5-4.49-2.35-7,1.61.37,3,.63,4.41,1,.33.1.59.68.75,1.09.87,2.2,1.65,4.44,2.55,6.64.18.43.72.72,1.09,1.07a3.72,3.72,0,0,0,.17-1.48c-.75-2.29-1.61-4.55-2.42-6.81l3.39-2.84c-1.55-.45-2.8-.72-4-1.19a2.86,2.86,0,0,1-1.42-1.3c-1.22-2.78-2.28-5.63-3.48-8.42a7.37,7.37,0,0,0-1.23-1.54l-.63.39,4,10.21c-1.59-.33-3-.58-4.4-.95-.31-.08-.57-.59-.72-1a53.63,53.63,0,0,1-2.36-5.79c-.63-2.14-2-2.92-4.35-3.07.65,3.26,2.36,6.07,3.2,9.21Zm.42,11.64c.43,0,.93,0,1.42,0s1.35.06,1.62-.26a2.77,2.77,0,0,0,.36-1.79,2,2,0,0,0-.66-1,1.92,1.92,0,0,1-.64-2,1.8,1.8,0,0,0-.75-1.41,1.34,1.34,0,0,0-1.31.26c-.22.39,0,1,0,1.53,0,.12.19.22.23.35a4.08,4.08,0,0,1,.3,1.38c0,.14-.72.22-1.13.33Z"/><path class="cls-1" d="M26.27,18.71c.63,5.56,1.23,10.83,1.83,16.1l-.4.11c-.15-.28-.31-.56-.44-.86-1.9-4.24-3.86-8.46-5.64-12.75-.72-1.73-2.14-2.19-3.64-2.58-.95-.25-.93.44-.78,1.14Q18.49,25.93,19.73,32c.72,3.44,1.41,6.88,2.12,10.31.08.4.22.79.33,1.2,2.05-.8,2.64-1.76,2.29-3.63-.85-4.56-1.73-9.11-2.58-13.67a1.07,1.07,0,0,1,.28-.92L29,41.4c1.37-1.21,2.43-2.28,2.29-4.14-.27-3.77-.44-7.55-.65-11.35.22.58.47,1.18.66,1.8q2.07,6.57,4.13,13.16a4,4,0,0,0,.42,1.05,2.56,2.56,0,0,0,.77.47,2.37,2.37,0,0,0,.36-.82,3.61,3.61,0,0,0-.23-1.11c-1.93-6.1-4-12.17-5.75-18.32C30.32,19.78,28.64,19.36,26.27,18.71Z"/><path class="cls-1" d="M40.15,27.87,38,28l-.29.45c1.06,1,2.13,2,3.17,3a4.47,4.47,0,0,1,1.24,1.38c1.18,3.1,2.26,6.24,3.39,9.37.17.47.38.93.58,1.41,2.17-1.14,2.52-1.89,1.85-4-.73-2.25-1.5-4.49-2.35-7,1.61.37,3,.63,4.41,1,.33.1.59.68.75,1.09.87,2.2,1.65,4.44,2.55,6.64.18.43.72.72,1.09,1.07a3.72,3.72,0,0,0,.17-1.48c-.75-2.29-1.61-4.55-2.42-6.81l3.39-2.84c-1.55-.45-2.8-.72-4-1.19a2.86,2.86,0,0,1-1.42-1.3c-1.22-2.78-2.28-5.63-3.48-8.42a7.37,7.37,0,0,0-1.23-1.54l-.63.39,4,10.21c-1.59-.33-3-.58-4.4-.95-.31-.08-.57-.59-.72-1a53.63,53.63,0,0,1-2.36-5.79c-.63-2.14-2-2.92-4.35-3.07C37.6,21.92,39.31,24.73,40.15,27.87Z"/><path class="cls-1" d="M37.9,36.94l.54,2.67c.43,0,.93,0,1.42,0s1.35.06,1.62-.26a2.77,2.77,0,0,0,.36-1.79,2,2,0,0,0-.66-1,1.92,1.92,0,0,1-.64-2,1.8,1.8,0,0,0-.75-1.41,1.34,1.34,0,0,0-1.31.26c-.22.39,0,1,0,1.53,0,.12.19.22.23.35a4.08,4.08,0,0,1,.3,1.38C39,36.75,38.31,36.83,37.9,36.94Z"/><text class="cls-3" transform="translate(61.86 440.68)">0</text><text class="cls-3" transform="translate(83.36 440.68)">20</text><text class="cls-3" transform="translate(107.74 440.68)">40</text><text class="cls-3" transform="translate(132.12 440.68)">60</text><text class="cls-3" transform="translate(156.49 440.68)">80</text><text class="cls-3" transform="translate(178 440.68)">100</text><text class="cls-3" transform="translate(202.38 440.68)">120</text><text class="cls-3" transform="translate(226.76 440.68)">140</text><text class="cls-3" transform="translate(251.13 440.68)">160</text><text class="cls-3" transform="translate(275.51 440.68)">180</text><text class="cls-3" transform="translate(299.89 440.68)">200</text><text class="cls-3" transform="translate(324.26 440.68)">220</text><text class="cls-3" transform="translate(348.64 440.68)">240</text><text class="cls-3" transform="translate(373.02 440.68)">260</text><text class="cls-3" transform="translate(397.39 440.68)">280</text><text class="cls-3" transform="translate(421.77 440.68)">300</text><text class="cls-3" transform="translate(446.15 440.68)">320</text><text class="cls-3" transform="translate(470.52 440.68)">340</text><text class="cls-3" transform="translate(494.9 440.68)">360</text><text class="cls-3" transform="translate(519.28 440.68)">380</text><text class="cls-3" transform="translate(543.65 440.68)">400</text><line class="cls-4" x1="64.72" y1="417.03" x2="552.26" y2="417.03"/><line class="cls-4" x1="64.72" y1="417.03" x2="64.72" y2="0.5"/><line class="cls-4" x1="89.1" y1="417.03" x2="89.1" y2="0.5"/><line class="cls-4" x1="113.48" y1="417.03" x2="113.48" y2="0.5"/><line class="cls-4" x1="137.85" y1="417.03" x2="137.85" y2="0.5"/><line class="cls-4" x1="162.23" y1="417.03" x2="162.23" y2="0.5"/><line class="cls-4" x1="186.61" y1="417.03" x2="186.61" y2="0.5"/><line class="cls-4" x1="210.99" y1="417.03" x2="210.99" y2="0.5"/><line class="cls-4" x1="235.36" y1="417.03" x2="235.36" y2="0.5"/><line class="cls-4" x1="259.74" y1="417.03" x2="259.74" y2="0.5"/><line class="cls-4" x1="284.12" y1="417.03" x2="284.12" y2="0.5"/><line class="cls-4" x1="308.49" y1="417.03" x2="308.49" y2="0.5"/><line class="cls-4" x1="332.87" y1="417.03" x2="332.87" y2="0.5"/><line class="cls-4" x1="357.25" y1="417.03" x2="357.25" y2="0.5"/><line class="cls-4" x1="381.62" y1="417.03" x2="381.62" y2="0.5"/><line class="cls-4" x1="406" y1="417.03" x2="406" y2="0.5"/><line class="cls-4" x1="430.38" y1="417.03" x2="430.38" y2="0.5"/><line class="cls-4" x1="454.75" y1="417.03" x2="454.75" y2="0.5"/><line class="cls-4" x1="479.13" y1="417.03" x2="479.13" y2="0.5"/><line class="cls-4" x1="503.51" y1="417.03" x2="503.51" y2="0.5"/><line class="cls-4" x1="527.88" y1="417.03" x2="527.88" y2="0.5"/><line class="cls-4" x1="552.26" y1="417.03" x2="552.26" y2="0.5"/><line class="cls-4" x1="64.72" y1="0.5" x2="552.26" y2="0.5"/><line class="cls-4" x1="64.72" y1="417.03" x2="64.72" y2="0.5"/><line class="cls-4" x1="89.1" y1="417.03" x2="89.1" y2="0.5"/><line class="cls-4" x1="113.48" y1="417.03" x2="113.48" y2="0.5"/><line class="cls-4" x1="137.85" y1="417.03" x2="137.85" y2="0.5"/><line class="cls-4" x1="162.23" y1="417.03" x2="162.23" y2="0.5"/><line class="cls-4" x1="186.61" y1="417.03" x2="186.61" y2="0.5"/><line class="cls-4" x1="210.99" y1="417.03" x2="210.99" y2="0.5"/><line class="cls-4" x1="235.36" y1="417.03" x2="235.36" y2="0.5"/><line class="cls-4" x1="259.74" y1="417.03" x2="259.74" y2="0.5"/><line class="cls-4" x1="284.12" y1="417.03" x2="284.12" y2="0.5"/><line class="cls-4" x1="308.49" y1="417.03" x2="308.49" y2="0.5"/><line class="cls-4" x1="332.87" y1="417.03" x2="332.87" y2="0.5"/><line class="cls-4" x1="357.25" y1="417.03" x2="357.25" y2="0.5"/><line class="cls-4" x1="381.62" y1="417.03" x2="381.62" y2="0.5"/><line class="cls-4" x1="406" y1="417.03" x2="406" y2="0.5"/><line class="cls-4" x1="430.38" y1="417.03" x2="430.38" y2="0.5"/><line class="cls-4" x1="454.75" y1="417.03" x2="454.75" y2="0.5"/><line class="cls-4" x1="479.13" y1="417.03" x2="479.13" y2="0.5"/><line class="cls-4" x1="503.51" y1="417.03" x2="503.51" y2="0.5"/><line class="cls-4" x1="527.88" y1="417.03" x2="527.88" y2="0.5"/><line class="cls-4" x1="552.26" y1="417.03" x2="552.26" y2="0.5"/><line class="cls-4" x1="64.72" y1="417.03" x2="64.72" y2="0.5"/><line class="cls-4" x1="64.72" y1="387.28" x2="76.91" y2="387.28"/><line class="cls-4" x1="64.72" y1="327.77" x2="76.91" y2="327.77"/><line class="cls-4" x1="64.72" y1="268.27" x2="76.91" y2="268.27"/><line class="cls-4" x1="64.72" y1="208.76" x2="76.91" y2="208.76"/><line class="cls-4" x1="64.72" y1="149.26" x2="76.91" y2="149.26"/><line class="cls-4" x1="64.72" y1="89.76" x2="76.91" y2="89.76"/><line class="cls-4" x1="64.72" y1="30.25" x2="76.91" y2="30.25"/><rect class="cls-5" x="253.64" y="8.83" width="25.6" height="42.84"/><rect class="cls-4" x="126.89" y="68.33" height="42.84"/><rect class="cls-5" x="96.41" y="127.84" width="1.22" height="42.84"/><rect class="cls-5" x="90.32" y="187.34" width="2.44" height="42.84"/><rect class="cls-5" x="381.62" y="246.85" width="14.63" height="42.84"/><rect class="cls-5" x="306.05" y="306.35" width="25.6" height="42.84"/><rect class="cls-5" x="482.79" y="365.85" width="21.94" height="42.84"/><rect class="cls-6" x="207.33" y="8.83" width="46.32" height="42.84"/><rect class="cls-6" x="112.26" y="68.33" width="14.63" height="42.84"/><rect class="cls-6" x="89.1" y="127.84" width="7.31" height="42.84"/><rect class="cls-6" x="80.57" y="187.34" width="9.75" height="42.84"/><rect class="cls-6" x="335.31" y="246.85" width="46.32" height="42.84"/><rect class="cls-6" x="280.46" y="306.35" width="25.6" height="42.84"/><rect class="cls-6" x="431.6" y="365.85" width="51.19" height="42.84"/><rect class="cls-7" x="87.88" y="8.83" width="119.45" height="42.84"/><rect class="cls-7" x="70.82" y="68.33" width="41.44" height="42.84"/><rect class="cls-7" x="70.82" y="127.84" width="18.28" height="42.84"/><rect class="cls-7" x="68.38" y="187.34" width="12.19" height="42.84"/><rect class="cls-7" x="89.1" y="246.85" width="246.21" height="42.84"/><rect class="cls-7" x="93.98" y="306.35" width="186.48" height="42.84"/><rect class="cls-7" x="91.54" y="365.85" width="340.06" height="42.84"/><rect class="cls-4" x="64.72" y="8.83" width="23.16" height="42.84"/><rect class="cls-4" x="64.72" y="68.33" width="6.09" height="42.84"/><rect class="cls-4" x="64.72" y="127.84" width="6.09" height="42.84"/><rect class="cls-4" x="64.72" y="187.34" width="3.66" height="42.84"/><rect class="cls-4" x="64.72" y="246.85" width="24.38" height="42.84"/><rect class="cls-4" x="64.72" y="306.35" width="29.25" height="42.84"/><rect class="cls-4" x="64.72" y="365.85" width="26.81" height="42.84"/></g></g></svg>