<svg xmlns="http://www.w3.org/2000/svg" viewBox="0 0 247.37 23.28"><defs><style>.cls-1{fill:#070a0c;}</style></defs><g id="Laag_2" data-name="Laag 2"><g id="Images"><path class="cls-1" d="M10.94,1.85a8,8,0,0,1,2,1.15.83.83,0,0,0,.46.22c.32,0,.53-.48.62-1.44h.55c-.06,1.08-.09,3-.09,5.8H13.9a12.4,12.4,0,0,0-.58-2.71A3.9,3.9,0,0,0,12.1,3.24a4.15,4.15,0,0,0-1.4-.88,4.6,4.6,0,0,0-1.65-.3,3.81,3.81,0,0,0-3.6,2.37,13.06,13.06,0,0,0-1.18,5.89A12.56,12.56,0,0,0,5.5,16.18a3.91,3.91,0,0,0,3.64,2.35,4.55,4.55,0,0,0,1.62-.3,3.52,3.52,0,0,0,1.36-.88,3.6,3.6,0,0,0,1.24-1.68,13.88,13.88,0,0,0,.54-2.95h.55c0,2.9,0,4.91.09,6H14a4.23,4.23,0,0,0-.2-1.09c-.09-.22-.21-.33-.37-.33a1.15,1.15,0,0,0-.51.19,10.23,10.23,0,0,1-2.06,1.17,6.48,6.48,0,0,1-2.38.39,9.2,9.2,0,0,1-4.45-1,7.17,7.17,0,0,1-3-3A9.6,9.6,0,0,1,0,10.42,9.85,9.85,0,0,1,1.08,5.74a7.8,7.8,0,0,1,3-3.17A8.61,8.61,0,0,1,8.5,1.44,6.52,6.52,0,0,1,10.94,1.85Z"/><path class="cls-1" d="M26.1,7.6a8.16,8.16,0,0,1,2.44,5q.6,3.4-.69,5a4.92,4.92,0,0,1-4,1.56,6.86,6.86,0,0,1-4.58-1.56,8,8,0,0,1-2.45-5q-.6-3.42.69-5A4.92,4.92,0,0,1,21.5,6,6.83,6.83,0,0,1,26.1,7.6ZM20.21,8a12.54,12.54,0,0,0,.19,4.58,14.18,14.18,0,0,0,1.42,4.56c.58,1,1.22,1.48,1.9,1.48s1.17-.49,1.4-1.47a12.38,12.38,0,0,0-.21-4.57A14.06,14.06,0,0,0,23.49,8c-.58-1-1.21-1.49-1.9-1.49S20.44,7,20.21,8Z"/><path class="cls-1" d="M41.59,7a2.72,2.72,0,0,1,.58,1.18,9.06,9.06,0,0,1,.16,1.94v6.46a2,2,0,0,0,.35,1.35,1.59,1.59,0,0,0,1.19.37v.51c-1.6-.07-2.66-.1-3.17-.1s-1.52,0-3.12.1v-.51a1.2,1.2,0,0,0,1-.37,2.32,2.32,0,0,0,.29-1.35V9.07a2.87,2.87,0,0,0-.32-1.49,1.3,1.3,0,0,0-1.17-.5,2.16,2.16,0,0,0-1.68.8,3,3,0,0,0-.69,2v6.68a2.34,2.34,0,0,0,.28,1.35,1.21,1.21,0,0,0,1,.37v.51c-1.47-.07-2.46-.1-3-.1s-1.58,0-3.31.1v-.51a1.55,1.55,0,0,0,1.2-.37,2,2,0,0,0,.34-1.35V9a2.9,2.9,0,0,0-.34-1.61A1.32,1.32,0,0,0,30,6.86v-.5c.52,0,1,.07,1.49.07A15.41,15.41,0,0,0,35,6.1V8.26A4,4,0,0,1,39,6,3.34,3.34,0,0,1,41.59,7Z"/><path class="cls-1" d="M51.19,6.25a4.12,4.12,0,0,1,1.18.52.79.79,0,0,0,.43.17.45.45,0,0,0,.37-.23,1.46,1.46,0,0,0,.21-.66h.5c-.06.81-.1,2.22-.1,4.22h-.5a6,6,0,0,0-1-2.65,2.41,2.41,0,0,0-2.12-1.07A1.76,1.76,0,0,0,49,7a1.43,1.43,0,0,0-.47,1.13,2,2,0,0,0,.55,1.4,12.67,12.67,0,0,0,1.73,1.43l.7.5a13.31,13.31,0,0,1,2.16,2,3.37,3.37,0,0,1,.69,2.16,3,3,0,0,1-.61,1.87,3.83,3.83,0,0,1-1.64,1.25,5.83,5.83,0,0,1-2.28.43,4.69,4.69,0,0,1-2.26-.5,10.61,10.61,0,0,0-1.1-.5.37.37,0,0,0-.42.15,1.73,1.73,0,0,0-.28.69h-.5q.09-1.38.09-4.8h.51q.48,4.41,3.24,4.41a1.78,1.78,0,0,0,1.19-.42,1.62,1.62,0,0,0,.49-1.28,2.38,2.38,0,0,0-.3-1.2,3.61,3.61,0,0,0-.76-.94c-.3-.27-.76-.65-1.37-1.13s-1.26-1-1.64-1.39a4.78,4.78,0,0,1-1-1.25,3.3,3.3,0,0,1-.4-1.6,2.85,2.85,0,0,1,1.2-2.43A4.81,4.81,0,0,1,49.51,6,5.93,5.93,0,0,1,51.19,6.25Z"/><path class="cls-1" d="M67.8,16.15a2.91,2.91,0,0,0,.35,1.61,1.33,1.33,0,0,0,1.19.5v.51c-.5-.05-1-.07-1.49-.07a15.85,15.85,0,0,0-3.51.33V16.87a3.93,3.93,0,0,1-3.86,2.23,3.33,3.33,0,0,1-2.62-.93A3,3,0,0,1,57.3,17a8.36,8.36,0,0,1-.18-1.93V9a2.89,2.89,0,0,0-.35-1.61,1.33,1.33,0,0,0-1.19-.51v-.5c.5,0,1,.07,1.49.07a15.85,15.85,0,0,0,3.51-.33V16a2.9,2.9,0,0,0,.3,1.51,1.21,1.21,0,0,0,1.14.51,2.08,2.08,0,0,0,1.64-.81,2.91,2.91,0,0,0,.68-2V9A2.9,2.9,0,0,0,64,7.37a1.35,1.35,0,0,0-1.19-.51v-.5c.51,0,1,.07,1.49.07a15.69,15.69,0,0,0,3.5-.33Z"/><path class="cls-1" d="M90,17.89a1.55,1.55,0,0,0,1.18.37v.51c-1.6-.07-2.65-.1-3.16-.1s-1.44,0-3,.1v-.51a1,1,0,0,0,.9-.36,2.53,2.53,0,0,0,.25-1.36V9.07a3,3,0,0,0-.3-1.5,1.22,1.22,0,0,0-1.14-.49,2,2,0,0,0-1.55.74,3.24,3.24,0,0,0-.78,1.83v6.89a2.24,2.24,0,0,0,.3,1.35,1.35,1.35,0,0,0,1.1.37v.51c-1.54-.07-2.55-.1-3-.1s-1.44,0-3,.1v-.51a1,1,0,0,0,.9-.37A2.67,2.67,0,0,0,79,16.54V9.07a3.24,3.24,0,0,0-.27-1.5,1.05,1.05,0,0,0-1-.49,2.09,2.09,0,0,0-1.64.8,3,3,0,0,0-.69,2v6.68a2.55,2.55,0,0,0,.26,1.35,1,1,0,0,0,.9.37v.51c-1.41-.07-2.36-.1-2.84-.1s-1.58,0-3.31.1v-.51a1.55,1.55,0,0,0,1.2-.37,2,2,0,0,0,.34-1.35V9a2.9,2.9,0,0,0-.34-1.61,1.32,1.32,0,0,0-1.2-.51v-.5c.51,0,1,.07,1.49.07a15.32,15.32,0,0,0,3.5-.33V8.26A3.79,3.79,0,0,1,79.1,6,3.34,3.34,0,0,1,81.74,7a2.52,2.52,0,0,1,.6,1.44A3.93,3.93,0,0,1,84,6.56,4.88,4.88,0,0,1,86.33,6,3.36,3.36,0,0,1,89,7a2.65,2.65,0,0,1,.55,1.18,9.16,9.16,0,0,1,.17,1.94v6.46A2,2,0,0,0,90,17.89Z"/><path class="cls-1" d="M97.1,16.54a2,2,0,0,0,.35,1.35,1.57,1.57,0,0,0,1.19.37v.51c-1.6-.07-2.66-.1-3.19-.1s-1.61,0-3.34.1v-.51a1.55,1.55,0,0,0,1.2-.37,2,2,0,0,0,.34-1.35V9a2.9,2.9,0,0,0-.34-1.61,1.32,1.32,0,0,0-1.2-.51v-.5c.51,0,1,.07,1.49.07a15.32,15.32,0,0,0,3.5-.33ZM96.83.66A1.69,1.69,0,0,1,97.42,2a1.68,1.68,0,0,1-.59,1.35,2.86,2.86,0,0,1-3.2,0A1.67,1.67,0,0,1,93.05,2,1.68,1.68,0,0,1,93.63.66a2.86,2.86,0,0,1,3.2,0Z"/><path class="cls-1" d="M111.24,7a2.61,2.61,0,0,1,.57,1.18,8.37,8.37,0,0,1,.17,1.94v6.46a2,2,0,0,0,.35,1.35,1.57,1.57,0,0,0,1.19.37v.51c-1.6-.07-2.66-.1-3.17-.1s-1.52,0-3.12.1v-.51a1.2,1.2,0,0,0,1-.37,2.32,2.32,0,0,0,.29-1.35V9.07a2.77,2.77,0,0,0-.33-1.49,1.27,1.27,0,0,0-1.16-.5,2.15,2.15,0,0,0-1.68.8,2.91,2.91,0,0,0-.7,2v6.68a2.32,2.32,0,0,0,.29,1.35,1.2,1.2,0,0,0,1,.37v.51c-1.47-.07-2.47-.1-3-.1s-1.58,0-3.31.1v-.51a1.55,1.55,0,0,0,1.2-.37,2.07,2.07,0,0,0,.34-1.35V9a3,3,0,0,0-.34-1.61,1.32,1.32,0,0,0-1.2-.51v-.5c.51,0,1,.07,1.49.07a15.32,15.32,0,0,0,3.5-.33V8.26A4,4,0,0,1,108.6,6,3.36,3.36,0,0,1,111.24,7Z"/><path class="cls-1" d="M124.8,8.34a1.24,1.24,0,0,1-.34-.92,2.73,2.73,0,0,1,.29-1.18,4,4,0,0,0-1,.54,2.49,2.49,0,0,0-.63.76,3.49,3.49,0,0,1,.74,2.3,3.33,3.33,0,0,1-1.31,2.86,5.71,5.71,0,0,1-3.47,1h-.43c-.65.38-1,.8-1,1.27s.32.77,1,.77h2.61a6.38,6.38,0,0,1,3.38.78,2.6,2.6,0,0,1,1.26,2.38,3.5,3.5,0,0,1-.78,2.22,5.25,5.25,0,0,1-2.37,1.6,11,11,0,0,1-3.88.6,9.89,9.89,0,0,1-3.74-.59c-.93-.39-1.4-1-1.4-1.69a1.72,1.72,0,0,1,.67-1.33,4.92,4.92,0,0,1,2-.93l.22.39a2.1,2.1,0,0,0-.86,1.65,1.69,1.69,0,0,0,.91,1.55,6,6,0,0,0,5.24-.13,2.12,2.12,0,0,0,1-1.9,1.48,1.48,0,0,0-.58-1.24,3.42,3.42,0,0,0-2.06-.46h-1.48a4.6,4.6,0,0,1-2.4-.52,1.69,1.69,0,0,1-.87-1.57,2.28,2.28,0,0,1,.63-1.58,6.39,6.39,0,0,1,1.89-1.35,4.69,4.69,0,0,1-2.73-1.15,3.37,3.37,0,0,1-1-2.59A3.31,3.31,0,0,1,115.67,7a5.72,5.72,0,0,1,3.46-1,5.4,5.4,0,0,1,3.68,1.13,3.48,3.48,0,0,1,1.13-1,2.64,2.64,0,0,1,1.36-.38,1.54,1.54,0,0,1,1.14.42,1.47,1.47,0,0,1,.42,1.09,1.39,1.39,0,0,1-.37,1,1.19,1.19,0,0,1-.87.37A1.1,1.1,0,0,1,124.8,8.34Zm-4.64,4.12a7.08,7.08,0,0,0,.34-2.62,7.08,7.08,0,0,0-.34-2.62,1.12,1.12,0,0,0-1-.76,1.09,1.09,0,0,0-1,.76,6.83,6.83,0,0,0-.35,2.62,6.83,6.83,0,0,0,.35,2.62,1.09,1.09,0,0,0,1,.76A1.12,1.12,0,0,0,120.16,12.46Z"/><path class="cls-1" d="M144.5,1.85a8.15,8.15,0,0,1,2,1.15.83.83,0,0,0,.46.22c.32,0,.52-.48.62-1.44h.55c-.06,1.08-.09,3-.09,5.8h-.56a11.91,11.91,0,0,0-.57-2.71,3.85,3.85,0,0,0-1.23-1.63,4.11,4.11,0,0,0-1.39-.88,4.64,4.64,0,0,0-1.65-.3A3.81,3.81,0,0,0,139,4.43a13.06,13.06,0,0,0-1.18,5.89,12.68,12.68,0,0,0,1.22,5.86,3.93,3.93,0,0,0,3.65,2.35,4.55,4.55,0,0,0,1.62-.3,3.52,3.52,0,0,0,1.36-.88,3.52,3.52,0,0,0,1.23-1.68,12.71,12.71,0,0,0,.54-2.95H148c0,2.9,0,4.91.09,6h-.55a4.72,4.72,0,0,0-.2-1.09c-.09-.22-.22-.33-.38-.33a1.17,1.17,0,0,0-.5.19,10.23,10.23,0,0,1-2.06,1.17,6.48,6.48,0,0,1-2.38.39,9.17,9.17,0,0,1-4.45-1,7.25,7.25,0,0,1-3-3,9.72,9.72,0,0,1-1.05-4.66,9.85,9.85,0,0,1,1.08-4.68,7.8,7.8,0,0,1,3-3.17,8.6,8.6,0,0,1,4.4-1.13A6.57,6.57,0,0,1,144.5,1.85Z"/><path class="cls-1" d="M159.66,7.6a8.16,8.16,0,0,1,2.44,5q.6,3.4-.69,5a4.92,4.92,0,0,1-4,1.56,6.88,6.88,0,0,1-4.59-1.56,8.08,8.08,0,0,1-2.44-5q-.6-3.42.69-5a4.92,4.92,0,0,1,4-1.58A6.83,6.83,0,0,1,159.66,7.6Zm-5.89.4a12.32,12.32,0,0,0,.19,4.58,14.18,14.18,0,0,0,1.42,4.56c.58,1,1.21,1.48,1.9,1.48s1.17-.49,1.4-1.47a12.38,12.38,0,0,0-.21-4.57A14.06,14.06,0,0,0,157.05,8c-.58-1-1.22-1.49-1.9-1.49S154,7,153.77,8Z"/><path class="cls-1" d="M175.15,7a2.72,2.72,0,0,1,.58,1.18,9.06,9.06,0,0,1,.16,1.94v6.46a2,2,0,0,0,.35,1.35,1.57,1.57,0,0,0,1.19.37v.51c-1.6-.07-2.66-.1-3.17-.1s-1.52,0-3.12.1v-.51a1.2,1.2,0,0,0,1-.37,2.32,2.32,0,0,0,.29-1.35V9.07a2.77,2.77,0,0,0-.33-1.49,1.27,1.27,0,0,0-1.16-.5,2.15,2.15,0,0,0-1.68.8,3,3,0,0,0-.7,2v6.68a2.32,2.32,0,0,0,.29,1.35,1.2,1.2,0,0,0,1,.37v.51c-1.47-.07-2.46-.1-3-.1s-1.58,0-3.31.1v-.51a1.55,1.55,0,0,0,1.2-.37,2,2,0,0,0,.34-1.35V9a2.9,2.9,0,0,0-.34-1.61,1.32,1.32,0,0,0-1.2-.51v-.5c.51,0,1,.07,1.49.07a15.32,15.32,0,0,0,3.5-.33V8.26A4,4,0,0,1,172.51,6,3.34,3.34,0,0,1,175.15,7Z"/><path class="cls-1" d="M187.22.79a2.16,2.16,0,0,1,.59.76,2.37,2.37,0,0,1,.23,1,1.62,1.62,0,0,1-.48,1.17,1.67,1.67,0,0,1-1.23.49A1.88,1.88,0,0,1,185,3.79a1.61,1.61,0,0,1-.5-1.25,1.79,1.79,0,0,1,.36-1.1,1.9,1.9,0,0,1,1.06-.67.54.54,0,0,0-.3-.24,1.65,1.65,0,0,0-1.86.53,2.23,2.23,0,0,0-.36,1,15.47,15.47,0,0,0-.1,2.09V6.38h2.57v.48h-2.57V16.3a1.84,1.84,0,0,0,.56,1.53,2.77,2.77,0,0,0,1.7.43v.51l-.68,0c-1.77,0-2.92-.07-3.45-.07s-1.52,0-3.12.1v-.51a1.58,1.58,0,0,0,1.2-.37,2.08,2.08,0,0,0,.33-1.35V6.86h-1.63V6.38h1.63a12.08,12.08,0,0,1,.34-3.22,4.39,4.39,0,0,1,1.18-2,3.88,3.88,0,0,1,1.41-.86A5.12,5.12,0,0,1,184.65,0,4.2,4.2,0,0,1,187.22.79Z"/><path class="cls-1" d="M198.72,16.15a2.83,2.83,0,0,0,.35,1.61,1.31,1.31,0,0,0,1.18.5v.51a14.66,14.66,0,0,0-1.48-.07,15.78,15.78,0,0,0-3.51.33V16.87a3.93,3.93,0,0,1-3.86,2.23,3.33,3.33,0,0,1-2.62-.93,3,3,0,0,1-.56-1.19,8.36,8.36,0,0,1-.18-1.93V9a2.89,2.89,0,0,0-.35-1.61,1.33,1.33,0,0,0-1.19-.51v-.5a14.86,14.86,0,0,0,1.49.07,15.69,15.69,0,0,0,3.5-.33V16a3,3,0,0,0,.3,1.51,1.21,1.21,0,0,0,1.14.51,2.1,2.1,0,0,0,1.65-.81,3,3,0,0,0,.68-2V9a2.81,2.81,0,0,0-.35-1.61,1.32,1.32,0,0,0-1.18-.51v-.5c.51,0,1,.07,1.48.07a15.78,15.78,0,0,0,3.51-.33Z"/><path class="cls-1" d="M207.74,6.25a4.12,4.12,0,0,1,1.18.52.79.79,0,0,0,.43.17.45.45,0,0,0,.37-.23,1.46,1.46,0,0,0,.21-.66h.5c-.06.81-.1,2.22-.1,4.22h-.5a6,6,0,0,0-1-2.65,2.41,2.41,0,0,0-2.12-1.07,1.76,1.76,0,0,0-1.19.41,1.43,1.43,0,0,0-.47,1.13,2,2,0,0,0,.55,1.4,12.67,12.67,0,0,0,1.73,1.43l.7.5a13.31,13.31,0,0,1,2.16,2,3.37,3.37,0,0,1,.69,2.16,3,3,0,0,1-.61,1.87,3.83,3.83,0,0,1-1.64,1.25,5.83,5.83,0,0,1-2.28.43,4.69,4.69,0,0,1-2.26-.5,10.61,10.61,0,0,0-1.1-.5.37.37,0,0,0-.42.15,1.73,1.73,0,0,0-.28.69h-.5q.09-1.38.09-4.8h.51q.48,4.41,3.24,4.41a1.78,1.78,0,0,0,1.19-.42,1.62,1.62,0,0,0,.49-1.28,2.38,2.38,0,0,0-.3-1.2,3.61,3.61,0,0,0-.76-.94c-.3-.27-.76-.65-1.37-1.13s-1.26-1-1.64-1.39a4.78,4.78,0,0,1-1-1.25,3.3,3.3,0,0,1-.4-1.6,2.85,2.85,0,0,1,1.2-2.43A4.81,4.81,0,0,1,206.06,6,5.93,5.93,0,0,1,207.74,6.25Z"/><path class="cls-1" d="M217.39,16.54a2,2,0,0,0,.35,1.35,1.57,1.57,0,0,0,1.19.37v.51c-1.6-.07-2.67-.1-3.2-.1s-1.6,0-3.33.1v-.51a1.58,1.58,0,0,0,1.2-.37,2.08,2.08,0,0,0,.33-1.35V9a3,3,0,0,0-.33-1.61,1.34,1.34,0,0,0-1.2-.51v-.5c.51,0,1,.07,1.49.07a15.32,15.32,0,0,0,3.5-.33ZM217.11.66A1.66,1.66,0,0,1,217.7,2a1.65,1.65,0,0,1-.59,1.35,2.38,2.38,0,0,1-1.59.49,2.41,2.41,0,0,1-1.6-.49A1.68,1.68,0,0,1,213.33,2a1.69,1.69,0,0,1,.59-1.36,2.41,2.41,0,0,1,1.6-.49A2.38,2.38,0,0,1,217.11.66Z"/><path class="cls-1" d="M229.59,7.6a8.11,8.11,0,0,1,2.44,5q.6,3.4-.68,5a5,5,0,0,1-4,1.56,6.86,6.86,0,0,1-4.58-1.56,8.08,8.08,0,0,1-2.45-5q-.6-3.42.7-5A4.91,4.91,0,0,1,225,6,6.79,6.79,0,0,1,229.59,7.6ZM223.7,8a12.37,12.37,0,0,0,.2,4.58,14.47,14.47,0,0,0,1.41,4.56c.59,1,1.22,1.48,1.91,1.48s1.17-.49,1.39-1.47a12.55,12.55,0,0,0-.2-4.57A14.57,14.57,0,0,0,227,8c-.59-1-1.22-1.49-1.91-1.49S223.93,7,223.7,8Z"/><path class="cls-1" d="M245.08,7a2.52,2.52,0,0,1,.58,1.18,9,9,0,0,1,.17,1.94v6.46a2,2,0,0,0,.35,1.35,1.56,1.56,0,0,0,1.19.37v.51c-1.6-.07-2.66-.1-3.17-.1s-1.52,0-3.12.1v-.51a1.18,1.18,0,0,0,1-.37,2.25,2.25,0,0,0,.29-1.35V9.07a2.77,2.77,0,0,0-.32-1.49,1.29,1.29,0,0,0-1.16-.5,2.15,2.15,0,0,0-1.68.8,2.91,2.91,0,0,0-.7,2v6.68a2.32,2.32,0,0,0,.29,1.35,1.2,1.2,0,0,0,1,.37v.51c-1.48-.07-2.47-.1-3-.1s-1.58,0-3.31.1v-.51a1.58,1.58,0,0,0,1.2-.37,2.08,2.08,0,0,0,.33-1.35V9a3,3,0,0,0-.33-1.61,1.34,1.34,0,0,0-1.2-.51v-.5c.51,0,1,.07,1.49.07a15.32,15.32,0,0,0,3.5-.33V8.26A4,4,0,0,1,242.45,6,3.33,3.33,0,0,1,245.08,7Z"/></g></g></svg>