<svg xmlns="http://www.w3.org/2000/svg" viewBox="0 0 257.37 19.18"><defs><style>.cls-1{fill:#070a0c;}</style></defs><g id="Laag_2" data-name="Laag 2"><g id="Images"><path class="cls-1" d="M14.64,5.88a17.85,17.85,0,0,0,.07,1.82h-.55a9.62,9.62,0,0,0-1.57-4.15,3.36,3.36,0,0,0-2.73-1.2H9.31V16.06a3.71,3.71,0,0,0,.21,1.46,1.06,1.06,0,0,0,.72.61,6.12,6.12,0,0,0,1.64.18v.48c-2-.05-3.54-.07-4.56-.07s-2.47,0-4.39.07v-.48a6.12,6.12,0,0,0,1.64-.18,1.06,1.06,0,0,0,.72-.61,3.71,3.71,0,0,0,.21-1.46V2.35H5a3.6,3.6,0,0,0-2,.51A4,4,0,0,0,1.63,4.52a13.54,13.54,0,0,0-1,3.18H.1c0-.46.07-1.07.07-1.82C.17,4.68.11,3.32,0,1.8q2.19.07,7.42.07c3.48,0,5.95,0,7.39-.07C14.7,3.32,14.64,4.68,14.64,5.88Z"/><path class="cls-1" d="M20.74,8.28a4,4,0,0,1,3.91-2.23A3.25,3.25,0,0,1,27.29,7a2.78,2.78,0,0,1,.59,1.19,8.36,8.36,0,0,1,.18,1.93v6.46a2.09,2.09,0,0,0,.33,1.36,1.62,1.62,0,0,0,1.2.37v.5c-1.66-.06-2.72-.09-3.17-.09s-1.58,0-3.12.09v-.5a1.22,1.22,0,0,0,1-.37,2.34,2.34,0,0,0,.29-1.36V9.1a2.82,2.82,0,0,0-.32-1.49,1.29,1.29,0,0,0-1.17-.51,2.17,2.17,0,0,0-1.69.78,2.87,2.87,0,0,0-.68,2v6.7A2.26,2.26,0,0,0,21,17.92a1.21,1.21,0,0,0,1,.37v.5c-1.53-.06-2.53-.09-3-.09s-1.65,0-3.31.09v-.5a1.6,1.6,0,0,0,1.18-.37,2,2,0,0,0,.35-1.36V2.9a2.79,2.79,0,0,0-.35-1.6A1.33,1.33,0,0,0,15.75.79V.29c.51.05,1,.07,1.48.07A15.21,15.21,0,0,0,20.74,0Z"/><path class="cls-1" d="M40.68,15.24l.43.14A5.78,5.78,0,0,1,39.4,18a4.56,4.56,0,0,1-3.09,1.09,5.24,5.24,0,0,1-4-1.62,6.83,6.83,0,0,1-1.5-4.79,7,7,0,0,1,1.61-5,5.57,5.57,0,0,1,4.27-1.71c3,0,4.51,1.77,4.51,5.33H34.42c0,.24,0,.61,0,1.12a6.73,6.73,0,0,0,.45,2.64A3.31,3.31,0,0,0,36,16.68a2.66,2.66,0,0,0,1.52.48A3.62,3.62,0,0,0,40.68,15.24Zm-5.6-7.62a8.37,8.37,0,0,0-.71,3.3h3.77a9.17,9.17,0,0,0-.38-3.13c-.28-.83-.7-1.24-1.26-1.24A1.65,1.65,0,0,0,35.08,7.62Z"/><path class="cls-1" d="M56.38,1.73a7.73,7.73,0,0,1,1.51.69,4.21,4.21,0,0,0,.47.24.75.75,0,0,0,.34.1A.36.36,0,0,0,59,2.51a3,3,0,0,0,.19-.81h.55c-.08,1.08-.12,2.9-.12,5.48h-.55a7.76,7.76,0,0,0-.59-2.48,4.66,4.66,0,0,0-1.39-1.9A3.23,3.23,0,0,0,55,2.06a2.76,2.76,0,0,0-1.91.66,2.32,2.32,0,0,0-.73,1.79A2.91,2.91,0,0,0,52.75,6a4.28,4.28,0,0,0,1,1.14c.43.34,1.1.81,2,1.4l.77.53a23.51,23.51,0,0,1,2.23,1.63,5.6,5.6,0,0,1,1.33,1.62,4.28,4.28,0,0,1,.52,2.15A4.15,4.15,0,0,1,59.81,17a4.88,4.88,0,0,1-2.15,1.57,8.27,8.27,0,0,1-3,.53,8.68,8.68,0,0,1-2.23-.24,7.48,7.48,0,0,1-1.64-.65A1.78,1.78,0,0,0,50,17.9a.38.38,0,0,0-.34.26,2.82,2.82,0,0,0-.19.8h-.55q.09-1.52.09-6.48h.56a9.33,9.33,0,0,0,1.2,4.36A3.45,3.45,0,0,0,53.9,18.5,3.25,3.25,0,0,0,56,17.81a2.45,2.45,0,0,0,.84-2A3.36,3.36,0,0,0,56,13.51a13.84,13.84,0,0,0-2.74-2.16A27.58,27.58,0,0,1,51,9.72a5.86,5.86,0,0,1-1.42-1.64A4.3,4.3,0,0,1,49,5.88a4,4,0,0,1,.73-2.44A4.34,4.34,0,0,1,51.7,2a7.26,7.26,0,0,1,2.68-.48A6.73,6.73,0,0,1,56.38,1.73Z"/><path class="cls-1" d="M74.11,16.18a2.87,2.87,0,0,0,.35,1.6,1.33,1.33,0,0,0,1.19.51v.5a14.86,14.86,0,0,0-1.49-.07,15.06,15.06,0,0,0-3.5.34V16.9a4,4,0,0,1-3.87,2.23,3.26,3.26,0,0,1-2.61-.94A2.81,2.81,0,0,1,63.61,17a8.3,8.3,0,0,1-.18-1.93V9a2.83,2.83,0,0,0-.35-1.61,1.33,1.33,0,0,0-1.18-.5V6.38a14.68,14.68,0,0,0,1.48.08,15.72,15.72,0,0,0,3.51-.34v9.94a3,3,0,0,0,.3,1.51,1.23,1.23,0,0,0,1.14.5,2.09,2.09,0,0,0,1.64-.8,3,3,0,0,0,.69-2V9a2.91,2.91,0,0,0-.35-1.61,1.35,1.35,0,0,0-1.19-.5V6.38c.51,0,1,.08,1.49.08a15.62,15.62,0,0,0,3.5-.34Z"/><path class="cls-1" d="M83.14,6.28a4.06,4.06,0,0,1,1.17.51.82.82,0,0,0,.43.17.47.47,0,0,0,.38-.23,1.47,1.47,0,0,0,.2-.66h.5q-.09,1.23-.09,4.23h-.51a6.18,6.18,0,0,0-.94-2.66,2.42,2.42,0,0,0-2.13-1.06A1.77,1.77,0,0,0,81,7a1.43,1.43,0,0,0-.46,1.13,2,2,0,0,0,.55,1.41,12.13,12.13,0,0,0,1.73,1.42l.69.51a11.75,11.75,0,0,1,2.16,2,3.28,3.28,0,0,1,.7,2.16,3.1,3.1,0,0,1-.61,1.87,3.94,3.94,0,0,1-1.65,1.25,6,6,0,0,1-2.28.43,4.62,4.62,0,0,1-2.25-.51c-.52-.25-.88-.42-1.11-.5a.36.36,0,0,0-.42.16,1.6,1.6,0,0,0-.27.68h-.51c.07-.91.1-2.51.1-4.8h.5c.32,2.94,1.4,4.42,3.24,4.42a1.77,1.77,0,0,0,1.19-.42,1.6,1.6,0,0,0,.49-1.29,2.38,2.38,0,0,0-.3-1.2,3.74,3.74,0,0,0-.75-.93c-.31-.28-.76-.65-1.37-1.13s-1.27-1-1.65-1.39a5.46,5.46,0,0,1-1-1.25,3.33,3.33,0,0,1-.39-1.61,2.85,2.85,0,0,1,1.2-2.42,4.72,4.72,0,0,1,2.93-.89A5.69,5.69,0,0,1,83.14,6.28Z"/><path class="cls-1" d="M92.66,6.38H95.5v.48H92.66v9.7a1.58,1.58,0,0,0,.26,1,1,1,0,0,0,.8.3c.69,0,1.23-.48,1.63-1.44l.41.22a3.32,3.32,0,0,1-3.29,2.47,3.25,3.25,0,0,1-2.4-.82,2.58,2.58,0,0,1-.68-1.26A9.3,9.3,0,0,1,89.21,15V6.86h-2V6.38h2V3.22a7.32,7.32,0,0,0,3.45-.77Z"/><path class="cls-1" d="M97.12,18.17a2.89,2.89,0,0,1-.76-2.09,2.81,2.81,0,0,1,.56-1.79,3.92,3.92,0,0,1,1.37-1.09,20.18,20.18,0,0,1,2-.82,11.3,11.3,0,0,0,1.94-.82,1.16,1.16,0,0,0,.61-1V8.66a2.41,2.41,0,0,0-.47-1.57A1.8,1.8,0,0,0,101,6.53a2.48,2.48,0,0,0-1.76.57,2.25,2.25,0,0,1,1.05.72A1.78,1.78,0,0,1,100.63,9a1.62,1.62,0,0,1-.55,1.3,2,2,0,0,1-1.34.48,1.62,1.62,0,0,1-1.3-.53A1.91,1.91,0,0,1,97,8.88a1.92,1.92,0,0,1,.33-1.14,3.22,3.22,0,0,1,1-.88,6.08,6.08,0,0,1,1.6-.6A9.55,9.55,0,0,1,102,6.05a7.61,7.61,0,0,1,2,.24,3.28,3.28,0,0,1,1.45.81,2.71,2.71,0,0,1,.7,1.3,9.56,9.56,0,0,1,.18,2.09V17a2.19,2.19,0,0,0,.11.81.41.41,0,0,0,.42.24,1.47,1.47,0,0,0,.87-.41l.23.41a4,4,0,0,1-2.64.89,2.58,2.58,0,0,1-1.84-.53,1.92,1.92,0,0,1-.55-1.41A3.92,3.92,0,0,1,99.41,19,3,3,0,0,1,97.12,18.17Zm5.77-1.73V11.52a3.68,3.68,0,0,1-1.23,1.06,5.86,5.86,0,0,0-1.41,1.2,2.69,2.69,0,0,0-.48,1.72,2.21,2.21,0,0,0,.4,1.46,1.39,1.39,0,0,0,1.08.46A2,2,0,0,0,102.89,16.44Z"/><path class="cls-1" d="M113.66,16.56a2,2,0,0,0,.35,1.36,1.61,1.61,0,0,0,1.19.37v.5c-1.6-.06-2.66-.09-3.19-.09s-1.61,0-3.34.09v-.5a1.59,1.59,0,0,0,1.2-.37,2.09,2.09,0,0,0,.34-1.36V9a3,3,0,0,0-.34-1.61,1.34,1.34,0,0,0-1.2-.5V6.38c.51,0,1,.08,1.49.08a15.25,15.25,0,0,0,3.5-.34ZM113.39.68A1.68,1.68,0,0,1,114,2a1.68,1.68,0,0,1-.58,1.36,2.86,2.86,0,0,1-3.2,0A1.68,1.68,0,0,1,109.61,2a1.68,1.68,0,0,1,.58-1.36,2.86,2.86,0,0,1,3.2,0Z"/><path class="cls-1" d="M127.8,7a2.66,2.66,0,0,1,.57,1.18,8.42,8.42,0,0,1,.17,1.94v6.46a2,2,0,0,0,.35,1.36,1.61,1.61,0,0,0,1.19.37v.5c-1.6-.06-2.66-.09-3.17-.09s-1.52,0-3.12.09v-.5a1.23,1.23,0,0,0,1-.37,2.34,2.34,0,0,0,.29-1.36V9.1a2.72,2.72,0,0,0-.33-1.49,1.26,1.26,0,0,0-1.16-.51,2.13,2.13,0,0,0-1.68.81,2.87,2.87,0,0,0-.7,2v6.67a2.34,2.34,0,0,0,.29,1.36,1.23,1.23,0,0,0,1,.37v.5c-1.47-.06-2.47-.09-3-.09s-1.58,0-3.31.09v-.5a1.59,1.59,0,0,0,1.2-.37,2.09,2.09,0,0,0,.34-1.36V9a3,3,0,0,0-.34-1.61,1.34,1.34,0,0,0-1.2-.5V6.38c.51,0,1,.08,1.49.08a15.25,15.25,0,0,0,3.5-.34V8.28a4,4,0,0,1,3.94-2.23A3.36,3.36,0,0,1,127.8,7Z"/><path class="cls-1" d="M131.84,18.17a2.93,2.93,0,0,1-.75-2.09,2.76,2.76,0,0,1,.56-1.79A3.92,3.92,0,0,1,133,13.2a19.27,19.27,0,0,1,2-.82,11.12,11.12,0,0,0,1.93-.82,1.14,1.14,0,0,0,.61-1V8.66a2.41,2.41,0,0,0-.46-1.57,1.82,1.82,0,0,0-1.46-.56,2.46,2.46,0,0,0-1.75.57,2.25,2.25,0,0,1,1.05.72A1.85,1.85,0,0,1,135.36,9a1.65,1.65,0,0,1-.55,1.3,2,2,0,0,1-1.35.48,1.61,1.61,0,0,1-1.29-.53,1.91,1.91,0,0,1-.46-1.32A2,2,0,0,1,132,7.74a3.4,3.4,0,0,1,1-.88,5.82,5.82,0,0,1,1.6-.6,9.55,9.55,0,0,1,2.07-.21,7.61,7.61,0,0,1,2,.24,3.19,3.19,0,0,1,1.44.81,2.72,2.72,0,0,1,.71,1.3,9.56,9.56,0,0,1,.18,2.09V17a2.19,2.19,0,0,0,.11.81.41.41,0,0,0,.42.24,1.42,1.42,0,0,0,.86-.41l.24.41a4,4,0,0,1-2.64.89,2.6,2.6,0,0,1-1.85-.53,2,2,0,0,1-.55-1.41A3.89,3.89,0,0,1,134.13,19,3,3,0,0,1,131.84,18.17Zm5.77-1.73V11.52a3.73,3.73,0,0,1-1.22,1.06,5.94,5.94,0,0,0-1.42,1.2,2.69,2.69,0,0,0-.48,1.72A2.21,2.21,0,0,0,134.9,17a1.36,1.36,0,0,0,1.08.46A2,2,0,0,0,137.61,16.44Z"/><path class="cls-1" d="M154.77,7.64a7.62,7.62,0,0,1,1.2,4.62q0,3.54-1.53,5.2a5.17,5.17,0,0,1-4,1.67,4.12,4.12,0,0,1-2.69-.84,4.46,4.46,0,0,0-1.73.19,3.91,3.91,0,0,0-1.37.7l-.36-.22a4.68,4.68,0,0,0,.17-1.34V2.9a2.79,2.79,0,0,0-.35-1.6A1.32,1.32,0,0,0,143,.79V.29a14.66,14.66,0,0,0,1.48.07A15.15,15.15,0,0,0,148,0V8.33a3.67,3.67,0,0,1,1.46-1.69,4.08,4.08,0,0,1,2.21-.59A3.74,3.74,0,0,1,154.77,7.64Zm-3.07,9.5a12.08,12.08,0,0,0,.65-4.54,11.65,11.65,0,0,0-.55-4.24c-.37-.85-.9-1.28-1.59-1.28a2.08,2.08,0,0,0-1.4.56A2.82,2.82,0,0,0,148,9.17V18a2.74,2.74,0,0,0,1.77.64A2.1,2.1,0,0,0,151.7,17.14Z"/><path class="cls-1" d="M162.12,16.56a2.09,2.09,0,0,0,.33,1.36,1.62,1.62,0,0,0,1.2.37v.5q-2.49-.09-3.21-.09c-.55,0-1.65,0-3.31.09v-.5a1.59,1.59,0,0,0,1.18-.37,2,2,0,0,0,.35-1.36V2.88a2.91,2.91,0,0,0-.35-1.61,1.33,1.33,0,0,0-1.18-.5V.26c.51,0,1,.08,1.48.08A15.72,15.72,0,0,0,162.12,0Z"/><path class="cls-1" d="M174.67,15.24l.43.14A5.72,5.72,0,0,1,173.38,18a4.51,4.51,0,0,1-3.08,1.09,5.24,5.24,0,0,1-4-1.62,6.83,6.83,0,0,1-1.5-4.79,7,7,0,0,1,1.61-5,5.57,5.57,0,0,1,4.27-1.71c3,0,4.51,1.77,4.51,5.33h-6.74c0,.24,0,.61,0,1.12a6.73,6.73,0,0,0,.45,2.64A3.25,3.25,0,0,0,170,16.68a2.66,2.66,0,0,0,1.52.48A3.62,3.62,0,0,0,174.67,15.24Zm-5.6-7.62a8.37,8.37,0,0,0-.71,3.3h3.76a9,9,0,0,0-.37-3.13c-.28-.83-.7-1.24-1.26-1.24A1.65,1.65,0,0,0,169.07,7.62Z"/><path class="cls-1" d="M193.53,1.87a8.29,8.29,0,0,1,2,1.15.76.76,0,0,0,.46.22c.32,0,.52-.48.62-1.44h.55c-.06,1.09-.09,3-.09,5.81h-.56a11.67,11.67,0,0,0-.57-2.71,3.87,3.87,0,0,0-1.23-1.64,4.09,4.09,0,0,0-1.39-.87,4.64,4.64,0,0,0-1.65-.3A3.81,3.81,0,0,0,188,4.45a13.09,13.09,0,0,0-1.18,5.89,12.68,12.68,0,0,0,1.22,5.86,3.92,3.92,0,0,0,3.65,2.35,4.55,4.55,0,0,0,1.62-.3,3.62,3.62,0,0,0,1.36-.87,3.52,3.52,0,0,0,1.23-1.68,12.92,12.92,0,0,0,.54-3H197q0,4.35.09,6h-.55a4.84,4.84,0,0,0-.2-1.09c-.09-.22-.22-.32-.38-.32a1,1,0,0,0-.5.19,10.15,10.15,0,0,1-2.06,1.16,6.27,6.27,0,0,1-2.38.4,9.28,9.28,0,0,1-4.45-1,7.31,7.31,0,0,1-3-3,9.76,9.76,0,0,1-1-4.67,9.85,9.85,0,0,1,1.08-4.68,7.8,7.8,0,0,1,3-3.17,8.6,8.6,0,0,1,4.4-1.13A6.57,6.57,0,0,1,193.53,1.87Z"/><path class="cls-1" d="M203.92,8.28a4,4,0,0,1,3.92-2.23,3.28,3.28,0,0,1,2.64.93,2.77,2.77,0,0,1,.58,1.19,8.36,8.36,0,0,1,.18,1.93v6.46a2.09,2.09,0,0,0,.34,1.36,1.59,1.59,0,0,0,1.2.37v.5c-1.66-.06-2.72-.09-3.17-.09s-1.58,0-3.12.09v-.5a1.23,1.23,0,0,0,1-.37,2.34,2.34,0,0,0,.29-1.36V9.1a2.72,2.72,0,0,0-.33-1.49,1.26,1.26,0,0,0-1.16-.51,2.15,2.15,0,0,0-1.69.78,2.88,2.88,0,0,0-.69,2v6.7a2.34,2.34,0,0,0,.29,1.36,1.23,1.23,0,0,0,1,.37v.5c-1.54-.06-2.53-.09-3-.09s-1.64,0-3.31.09v-.5a1.61,1.61,0,0,0,1.19-.37,2,2,0,0,0,.35-1.36V2.9a2.87,2.87,0,0,0-.35-1.6,1.33,1.33,0,0,0-1.19-.51V.29c.51.05,1,.07,1.49.07a15.06,15.06,0,0,0,3.5-.34Z"/><path class="cls-1" d="M223.28,7.62a8.16,8.16,0,0,1,2.44,5q.6,3.4-.69,5a4.92,4.92,0,0,1-4,1.56,6.86,6.86,0,0,1-4.58-1.56,8.11,8.11,0,0,1-2.45-5q-.6-3.4.69-5a4.93,4.93,0,0,1,4-1.57A6.81,6.81,0,0,1,223.28,7.62ZM217.39,8a12.49,12.49,0,0,0,.19,4.57A14.26,14.26,0,0,0,219,17.16c.58,1,1.22,1.49,1.9,1.49s1.17-.49,1.4-1.48a12.38,12.38,0,0,0-.21-4.57A14.07,14.07,0,0,0,220.67,8c-.58-1-1.21-1.49-1.9-1.49S217.62,7,217.39,8Z"/><path class="cls-1" d="M232.2,16.56a2,2,0,0,0,.34,1.36,1.63,1.63,0,0,0,1.19.37v.5c-1.6-.06-2.66-.09-3.19-.09s-1.61,0-3.34.09v-.5a1.59,1.59,0,0,0,1.2-.37,2,2,0,0,0,.34-1.36V9a2.92,2.92,0,0,0-.34-1.61,1.34,1.34,0,0,0-1.2-.5V6.38c.52,0,1,.08,1.49.08a15.34,15.34,0,0,0,3.51-.34ZM231.92.68A1.69,1.69,0,0,1,232.51,2a1.69,1.69,0,0,1-.59,1.36,2.84,2.84,0,0,1-3.19,0A1.69,1.69,0,0,1,228.14,2a1.69,1.69,0,0,1,.59-1.36,2.84,2.84,0,0,1,3.19,0Z"/><path class="cls-1" d="M242.68,6.24a4.23,4.23,0,0,1,1.32.53,2.84,2.84,0,0,1,1,1A2.48,2.48,0,0,1,245.32,9a1.89,1.89,0,0,1-.52,1.38,1.85,1.85,0,0,1-1.37.54,1.89,1.89,0,0,1-1.35-.48,1.72,1.72,0,0,1-.5-1.29A1.82,1.82,0,0,1,242,7.92a2.32,2.32,0,0,1,1.12-.72,1.19,1.19,0,0,0-.58-.42,2.43,2.43,0,0,0-.86-.16,2.47,2.47,0,0,0-2.24,1.58,9,9,0,0,0-.8,4.11,5.91,5.91,0,0,0,.91,3.7,2.83,2.83,0,0,0,2.28,1.13,3.51,3.51,0,0,0,1.64-.44,4,4,0,0,0,1.5-1.51l.41.15A6,6,0,0,1,243.74,18a4.34,4.34,0,0,1-3.1,1.12,5.36,5.36,0,0,1-4-1.63,6.78,6.78,0,0,1-1.56-4.85,7.78,7.78,0,0,1,.77-3.6,5.35,5.35,0,0,1,2.11-2.25A6.21,6.21,0,0,1,241,6.05,6.92,6.92,0,0,1,242.68,6.24Z"/><path class="cls-1" d="M256.89,15.24l.43.14A5.78,5.78,0,0,1,255.61,18a4.56,4.56,0,0,1-3.09,1.09,5.24,5.24,0,0,1-4-1.62,6.83,6.83,0,0,1-1.5-4.79,7,7,0,0,1,1.61-5,5.57,5.57,0,0,1,4.27-1.71c3,0,4.51,1.77,4.51,5.33h-6.74c0,.24,0,.61,0,1.12a6.73,6.73,0,0,0,.45,2.64,3.31,3.31,0,0,0,1.15,1.54,2.66,2.66,0,0,0,1.52.48A3.62,3.62,0,0,0,256.89,15.24Zm-5.6-7.62a8.37,8.37,0,0,0-.71,3.3h3.77A9.17,9.17,0,0,0,254,7.79c-.28-.83-.7-1.24-1.26-1.24A1.65,1.65,0,0,0,251.29,7.62Z"/></g></g></svg>