<svg xmlns="http://www.w3.org/2000/svg" viewBox="0 0 121.32 121.32"><defs><style>.cls-1{fill:#070a0c;}.cls-2{fill:#f0ece8;}</style></defs><g id="Laag_2" data-name="Laag 2"><g id="Laag_1-2" data-name="Laag 1"><circle class="cls-1" cx="60.66" cy="60.66" r="60.66"/><path class="cls-2" d="M90.44,67.93a5.06,5.06,0,0,0-1.29-.15H77.38V16.09a7.88,7.88,0,0,0,0-1,3.3,3.3,0,0,0-2.65-2.84,5.66,5.66,0,0,0-1-.08H47.19a3.35,3.35,0,0,0-3.21,3,7,7,0,0,0,0,.92V67.77H31.66a3.12,3.12,0,0,0-3,3,3.88,3.88,0,0,0,1,2.76l3.06,3.68,22.95,27.57c.91,1.09,1.81,2.19,2.74,3.27a2.91,2.91,0,0,0,3.06.94,3.06,3.06,0,0,0,1.67-1.18l3.5-4.2,22-26.38q1.53-1.85,3.07-3.68a3.92,3.92,0,0,0,1-2.91A3.07,3.07,0,0,0,90.44,67.93Z"/></g></g></svg>