<svg xmlns="http://www.w3.org/2000/svg" viewBox="0 0 121.32 121.32"><defs><style>.cls-1{fill:#070a0c;}.cls-2{fill:#f0ece8;}</style></defs><g id="Laag_2" data-name="Laag 2"><g id="Laag_1-2" data-name="Laag 1"><circle class="cls-1" cx="60.66" cy="60.66" r="60.66"/><path class="cls-2" d="M67.93,30.88a5.06,5.06,0,0,0-.15,1.29q0,5.58,0,11.18c0,.19,0,.37,0,.59H16.09a7.88,7.88,0,0,0-1,.05,3.29,3.29,0,0,0-2.84,2.65,5.66,5.66,0,0,0-.08,1V74.13a3.35,3.35,0,0,0,3,3.21c.3,0,.61,0,.92,0H67.77V89c0,.23,0,.45,0,.68a3.12,3.12,0,0,0,3,3,3.88,3.88,0,0,0,2.76-1c1.22-1,2.45-2,3.68-3.07l27.57-22.95c1.09-.9,2.19-1.81,3.27-2.73a2.93,2.93,0,0,0,.94-3.07,3.1,3.1,0,0,0-1.18-1.67l-4.2-3.49-26.38-22q-1.85-1.53-3.68-3.07a3.88,3.88,0,0,0-2.91-1A3,3,0,0,0,67.93,30.88Z"/></g></g></svg>