<svg xmlns="http://www.w3.org/2000/svg" viewBox="0 0 121.32 121.32"><defs><style>.cls-1{fill:#f0ece8;}.cls-2{fill:#070a0c;}.cls-3{stroke:#f6f6f6;stroke-miterlimit:10;}</style></defs><g id="Laag_2" data-name="Laag 2"><g id="Laag_1-2" data-name="Laag 1"><circle class="cls-1" cx="60.66" cy="60.66" r="60.66" transform="translate(-19.64 30.49) rotate(-24.41)"/><path class="cls-2" d="M78.05,33.7c-3.86.87-7.84,1-10.84,2.79-1.39.83-.87,4.87-1.33,8.31h12.8C78.2,50.36,77.77,55.42,77.3,61H65.23V100.4H50.36V61.26l-8-.58V45l6.54-.5c.38-7.51-.58-15.71,6.93-20.64,6.8-4.46,14.45-2.48,22.2-2.85Z"/><path class="cls-3" d="M60.55,55.41c.33-.32.63-.59.92-.88q9-9,18-18.1a3.83,3.83,0,0,1,4-1.21,3.68,3.68,0,0,1,1.7,5.91c-.24.29-.52.55-.79.82L66.68,59.67c-.3.3-.64.54-1,.87.39.42.66.72,1,1L84.77,79.68c2,2,1.68,5-.73,6.2a3.71,3.71,0,0,1-4.45-.95q-7.23-7.22-14.42-14.46c-1.53-1.52-3.05-3.06-4.61-4.63-.38.37-.68.64-1,.93q-9,9-18,18.1a3.8,3.8,0,0,1-4,1.2,3.67,3.67,0,0,1-1.77-5.82,12.19,12.19,0,0,1,.86-.9q8.88-8.86,17.77-17.72a10.06,10.06,0,0,1,1.06-.82c-.45-.47-.72-.77-1-1.06q-9-9-18.09-18a3.82,3.82,0,0,1-1.21-4.11,3.66,3.66,0,0,1,6.17-1.38c2.42,2.37,4.78,4.79,7.17,7.18Z"/></g></g></svg>