<svg xmlns="http://www.w3.org/2000/svg" viewBox="0 0 121.32 121.32"><defs><style>.cls-1{fill:#f0ece8;}.cls-2{fill:#070a0c;}.cls-3{stroke:#f6f6f6;stroke-miterlimit:10;}</style></defs><g id="Laag_2" data-name="Laag 2"><g id="Laag_1-2" data-name="Laag 1"><circle class="cls-1" cx="60.66" cy="60.66" r="60.66" transform="translate(-19.64 30.49) rotate(-24.41)"/><path class="cls-2" d="M22.84,89.23,43.3,83l-.17-1.6c-6.08-1.73-11.62-4.09-13.7-11l5.89-.59C28.56,66.39,24,62.15,23.61,54.51l5.84.66C23.68,49,22,42.57,25.63,34.47,35,44,45.37,50.26,58.82,50.88c.12-2,.1-3.82.34-5.58C60.65,34.5,72.6,27.69,82.08,33.16c5.28,3,9.4,2.82,14.87.73l-5,7.12,6.66-1.4c-.42.77-.56,1.42-1,1.71-5.37,3.87-5.93,9.53-6.79,15.57C86.51,87.28,50.5,104.76,23.55,89.83A2.83,2.83,0,0,1,22.84,89.23Z"/><path class="cls-3" d="M62.64,58c.33-.31.63-.59.92-.88q9-9,18-18.1a3.82,3.82,0,0,1,4-1.2,3.67,3.67,0,0,1,1.7,5.9,10.2,10.2,0,0,1-.79.82L68.77,62.26c-.3.29-.64.54-1,.86.39.42.66.73,1,1L86.86,82.27c2,2,1.68,5-.73,6.19a3.68,3.68,0,0,1-4.45-.95Q74.45,80.3,67.26,73.06l-4.61-4.63c-.38.36-.68.64-1,.93q-9,9-18,18.09a3.83,3.83,0,0,1-4,1.21,3.67,3.67,0,0,1-1.77-5.82,12.33,12.33,0,0,1,.86-.91q8.88-8.87,17.77-17.72a10.06,10.06,0,0,1,1.06-.81c-.45-.48-.72-.78-1-1.07q-9-9-18.09-18a3.82,3.82,0,0,1-1.21-4.11,3.65,3.65,0,0,1,6.17-1.37c2.42,2.36,4.78,4.78,7.17,7.17Z"/></g></g></svg>