<svg xmlns="http://www.w3.org/2000/svg" viewBox="0 0 121.32 121.32"><defs><style>.cls-1{fill:#070a0c;}.cls-2{fill:#f0ece8;}.cls-3{fill:none;}</style></defs><g id="Laag_2" data-name="Laag 2"><g id="Laag_1-2" data-name="Laag 1"><circle class="cls-1" cx="60.66" cy="60.66" r="60.66" transform="translate(-19.64 30.49) rotate(-24.41)"/><path class="cls-2" d="M100.2,60.65h0c0-7.82.14-15.64,0-23.46-.24-10-5.46-15.77-15.31-16-16.14-.35-32.29-.32-48.42,0-9.6.19-15.1,5.87-15.26,15.52q-.39,24,0,47.92c.15,9.63,5.64,15.26,15.29,15.46q24,.48,47.92,0c10.2-.18,15.49-5.82,15.73-16C100.35,76.29,100.2,68.47,100.2,60.65Z"/><path class="cls-3" d="M81.27,52.77c2.66,10.75.62,19.88-8.82,26.06-7.48,4.9-15.57,5-23.14.25C39.57,73,37.44,63.7,40.07,52.76H28.21c0,11-.17,21.48.08,31.95C28.4,89.37,31,92.88,36,92.94c16.49.2,33,.16,49.47,0,3.92,0,7.11-2.46,7.25-6.31.38-11.23.13-22.48.13-33.89Z"/><path class="cls-3" d="M90.87,30.31H78.16v13H90.87Z"/><path class="cls-3" d="M60.75,74.65c7.54,0,14.13-6.64,14-14a14,14,0,1,0-28,.1A14.09,14.09,0,0,0,60.75,74.65Z"/><path class="cls-2" d="M100.24,60.65c0-7.82.14-15.64,0-23.46-.24-10-5.46-15.77-15.31-16-16.14-.35-32.29-.32-48.42,0-9.6.19-15.1,5.87-15.26,15.52q-.39,24,0,47.92c.15,9.63,5.64,15.26,15.29,15.46q24,.48,47.92,0c10.2-.18,15.49-5.82,15.73-16,.19-7.82,0-15.64,0-23.46ZM78.16,30.31H90.87v13H78.16ZM60.65,46.61a14.24,14.24,0,0,1,14.06,14c.17,7.4-6.42,14-14,14a14,14,0,0,1-.1-28Z"/><path class="cls-1" d="M60.75,74.65a14,14,0,0,1-.1-28,14.24,14.24,0,0,1,14.06,14C74.88,68,68.29,74.64,60.75,74.65Z"/><path class="cls-1" d="M90.87,43.35H78.16v-13H90.87Z"/><path class="cls-1" d="M92.69,86.66c-.14,3.85-3.33,6.27-7.25,6.31-16.49.13-33,.17-49.47,0-5-.06-7.57-3.57-7.68-8.23-.25-10.47-.08-20.94-.08-31.95H40.07C37.33,64.38,39.56,73,49.31,79.08c7.6,4.71,15.66,4.65,23.14-.25,9.44-6.18,11.48-15.31,8.82-26.06H92.82C92.82,64.18,93.07,75.43,92.69,86.66Z"/></g></g></svg>