<svg xmlns="http://www.w3.org/2000/svg" viewBox="0 0 121.32 121.32"><defs><style>.cls-1{fill:#070a0c;}.cls-2{fill:#f0ece8;}</style></defs><g id="Laag_2" data-name="Laag 2"><g id="Laag_1-2" data-name="Laag 1"><circle class="cls-1" cx="60.66" cy="60.66" r="60.66" transform="translate(-19.64 30.49) rotate(-24.41)"/><path class="cls-2" d="M22.84,89.23,43.3,83l-.17-1.6c-6.08-1.73-11.62-4.09-13.7-11l5.89-.59C28.56,66.39,24,62.15,23.61,54.51l5.84.66C23.68,49,22,42.57,25.63,34.47,35,44,45.37,50.26,58.82,50.88c.12-2,.1-3.82.34-5.58C60.65,34.5,72.6,27.69,82.08,33.16c5.28,3,9.4,2.82,14.87.73l-5,7.12,6.66-1.4c-.42.77-.56,1.42-1,1.71-5.37,3.87-5.93,9.53-6.79,15.57C86.51,87.28,50.5,104.76,23.55,89.83A2.83,2.83,0,0,1,22.84,89.23Z"/></g></g></svg>