<svg xmlns="http://www.w3.org/2000/svg" viewBox="0 0 121.32 121.32"><defs><style>.cls-1{fill:#f0ece8;}.cls-2{fill:#070a0c;}.cls-3{stroke:#f6f6f6;stroke-miterlimit:10;}</style></defs><g id="Laag_2" data-name="Laag 2"><g id="Laag_1-2" data-name="Laag 1"><circle class="cls-1" cx="60.66" cy="60.66" r="60.66" transform="translate(-19.64 30.49) rotate(-24.41)"/><path class="cls-2" d="M100.2,60.65h0c0-7.82.14-15.64,0-23.46-.24-10-5.46-15.77-15.31-16-16.14-.35-32.29-.32-48.42,0-9.6.19-15.1,5.87-15.26,15.52q-.39,24,0,47.92c.15,9.63,5.64,15.26,15.29,15.46q24,.48,47.92,0c10.2-.18,15.49-5.82,15.73-16C100.35,76.29,100.2,68.47,100.2,60.65Z"/><path class="cls-2" d="M81.27,52.77c2.66,10.75.62,19.88-8.82,26.06-7.48,4.9-15.57,5-23.14.25C39.57,73,37.44,63.7,40.07,52.76H28.21c0,11-.17,21.48.08,31.95C28.4,89.37,31,92.88,36,92.94c16.49.2,33,.16,49.47,0,3.92,0,7.11-2.46,7.25-6.31.38-11.23.13-22.48.13-33.89Z"/><path class="cls-2" d="M90.87,30.31H78.16v13H90.87Z"/><path class="cls-2" d="M60.75,74.65c7.54,0,14.13-6.64,14-14a14,14,0,1,0-28,.1A14.09,14.09,0,0,0,60.75,74.65Z"/><path class="cls-2" d="M100.24,60.65c0-7.82.14-15.64,0-23.46-.24-10-5.46-15.77-15.31-16-16.14-.35-32.29-.32-48.42,0-9.6.19-15.1,5.87-15.26,15.52q-.39,24,0,47.92c.15,9.63,5.64,15.26,15.29,15.46q24,.48,47.92,0c10.2-.18,15.49-5.82,15.73-16,.19-7.82,0-15.64,0-23.46ZM78.16,30.31H90.87v13H78.16ZM60.65,46.61a14.24,14.24,0,0,1,14.06,14c.17,7.4-6.42,14-14,14a14,14,0,0,1-.1-28Z"/><path class="cls-1" d="M60.75,74.65a14,14,0,0,1-.1-28,14.24,14.24,0,0,1,14.06,14C74.88,68,68.29,74.64,60.75,74.65Z"/><path class="cls-1" d="M90.87,43.35H78.16v-13H90.87Z"/><path class="cls-1" d="M92.69,86.66c-.14,3.85-3.33,6.27-7.25,6.31-16.49.13-33,.17-49.47,0-5-.06-7.57-3.57-7.68-8.23-.25-10.47-.08-20.94-.08-31.95H40.07C37.33,64.38,39.56,73,49.31,79.08c7.6,4.71,15.66,4.65,23.14-.25,9.44-6.18,11.48-15.31,8.82-26.06H92.82C92.82,64.18,93.07,75.43,92.69,86.66Z"/><path class="cls-3" d="M60.55,55.38c.33-.31.63-.59.92-.88q9-9,18-18.1a3.8,3.8,0,0,1,4-1.2,3.67,3.67,0,0,1,1.7,5.9,10.2,10.2,0,0,1-.79.82L66.68,59.65c-.3.29-.64.54-1,.86.39.42.66.73,1,1L84.77,79.66c2,2,1.68,5-.73,6.19a3.68,3.68,0,0,1-4.45-.95q-7.23-7.22-14.42-14.45l-4.61-4.63c-.38.36-.68.64-1,.93q-9,9-18,18.09a3.83,3.83,0,0,1-4,1.21,3.67,3.67,0,0,1-1.77-5.82,12.33,12.33,0,0,1,.86-.91Q45.5,70.46,54.39,61.6a10.06,10.06,0,0,1,1.06-.81c-.45-.48-.72-.78-1-1.07q-9-9-18.09-18a3.82,3.82,0,0,1-1.21-4.11,3.65,3.65,0,0,1,6.17-1.37c2.42,2.36,4.78,4.78,7.17,7.17Z"/></g></g></svg>