<svg xmlns="http://www.w3.org/2000/svg" viewBox="0 0 121.32 121.32"><defs><style>.cls-1{fill:#f0ece8;}.cls-2{fill:#070a0c;}</style></defs><g id="Laag_2" data-name="Laag 2"><g id="Laag_1-2" data-name="Laag 1"><circle class="cls-1" cx="60.66" cy="60.66" r="60.66"/><path class="cls-2" d="M58.48,60.66q0-17.31,0-34.63A6.4,6.4,0,0,0,58.18,24c-.92-2.61-4-3.18-6-1.12-6.92,6.94-13.81,13.9-20.74,20.83a2.23,2.23,0,0,1-1.39.58c-5.06,0-10.12.11-15.18,0a3.89,3.89,0,0,0-4.14,4.11c.08,8.27,0,16.54,0,24.81a4.23,4.23,0,0,0,.12,1.12c.5,1.87,1.75,2.74,4,2.74q7.49,0,15,0a2,2,0,0,1,1.58.65q10.4,10.47,20.82,20.89a3.53,3.53,0,0,0,3.94.86c1.72-.78,2.27-2.24,2.27-4Q58.47,78,58.48,60.66Zm50.2.76c-.16-2.15-.29-4.3-.49-6.45a45.21,45.21,0,0,0-4-14.64A48.18,48.18,0,0,0,91.8,23.87,49.34,49.34,0,0,0,79.21,16a3.56,3.56,0,0,0-4.23.94,3.41,3.41,0,0,0,0,4.52,7.67,7.67,0,0,0,2.37,1.51,40.6,40.6,0,0,1,11.27,7.67A41,41,0,0,1,101.28,57,39.68,39.68,0,0,1,100,71.48,40.45,40.45,0,0,1,84,94.21a70.94,70.94,0,0,1-7.66,4.34,3.62,3.62,0,0,0-1.84,4.71,3.55,3.55,0,0,0,4.72,1.81A47.84,47.84,0,0,0,98.61,90,49,49,0,0,0,108.68,61.42ZM93.29,59.57c-.15-1.24-.28-3.37-.69-5.45a32.62,32.62,0,0,0-9.26-17.21A33.11,33.11,0,0,0,73.15,30a3.72,3.72,0,0,0-4.12.8A3.35,3.35,0,0,0,68.61,35a6.17,6.17,0,0,0,2.32,1.84A26.2,26.2,0,0,1,81,45a25.5,25.5,0,0,1,4.63,20.5A24.6,24.6,0,0,1,76.16,81a60.93,60.93,0,0,1-6.07,3.69,3.54,3.54,0,0,0-1.55,4.65A3.61,3.61,0,0,0,73.32,91a33.22,33.22,0,0,0,12.32-9.32C90.72,75.48,93.13,68.38,93.29,59.57Zm-15.7.88a38.64,38.64,0,0,0-.59-4,17.28,17.28,0,0,0-10.06-12,3.54,3.54,0,0,0-3.54,6.09,11.42,11.42,0,0,0,1.57.87,10.36,10.36,0,0,1,4.74,12.7,11,11,0,0,1-5.67,6,3.4,3.4,0,0,0-1.72,4.63,3.48,3.48,0,0,0,4.88,1.68C73.83,73.27,77.09,67.86,77.59,60.45Z"/><path class="cls-2" d="M58.48,60.66q0,17.37,0,34.74c0,1.78-.55,3.24-2.27,4a3.53,3.53,0,0,1-3.94-.86Q41.87,88.14,31.46,77.67A2,2,0,0,0,29.88,77q-7.5,0-15,0c-2.27,0-3.52-.87-4-2.74a4.23,4.23,0,0,1-.12-1.12c0-8.27.05-16.54,0-24.81a3.89,3.89,0,0,1,4.14-4.11c5.06.13,10.12.06,15.18,0a2.23,2.23,0,0,0,1.39-.58c6.93-6.93,13.82-13.89,20.74-20.83,2.06-2.06,5.09-1.49,6,1.12A6.4,6.4,0,0,1,58.47,26Q58.5,43.34,58.48,60.66Z"/><path class="cls-2" d="M108.68,61.42A49,49,0,0,1,98.61,90a47.84,47.84,0,0,1-19.35,15.11,3.55,3.55,0,0,1-4.72-1.81,3.62,3.62,0,0,1,1.84-4.71A70.94,70.94,0,0,0,84,94.21,40.45,40.45,0,0,0,100,71.48,39.68,39.68,0,0,0,101.28,57,41,41,0,0,0,88.63,30.61a40.6,40.6,0,0,0-11.27-7.67A7.67,7.67,0,0,1,75,21.43a3.41,3.41,0,0,1,0-4.52A3.56,3.56,0,0,1,79.21,16a49.34,49.34,0,0,1,12.59,7.9,48.18,48.18,0,0,1,12.35,16.46,45.21,45.21,0,0,1,4,14.64C108.39,57.12,108.52,59.27,108.68,61.42Z"/><path class="cls-2" d="M93.29,59.57c-.16,8.81-2.57,15.91-7.65,22.07A33.22,33.22,0,0,1,73.32,91a3.61,3.61,0,0,1-4.78-1.66,3.54,3.54,0,0,1,1.55-4.65A60.93,60.93,0,0,0,76.16,81a24.6,24.6,0,0,0,9.46-15.44A25.5,25.5,0,0,0,81,45a26.2,26.2,0,0,0-10.06-8.21A6.17,6.17,0,0,1,68.61,35,3.35,3.35,0,0,1,69,30.84a3.72,3.72,0,0,1,4.12-.8,33.11,33.11,0,0,1,10.19,6.87A32.62,32.62,0,0,1,92.6,54.12C93,56.2,93.14,58.33,93.29,59.57Z"/><path class="cls-2" d="M77.47,59.08a11.44,11.44,0,0,1,0,2.68c-.79,6.74-4,11.7-10.27,14.68C63,78.57,59.66,72.28,64,70.13a11,11,0,0,0,5.67-6A10.36,10.36,0,0,0,65,51.45c-2.32-.8-3.94-3.28-2.58-5.53a3.55,3.55,0,0,1,4.55-1.43A17.72,17.72,0,0,1,77.47,59.08Z"/></g></g></svg>