<svg xmlns="http://www.w3.org/2000/svg" viewBox="0 0 383 598.85"><defs><style>.cls-1{fill:none;stroke:#f0ece8;stroke-miterlimit:10;}.cls-2,.cls-4{fill:#f0ece8;}.cls-3,.cls-4{font-size:24px;font-family:Roboto-Bold, Roboto;font-weight:700;}.cls-5{letter-spacing:-0.04em;}.cls-6{letter-spacing:-0.01em;}.cls-7{letter-spacing:-0.02em;}.cls-8{letter-spacing:-0.01em;}.cls-9{letter-spacing:0.01em;}.cls-10{letter-spacing:-0.02em;}.cls-11{fill:#fff;}</style></defs><g id="Laag_2" data-name="Laag 2"><g id="Laag_4" data-name="Laag 4"><rect class="cls-1" x="0.5" y="0.5" width="382" height="597.85" rx="18.19"/><rect class="cls-2" x="24.31" y="355.9" width="330.54" height="50.32"/><text class="cls-3" transform="translate(68.26 388.69) scale(0.97 1)">Consuming Confusion</text><text class="cls-4" transform="translate(115.67 62.96)">Shopping bag</text><text class="cls-4" transform="translate(23.96 335.42)"><tspan class="cls-5">T</tspan><tspan x="12.84" y="0">otal </tspan></text><rect class="cls-2" x="24.66" y="298.9" width="330.54" height="1.06"/><text class="cls-4" transform="translate(26.8 234.97)">O<tspan class="cls-6" x="16.51" y="0">r</tspan><tspan x="24.74" y="0">der </tspan><tspan class="cls-7" x="65.26" y="0">V</tspan><tspan x="79.99" y="0">alue</tspan></text><text class="cls-4" transform="translate(27.94 263.53)">Deli<tspan class="cls-8" x="41.25" y="0">v</tspan><tspan x="53.36" y="0">e</tspan><tspan class="cls-9" x="65.91" y="0">r</tspan><tspan x="74.57" y="0">y</tspan></text><text class="cls-4" transform="translate(23.7 450.85)"><tspan class="cls-10">W</tspan><tspan x="20.78" y="0">e accept</tspan></text><rect class="cls-1" x="28.02" y="132.84" width="216.84" height="50.32"/><rect class="cls-1" x="255.6" y="132.84" width="102.46" height="50.32"/><text class="cls-4" transform="translate(285.43 164.67)">Add</text><path class="cls-11" d="M131,503h0Z"/><path class="cls-11" d="M190.48,484.81V482c0-.74,0-.74-.77-.74h-.15c-.29,0-.41.1-.41.41q0,3.1,0,6.21c0,.27.09.41.38.39h.5c.34,0,.46-.1.46-.45s0-.5,0-.75C190.47,486.31,190.48,485.56,190.48,484.81Z"/><path class="cls-11" d="M27.58,503.2h0Z"/><path d="M125.45,474.64A2.17,2.17,0,0,0,124,472.7a3.32,3.32,0,0,0-1.22-.19H79a4.07,4.07,0,0,0-.79.07,2,2,0,0,0-1.55,1.2,3.69,3.69,0,0,0-.26,1.39c0,5,0,10,0,15v10.65a2.24,2.24,0,0,0,1.29,2.27,3.36,3.36,0,0,0,1.34.25c7.29,0,14.58,0,21.87,0h21.82c1.85,0,2.71-.86,2.71-2.71V475.19C125.46,475,125.46,474.82,125.45,474.64ZM89.38,494.05c-.77,0-1.53,0-2.29,0-.26,0-.43-.06-.51-.35-.79-3-1.59-5.95-2.38-8.93a1.82,1.82,0,0,1-.06-.32,9.75,9.75,0,0,1,3,2.09,7.25,7.25,0,0,0-2.8-2.69c-1.13-.61-2.33-1.12-3.57-1.71a3,3,0,0,1,.42-.08c1.48,0,3,0,4.43,0,1.1,0,1.45.35,1.65,1.44.38,2,.78,4,1.17,6.05,0,.13.07.25.1.38l.11,0,.87-2.31c.62-1.69,1.26-3.38,1.86-5.08a.67.67,0,0,1,.76-.52c.87,0,1.74,0,2.69,0-.08.23-.11.37-.17.5-1.48,3.66-3,7.3-4.43,11A.71.71,0,0,1,89.38,494.05Zm9.86-11.53c-.62,3.61-1.21,7.23-1.81,10.84-.12.67-.11.67-.82.67H94.67c-.46,0-.58-.14-.5-.58.26-1.48.5-3,.75-4.46.36-2.14.74-4.28,1.08-6.42.06-.37.17-.52.55-.51.76,0,1.53,0,2.29,0C99.17,482.06,99.31,482.14,99.24,482.52Zm6.85,10.87a5.88,5.88,0,0,1-3,.79,30.83,30.83,0,0,1-3.29-.42c-.39-.06-.56-.27-.47-.7.14-.7.24-1.42.35-2.12a21.86,21.86,0,0,0,2.39.63,5.88,5.88,0,0,0,1.82-.08,1,1,0,0,0,.91-.87,1,1,0,0,0-.58-1.06c-.5-.32-1-.59-1.55-.88l-.42-.27a3.19,3.19,0,0,1-1.69-3,3.68,3.68,0,0,1,2.29-3.08A7.26,7.26,0,0,1,108,482c.33.09.5.23.42.63-.15.69-.23,1.39-.33,2-.89-.14-1.71-.32-2.54-.39a2.7,2.7,0,0,0-1.25.23.78.78,0,0,0-.17,1.45,13.48,13.48,0,0,0,1.31.8l.82.47A3.51,3.51,0,0,1,106.09,493.39ZM119,494c-.9,0-1.78,0-2.67,0-.08,0-.17-.13-.24-.22a.49.49,0,0,1,0-.19c-.13-.44-.12-1-.41-1.28s-.85-.08-1.29-.08c-.7,0-1.4,0-2.09,0-.39,0-.59.11-.67.48a2.92,2.92,0,0,1-.21.56c-.31.82-.09.76-1.12.76-.77,0-1.54,0-2.45,0,.33-.79.6-1.46.89-2.13,1.21-2.85,2.44-5.69,3.62-8.56a1.8,1.8,0,0,1,1.85-1.27c.64,0,1.29,0,1.94,0a.43.43,0,0,1,.51.4q1.17,5.61,2.38,11.23C119,493.78,119,493.86,119,494Z"/><path d="M226.8,472.16H182.6a3.64,3.64,0,0,0-.74.06A2.34,2.34,0,0,0,180,474.8v25.64a2.36,2.36,0,0,0,2.68,2.67h44.1a2.3,2.3,0,0,0,2.52-2.52q0-12.94,0-25.88A2.3,2.3,0,0,0,226.8,472.16Zm-4.74,9.1c.7,0,1.4,0,2.1.05a2,2,0,0,1,.61,3.94l-.19.14,2,2.74a1.56,1.56,0,0,1-2-.51l-1.16-1.7c-.09-.14-.21-.27-.31-.41l-.16,0v2.07c0,.66,0,.66-.66.66s-.73,0-.73-.74c0-1.92,0-3.84,0-5.75C221.55,481.39,221.66,481.23,222.06,481.26Zm-5,0c1,0,2,0,3,0,.42,0,.54.15.5.53a5.13,5.13,0,0,0,0,.69c-.73,0-1.39,0-2.06,0-.33,0-.47.09-.47.45,0,1.3-.11,1.06,1,1.08h.71c.63,0,.92.42.66,1,0,.09-.24.16-.36.17-.54,0-1.07,0-1.6,0-.32,0-.46.08-.45.42s0,.9,0,1.42h2.52a6.71,6.71,0,0,1,0,.91.47.47,0,0,1-.33.3c-1.07,0-2.13,0-3.2,0-.3,0-.37-.14-.37-.4v-6.21C216.68,481.35,216.81,481.26,217.1,481.26Zm-6.45,0c.14,0,.3.24.36.4.49,1.17,1,2.35,1.41,3.53l.31.71,1.38-3.42.15-.37c.38-.95.71-1.1,1.81-.77l-.63,1.51c-.72,1.73-1.45,3.45-2.17,5.17-.11.28-.23.48-.6.47s-.44-.23-.54-.48l-2.52-6.1c-.08-.18-.14-.37-.25-.67A9,9,0,0,1,210.65,481.29ZM206,481a3.91,3.91,0,1,1-3.93,3.86A3.93,3.93,0,0,1,206,481Zm-7.78.63a3.79,3.79,0,0,1,3-.27c.37.12.61.3.55.75a8.34,8.34,0,0,0,0,1c-1.74-.87-2.65-.83-3.46.13a2.57,2.57,0,0,0-.11,3.07,1.89,1.89,0,0,0,1.7.88,10.4,10.4,0,0,0,1.87-.46,10.84,10.84,0,0,1,0,1.13.63.63,0,0,1-.33.37,3.75,3.75,0,0,1-4.81-1.87A3.68,3.68,0,0,1,198.25,481.61Zm-9.83,4a3.49,3.49,0,0,1-3,2.58c-.78,0-1.57,0-2.35,0-.3,0-.41-.12-.41-.41V481.7c0-.33.11-.46.44-.44h1.1a6.35,6.35,0,0,1,2.05.26,3.54,3.54,0,0,1,.86.45A3.43,3.43,0,0,1,188.42,485.64Zm1.61,2.63h-.5c-.29,0-.38-.12-.38-.39q0-3.11,0-6.21c0-.31.12-.43.41-.41h.15c.77,0,.77,0,.77.74v2.81c0,.75,0,1.5,0,2.26,0,.25,0,.5,0,.75S190.37,488.31,190,488.27Zm1.39-1.51a5,5,0,0,0,.5-.46,1.79,1.79,0,0,0,1.51.91,1,1,0,0,0,1-.72.89.89,0,0,0-.6-1.08c-.39-.18-.81-.32-1.2-.49a1.72,1.72,0,0,1-1.25-1.84,2,2,0,0,1,1.57-1.85,2.87,2.87,0,0,1,2.69.72l-.68.89c-.21-.14-.36-.26-.53-.35a1.17,1.17,0,0,0-1.2,0,.64.64,0,0,0,0,1.18c.41.22.86.37,1.29.56a2,2,0,0,1,1.38,2.28,2.23,2.23,0,0,1-1.92,2,2.77,2.77,0,0,1-2.6-.85C191.08,487.29,191,487,191.42,486.76ZM228.84,500a3.64,3.64,0,0,1-.16,1.19,2,2,0,0,1-2,1.33h-34.8c13-2.55,25.49-6.48,37-13.43,0,.23,0,.38,0,.53C228.86,493.12,228.86,496.58,228.84,500Z"/><path d="M174.8,472.24H131.12a2.35,2.35,0,0,0-2.65,2.63v25.55a3.41,3.41,0,0,0,.07.85A2.25,2.25,0,0,0,131,503h43.88a3.65,3.65,0,0,0,1-.08,2.28,2.28,0,0,0,1.69-2.45q0-12.78,0-25.56C177.53,473.11,176.66,472.24,174.8,472.24Zm-36.87,13.88c0,.8-.51.64-.92.64-1,0-2.06,0-3.09,0-.57,0-.88-.15-1-.69s-.38-.64-.88-.63a.72.72,0,0,0-.76.52c-.37.92-.12.77-1.16.78-.35,0-.71,0-1.05,0-.5.05-.48-.26-.47-.6s0-.64.44-.55a1.11,1.11,0,0,0,1.47-.95.69.69,0,0,1,.51-.32c.67,0,1.33,0,2,0a.61.61,0,0,1,.69.47c.38,1,.16.8,1.19.82h1.9v-4.13l.14,0c.08.15.16.3.23.45.48,1.09,1,2.17,1.43,3.29.19.49.52.41.87.43a.62.62,0,0,0,.73-.43c.46-1.13,1-2.25,1.48-3.37.06-.14.14-.27.21-.41l.12,0v4.07l.14.08c1.26.1,1.26.1,1.26-1.13s0-2.73,0-4.09c0-.36-.09-.52-.47-.5a13.08,13.08,0,0,1-1.4,0,.54.54,0,0,0-.59.41c-.45,1.12-.93,2.23-1.45,3.45a6.37,6.37,0,0,1-.32-.58c-.44-1-.89-1.9-1.3-2.86a.59.59,0,0,0-.64-.42,10,10,0,0,1-1.34,0c-.35,0-.45.11-.45.46,0,1.46,0,2.93,0,4.39a.62.62,0,0,1-.09.34,3,3,0,0,1-.2-.4q-.94-2.18-1.86-4.35a.6.6,0,0,0-.66-.44c-1.57,0-1.57,0-2.18,1.46-.5,1.2-1,2.39-1.52,3.58a1,1,0,0,1-.28.39c.05-1.21-.31-2.41.28-3.57.44-.87.78-1.8,1.2-2.68a.71.71,0,0,1,.51-.35c.95,0,1.9,0,2.84,0,.27,0,.53.33.78.5-.11-.66.42-.52.86-.52.94,0,1.89,0,2.84,0a.67.67,0,0,1,.78.5c.17.48.41.93.68,1.53.28-.62.52-1.11.71-1.61a.57.57,0,0,1,.63-.42c4.26,0,8.51,0,12.77,0a9.36,9.36,0,0,1,1.45.22,3.4,3.4,0,0,1,.78-.22c.84,0,1.69,0,2.54,0a2.56,2.56,0,0,1,.66.22c.94-.07,1.91-.19,2.88-.22,1.19,0,2.39,0,3.59,0,.53,0,1.14-.17,1.36.67,0-.72.4-.68.83-.68.76,0,1.53,0,2.29,0,.56,0,1.08,0,1.26.7.15-.28.2-.55.37-.65a1.51,1.51,0,0,1,.68,0c.83,0,1.66,0,2.49,0,.32,0,.44.11.44.44q0,3.62,0,7.23c0,.31-.11.41-.41.41-1,0-2,0-3,0a.68.68,0,0,1-.71-.41,5.15,5.15,0,0,0-.37-.58c-.05,0-.09.06-.09.08-.05.9-.05.9-1,.9-1.1,0-2.2,0-3.29,0a.68.68,0,0,1-.8-.54c-.12-.42-.24-.83-.88-.77-.45,0-.72.12-.82.58s-.5.77-1.11.74a9.8,9.8,0,0,1-3.82-.47c0,.47-.3.46-.61.46-1.61,0-3.23,0-4.84,0-.48,0-.61-.16-.57-.6s0-.8,0-1.2c0-.1-.13-.19-.2-.29-.06.1-.16.2-.17.31,0,.46,0,.93,0,1.39,0,.14-.21.36-.32.36-3.65,0-7.31,0-11,0a.42.42,0,0,1-.15-.06l-.06-.52c-.24.79-.86.58-1.4.59-.21,0-.43,0-.65,0C138.49,486.8,138.07,486.78,137.93,486.12Zm-6.8-3c.31-.77.59-1.45.86-2.13h.14c.27.69.55,1.37.85,2.13Zm46.25,5.83a4.55,4.55,0,0,1,0,.84h-.61c-.79,0-1.59,0-2.39,0a1.65,1.65,0,0,0-1.7,1.66,1.57,1.57,0,0,0,1.6,1.72c.4,0,.8,0,1.2.06s.71.08.72.52-.39.54-.75.54c-.7,0-1.4,0-2.1,0s-.49.3-.51.66.1.57.53.55c.63,0,1.26,0,1.89,0a3,3,0,0,0,2.12-.61,8.72,8.72,0,0,1,0,1.16.61.61,0,0,1-.37.38,6,6,0,0,1-1.32.21c-1.13,0-2.26,0-3.39,0a1,1,0,0,1-.59-.32,6.12,6.12,0,0,1-2.7.33c-3.22,0-6.45,0-9.67,0-.47,0-.67-.11-.62-.61a8.67,8.67,0,0,0,0-1.14c0-.11-.11-.21-.16-.31-.08.11-.21.21-.22.32,0,.45,0,.9,0,1.35,0,.27-.09.39-.37.39H155c-.32,0-.4-.15-.4-.43,0-.54,0-1.08,0-1.62l-2.32.22c0,.44,0,.9,0,1.36s-.08.48-.44.47c-1.23,0-2.46,0-3.69,0a.92.92,0,0,1-.59-.27,10.58,10.58,0,0,1-.86-.95c-.31.33-.59.65-.9.94a1,1,0,0,1-.54.28c-2.24,0-4.49,0-6.73,0a1.31,1.31,0,0,1-.22-.05v-8c.2,0,.39,0,.59,0,2,0,4.09,0,6.13,0a1.13,1.13,0,0,1,1.06.48,8.4,8.4,0,0,0,.65.74,6.79,6.79,0,0,1,.82-.86,1.33,1.33,0,0,1,.77-.33c1.42,0,2.85,0,4.28,0,.67,0,1.34.14,2,.21a2.67,2.67,0,0,1,.62-.21c1.33,0,2.66,0,4,0a10.23,10.23,0,0,1,1.57.24,3.42,3.42,0,0,1,.75-.25c1.9,0,3.79,0,5.69,0a1.44,1.44,0,0,1,.65.26,7.46,7.46,0,0,1,2.94-.26q.94,0,1.89,0a.93.93,0,0,1,.51.28c1.24-.51,2.57-.22,3.86-.27C177.18,488.61,177.36,488.8,177.38,488.92Zm0,3.69a3.11,3.11,0,0,0-2.11-.57,3.23,3.23,0,0,1-.88-.13.54.54,0,0,1-.26-.41c0-.16.19-.43.31-.44.91-.05,1.83-.05,2.74-.05.06,0,.18.15.19.23C177.41,491.65,177.4,492.06,177.4,492.61Z"/><path d="M24.88,501.31a2.13,2.13,0,0,0,1.58,1.79,4.21,4.21,0,0,0,1.12.1H70.74a7,7,0,0,0,.79,0,2.19,2.19,0,0,0,2-2,5.39,5.39,0,0,0,0-.7V475.31a6,6,0,0,0,0-.74,2.22,2.22,0,0,0-1.83-1.9,5.26,5.26,0,0,0-.89-.05H27.57a5.94,5.94,0,0,0-.94.06,1.92,1.92,0,0,0-1.51,1.16,3.88,3.88,0,0,0-.27,1.44q0,12.62,0,25.24A4.19,4.19,0,0,0,24.88,501.31Zm4-15.6a12.23,12.23,0,0,1,9.68-9.83,12,12,0,0,1,10.25,2.58c.27.21.43.24.71,0a12.14,12.14,0,0,1,9.23-2.76,12.27,12.27,0,0,1,10.58,9.36c.22.94.29,1.92.43,2.88A12.42,12.42,0,0,1,61,499.7a12,12,0,0,1-11.42-2.24c-.33-.27-.5-.24-.82,0a12.05,12.05,0,0,1-9,2.71A12.3,12.3,0,0,1,28.85,485.71Z"/><path class="cls-11" d="M116.65,482.47a.43.43,0,0,0-.51-.4c-.65,0-1.3,0-1.94,0a1.8,1.8,0,0,0-1.85,1.27c-1.18,2.87-2.41,5.71-3.62,8.56-.29.67-.56,1.34-.89,2.13.91,0,1.68,0,2.45,0,1,0,.81.06,1.12-.76a2.92,2.92,0,0,0,.21-.56c.08-.37.28-.5.67-.48.69,0,1.39,0,2.09,0,.44,0,1-.14,1.29.08s.28.84.41,1.28a.49.49,0,0,0,0,.19c.07.09.16.22.24.22.89,0,1.77,0,2.67,0,0-.16,0-.24,0-.32Q117.83,488.09,116.65,482.47Zm-3.89,7.2,1.5-4.05.14,0c.29,1.34.58,2.68.87,4.07Z"/><path class="cls-11" d="M94.78,482.05c-1,0-1.82,0-2.69,0a.67.67,0,0,0-.76.52c-.6,1.7-1.24,3.39-1.86,5.08L88.6,490l-.11,0c0-.13-.07-.25-.1-.38-.39-2-.79-4-1.17-6.05-.2-1.09-.55-1.43-1.65-1.44-1.48,0-2.95,0-4.43,0a3,3,0,0,0-.42.08c1.24.59,2.44,1.1,3.57,1.71a7.25,7.25,0,0,1,2.8,2.69,9.75,9.75,0,0,0-3-2.09,1.82,1.82,0,0,0,.06.32c.79,3,1.59,6,2.38,8.93.08.29.25.35.51.35.76,0,1.52,0,2.29,0a.71.71,0,0,0,.8-.54c1.47-3.66,2.95-7.3,4.43-11C94.67,482.42,94.7,482.28,94.78,482.05Z"/><path class="cls-11" d="M106.26,487.21l-.82-.47a13.48,13.48,0,0,1-1.31-.8.78.78,0,0,1,.17-1.45,2.7,2.7,0,0,1,1.25-.23c.83.07,1.65.25,2.54.39.1-.62.18-1.32.33-2,.08-.4-.09-.54-.42-.63a7.26,7.26,0,0,0-5.19.28,3.68,3.68,0,0,0-2.29,3.08,3.19,3.19,0,0,0,1.69,3l.42.27c.52.29,1.05.56,1.55.88a1,1,0,0,1,.58,1.06,1,1,0,0,1-.91.87,5.88,5.88,0,0,1-1.82.08,21.86,21.86,0,0,1-2.39-.63c-.11.7-.21,1.42-.35,2.12-.09.43.08.64.47.7a30.83,30.83,0,0,0,3.29.42,5.88,5.88,0,0,0,3-.79A3.51,3.51,0,0,0,106.26,487.21Z"/><path class="cls-11" d="M98.84,482.07c-.76,0-1.53,0-2.29,0-.38,0-.49.14-.55.51-.34,2.14-.72,4.28-1.08,6.42-.25,1.49-.49,3-.75,4.46-.08.44,0,.62.5.58h1.94c.71,0,.7,0,.82-.67.6-3.61,1.19-7.23,1.81-10.84C99.31,482.14,99.17,482.06,98.84,482.07Z"/><path class="cls-11" d="M191.86,502.56h34.8a2,2,0,0,0,2-1.33,3.64,3.64,0,0,0,.16-1.19c0-3.46,0-6.92,0-10.38,0-.15,0-.3,0-.53C217.35,496.08,204.87,500,191.86,502.56Z"/><path class="cls-11" d="M206,488.79a3.91,3.91,0,1,0-3.9-4A3.95,3.95,0,0,0,206,488.79Z"/><path class="cls-11" d="M187.11,482a3.54,3.54,0,0,0-.86-.45,6.35,6.35,0,0,0-2.05-.26h-1.1c-.33,0-.44.11-.44.44v6.16c0,.29.11.42.41.41.78,0,1.57,0,2.35,0a3.49,3.49,0,0,0,3-2.58A3.43,3.43,0,0,0,187.11,482Zm-.35,4a2.34,2.34,0,0,1-2.44,1.1c-.09,0-.24-.24-.24-.37s0-.32,0-.48c0-.47,0-.95,0-1.43s0-.95,0-1.42c0-.16,0-.32,0-.48s.15-.36.25-.37a2.35,2.35,0,0,1,2.3.9A2.32,2.32,0,0,1,186.76,485.94Z"/><path class="cls-11" d="M221.56,487.53c0,.74,0,.74.73.74s.66,0,.66-.66v-2.07l.16,0c.1.14.22.27.31.41l1.16,1.7a1.56,1.56,0,0,0,2,.51l-2-2.74.19-.14a2,2,0,0,0-.61-3.94c-.7-.05-1.4,0-2.1-.05-.4,0-.51.13-.51.52C221.57,483.69,221.56,485.61,221.56,487.53Zm1.69-5.14a1.18,1.18,0,0,1,1.36.68,1,1,0,0,1-.47,1.25l-.14.06c-.81.3-1,.15-1-.71v-.25a.38.38,0,0,1,0-.15C223.06,483,222.73,482.52,223.25,482.39Z"/><path class="cls-11" d="M216.68,487.87c0,.26.07.4.37.4,1.07,0,2.13,0,3.2,0a.47.47,0,0,0,.33-.3,6.71,6.71,0,0,0,0-.91h-2.52c0-.52,0-1,0-1.42s.13-.43.45-.42c.53,0,1.06,0,1.6,0,.12,0,.32-.08.36-.17.26-.6,0-1-.66-1h-.71c-1.15,0-1,.22-1-1.08,0-.36.14-.46.47-.45.67,0,1.33,0,2.06,0a5.13,5.13,0,0,1,0-.69c0-.38-.08-.54-.5-.53-1,0-2,0-3,0-.29,0-.42.09-.42.4Z"/><path class="cls-11" d="M194,488.46a2.23,2.23,0,0,0,1.92-2,2,2,0,0,0-1.38-2.28c-.43-.19-.88-.34-1.29-.56a.64.64,0,0,1,0-1.18,1.17,1.17,0,0,1,1.2,0c.17.09.32.21.53.35l.68-.89a2.87,2.87,0,0,0-2.69-.72,2,2,0,0,0-1.57,1.85,1.72,1.72,0,0,0,1.25,1.84c.39.17.81.31,1.2.49a.89.89,0,0,1,.6,1.08,1,1,0,0,1-1,.72,1.79,1.79,0,0,1-1.51-.91,5,5,0,0,1-.5.46c-.38.28-.34.53,0,.85A2.77,2.77,0,0,0,194,488.46Z"/><path class="cls-11" d="M212.13,488c.1.25.18.47.54.48s.49-.19.6-.47c.72-1.72,1.45-3.44,2.17-5.17l.63-1.51c-1.1-.33-1.43-.18-1.81.77l-.15.37-1.38,3.42-.31-.71c-.46-1.18-.92-2.36-1.41-3.53-.06-.16-.22-.38-.36-.4a9,9,0,0,0-1.29,0c.11.3.17.49.25.67Z"/><path class="cls-11" d="M201.45,488.22a.63.63,0,0,0,.33-.37,10.84,10.84,0,0,0,0-1.13,10.4,10.4,0,0,1-1.87.46,1.89,1.89,0,0,1-1.7-.88,2.57,2.57,0,0,1,.11-3.07c.81-1,1.72-1,3.46-.13a8.34,8.34,0,0,1,0-1c.06-.45-.18-.63-.55-.75a3.79,3.79,0,0,0-3,.27,3.68,3.68,0,0,0-1.61,4.74A3.75,3.75,0,0,0,201.45,488.22Z"/><path class="cls-11" d="M138.94,486.77c.22,0,.44,0,.65,0,.54,0,1.16.2,1.4-.59l.06.52a.42.42,0,0,0,.15.06c3.66,0,7.32,0,11,0,.11,0,.31-.22.32-.36,0-.46,0-.93,0-1.39,0-.11.11-.21.17-.31.07.1.19.19.2.29,0,.4,0,.8,0,1.2s.09.61.57.6c1.61,0,3.23,0,4.84,0,.31,0,.61,0,.61-.46a9.8,9.8,0,0,0,3.82.47c.61,0,1-.13,1.11-.74s.37-.55.82-.58c.64-.06.76.35.88.77a.68.68,0,0,0,.8.54c1.09,0,2.19,0,3.29,0,.91,0,.91,0,1-.9,0,0,0,0,.09-.08a5.15,5.15,0,0,1,.37.58.68.68,0,0,0,.71.41c1,0,2,0,3,0,.3,0,.41-.1.41-.41q0-3.62,0-7.23c0-.33-.12-.44-.44-.44-.83,0-1.66,0-2.49,0a1.51,1.51,0,0,0-.68,0c-.17.1-.22.37-.37.65-.18-.73-.7-.72-1.26-.7-.76,0-1.53,0-2.29,0-.43,0-.86,0-.83.68-.22-.84-.83-.67-1.36-.67-1.2,0-2.4,0-3.59,0-1,0-1.94.15-2.88.22a2.56,2.56,0,0,0-.66-.22c-.85,0-1.7,0-2.54,0a3.4,3.4,0,0,0-.78.22,9.36,9.36,0,0,0-1.45-.22c-4.26,0-8.51,0-12.77,0a.57.57,0,0,0-.63.42c-.19.5-.43,1-.71,1.61-.27-.6-.51-1.05-.68-1.53a.67.67,0,0,0-.78-.5c-.95,0-1.9,0-2.84,0-.44,0-1-.14-.86.52-.25-.17-.51-.48-.78-.5-.94-.06-1.89,0-2.84,0a.71.71,0,0,0-.51.35c-.42.88-.76,1.81-1.2,2.68-.59,1.16-.23,2.36-.28,3.57a1,1,0,0,0,.28-.39c.51-1.19,1-2.38,1.52-3.58.61-1.47.61-1.46,2.18-1.46a.6.6,0,0,1,.66.44q.91,2.18,1.86,4.35a3,3,0,0,0,.2.4.62.62,0,0,0,.09-.34c0-1.46,0-2.93,0-4.39,0-.35.1-.48.45-.46a10,10,0,0,0,1.34,0,.59.59,0,0,1,.64.42c.41,1,.86,1.91,1.3,2.86a6.37,6.37,0,0,0,.32.58c.52-1.22,1-2.33,1.45-3.45a.54.54,0,0,1,.59-.41,13.08,13.08,0,0,0,1.4,0c.38,0,.48.14.47.5,0,1.36,0,2.73,0,4.09s0,1.23-1.26,1.13l-.14-.08v-4.07l-.12,0c-.07.14-.15.27-.21.41-.5,1.12-1,2.24-1.48,3.37a.62.62,0,0,1-.73.43c-.35,0-.68.06-.87-.43-.43-1.12-.95-2.2-1.43-3.29-.07-.15-.15-.3-.23-.45l-.14,0v4.13h-1.9c-1,0-.81.14-1.19-.82a.61.61,0,0,0-.69-.47c-.67,0-1.33,0-2,0a.69.69,0,0,0-.51.32,1.11,1.11,0,0,1-1.47.95c-.47-.09-.44.24-.44.55s0,.65.47.6c.34,0,.7,0,1.05,0,1,0,.79.14,1.16-.78a.72.72,0,0,1,.76-.52c.5,0,.78.14.88.63s.43.72,1,.69c1-.06,2.06,0,3.09,0,.41,0,.94.16.92-.64C138.07,486.78,138.49,486.8,138.94,486.77Zm19.5-4.77a2.25,2.25,0,0,1,2.27-2.09c.46,0,.93,0,1.39,0s.38.35.39.62.07.6-.39.57a8.34,8.34,0,0,0-1,0,1.15,1.15,0,0,0-1.28,1.12,4,4,0,0,0,0,1.33,1.33,1.33,0,0,0,1.75.84.73.73,0,0,0,.28-.38c.54-1.24,1.07-2.47,1.59-3.72a.54.54,0,0,1,.58-.4c1.63,0,1.62,0,2.26,1.48.46,1.09.92,2.17,1.39,3.25a.76.76,0,0,0,.29.37c0-.17,0-.34,0-.51,0-1.37,0-2.73,0-4.09,0-.37.1-.5.48-.5,1.59,0,1.59,0,2.42,1.35.48.79,1,1.59,1.45,2.38,0,0,.06,0,.13.07a2.52,2.52,0,0,0,0-.37c0-1,0-2,0-3,0-.32.1-.44.43-.44,1.13,0,.95-.07,1,.91,0,1.45,0,2.89,0,4.34,0,.36-.1.49-.47.5-1.45,0-1.45,0-2.2-1.22-.49-.83-1-1.66-1.49-2.48-.08-.14-.17-.27-.26-.4l-.1,0c0,.18,0,.35,0,.52,0,1,0,2.06,0,3.09,0,.35-.12.47-.46.46-.63,0-1.26,0-1.89,0-.35,0-.55-.11-.61-.44a1,1,0,0,0-1.33-.86,2.36,2.36,0,0,1-.65,0c-.83-.11-1.5,0-1.67,1a.42.42,0,0,1-.3.25,13.33,13.33,0,0,1-2.19-.08,2.08,2.08,0,0,1-1.85-2A6.75,6.75,0,0,1,158.44,482Zm-1.7-2.12c1.16,0,.94-.09.95.9,0,1.58,0,3.16,0,4.8h-1.35a1.88,1.88,0,0,1,0-.31c0-1.64,0-3.29,0-4.93C156.29,480,156.4,479.87,156.74,479.88ZM150,480c1.42,0,2.81,0,4.2,0a1.23,1.23,0,0,1,1.17.94,1.67,1.67,0,0,1-.44,1.75c-.1.1-.21.19-.36.32,1.18.61.74,1.66.81,2.59a2.16,2.16,0,0,1-.29,0c-1,.06-1,.06-1.06-.95s-.25-1.11-1.14-1.14c-.37,0-.73,0-1.1,0s-.49.11-.47.46,0,.83,0,1.24-.11.43-.41.41-.59,0-.91,0Zm-5.09-.07c1.16,0,2.32,0,3.49,0,.47,0,.62.15.56.59a5.53,5.53,0,0,0,0,.58c-.93,0-1.79,0-2.65,0-.39,0-.57.06-.57.51s.16.58.58.56c.7,0,1.4,0,2.1,0,.51,0,.45.3.45.62s0,.59-.46.57c-.69,0-1.39,0-2.09,0-.49,0-.57.19-.58.61s.14.62.6.6c.85,0,1.69,0,2.58,0v1.1h-4.52v-1.15c0-1.34,0-2.69,0-4C144.43,480,144.56,479.87,145,479.88Z"/><path class="cls-11" d="M173.21,488.88a.93.93,0,0,0-.51-.28q-.94,0-1.89,0a7.46,7.46,0,0,0-2.94.26,1.44,1.44,0,0,0-.65-.26c-1.9,0-3.79,0-5.69,0a3.42,3.42,0,0,0-.75.25,10.23,10.23,0,0,0-1.57-.24c-1.33,0-2.66,0-4,0a2.67,2.67,0,0,0-.62.21c-.63-.07-1.3-.19-2-.21-1.43,0-2.86,0-4.28,0a1.33,1.33,0,0,0-.77.33,6.79,6.79,0,0,0-.82.86,8.4,8.4,0,0,1-.65-.74,1.13,1.13,0,0,0-1.06-.48c-2,0-4.09,0-6.13,0-.2,0-.39,0-.59,0v8a1.31,1.31,0,0,0,.22.05c2.24,0,4.49,0,6.73,0a1,1,0,0,0,.54-.28c.31-.29.59-.61.9-.94a10.58,10.58,0,0,0,.86.95.92.92,0,0,0,.59.27c1.23,0,2.46,0,3.69,0,.36,0,.46-.13.44-.47s0-.92,0-1.36l2.32-.22c0,.54,0,1.08,0,1.62,0,.28.08.43.4.43H158c.28,0,.38-.12.37-.39,0-.45,0-.9,0-1.35,0-.11.14-.21.22-.32,0,.1.16.2.16.31a8.67,8.67,0,0,1,0,1.14c-.05.5.15.62.62.61,3.22,0,6.45,0,9.67,0a6.12,6.12,0,0,0,2.7-.33,1,1,0,0,0,.59.32c1.13,0,2.26,0,3.39,0a6,6,0,0,0,1.32-.21.61.61,0,0,0,.37-.38,8.72,8.72,0,0,0,0-1.16,3,3,0,0,1-2.12.61c-.63,0-1.26,0-1.89,0-.43,0-.55-.14-.53-.55s0-.69.51-.66,1.4,0,2.1,0c.36,0,.75-.07.75-.54s-.37-.5-.72-.52-.8,0-1.2-.06a1.57,1.57,0,0,1-1.6-1.72,1.65,1.65,0,0,1,1.7-1.66c.8,0,1.6,0,2.39,0h.61a4.55,4.55,0,0,0,0-.84c0-.12-.2-.31-.31-.31C175.78,488.66,174.45,488.37,173.21,488.88Zm-19.64,4.61a15.25,15.25,0,0,1-2,.09c-.34,0-.49.1-.47.45s0,.7,0,1.05-.09.43-.4.43c-.66,0-1.33,0-2,0a.88.88,0,0,1-.53-.29c-.47-.49-.91-1-1.43-1.59-.53.56-1,1.09-1.47,1.57a1.12,1.12,0,0,1-.68.31c-1.51,0-3,0-4.53,0-.31,0-.5,0-.5-.43,0-1.67,0-3.35,0-5a1.76,1.76,0,0,1,0-.25c.15,0,.31,0,.47,0,1.51,0,3,0,4.54,0a.89.89,0,0,1,.76.35c.42.51.88,1,1.37,1.55.48-.52.94-1,1.37-1.49a1.07,1.07,0,0,1,.94-.41c1.26,0,2.52,0,3.79,0a4,4,0,0,1,.84.08,1.66,1.66,0,0,1,1.47,1.87A1.62,1.62,0,0,1,153.57,493.49Zm7.66,1.7a.44.44,0,0,1-.28.3c-.93.17-1.06.06-1.07-.86s-.22-1.18-1.17-1.2c-.38,0-.76,0-1.14,0s-.42.11-.41.41,0,.83,0,1.24-.1.47-.43.44h-.25c-.66,0-.66,0-.66-.64v-5.07c1.35,0,2.62,0,3.87,0a1.47,1.47,0,0,1,1.53,1,1.69,1.69,0,0,1-.83,2C161.44,493.38,161.23,494.32,161.23,495.19Zm5.42.05a.37.37,0,0,1-.28.25c-1.31,0-2.62,0-3.94,0a.41.41,0,0,1-.29-.28c0-1.79,0-3.58,0-5.42h4.51v1.14h-1.15c-.52,0-1,0-1.55,0s-.5.19-.49.55,0,.58.47.56c.67,0,1.33,0,2,0s.67,0,.66.69c0,.13,0,.26,0,.46-.84,0-1.67,0-2.49,0-.2,0-.53.06-.55.15a2,2,0,0,0,0,.88c0,.07.28.12.43.12h2.73A6.57,6.57,0,0,1,166.65,495.24Zm4.17.2c-1,.08-2,.06-3,.05a.44.44,0,0,1-.3-.28,6.58,6.58,0,0,1,0-.9h2.19a1.5,1.5,0,0,0,.64,0,1,1,0,0,0,.48-.51c.08-.32-.2-.47-.49-.49-.46,0-.93,0-1.39-.1a1.61,1.61,0,0,1-1.56-2.07,1.58,1.58,0,0,1,1.56-1.3c1-.05,2,0,3,0,0,.07.05.11.06.16.13,1,.1,1-.9,1-.57,0-1.14,0-1.7,0-.32,0-.62.1-.62.5s.31.49.62.52.89,0,1.34.05a1.43,1.43,0,0,1,1.54,1.53C172.31,494.66,171.8,495.37,170.82,495.44Z"/><path class="cls-11" d="M177.2,491c-.91,0-1.83,0-2.74.05-.12,0-.29.28-.31.44a.54.54,0,0,0,.26.41,3.23,3.23,0,0,0,.88.13,3.11,3.11,0,0,1,2.11.57c0-.55,0-1,0-1.37C177.38,491.16,177.26,491,177.2,491Z"/><path class="cls-11" d="M132.13,481H132c-.27.68-.55,1.36-.86,2.13H133C132.68,482.33,132.4,481.65,132.13,481Z"/><path class="cls-11" d="M39.72,500.19a12.05,12.05,0,0,0,9-2.71c.32-.26.49-.29.82,0A12,12,0,0,0,61,499.7,12.42,12.42,0,0,0,69.73,488c-.14-1-.21-1.94-.43-2.88a12.27,12.27,0,0,0-10.58-9.36,12.14,12.14,0,0,0-9.23,2.76c-.28.23-.44.2-.71,0a12,12,0,0,0-10.25-2.58,12.31,12.31,0,0,0,1.19,24.31ZM29,487.57a12,12,0,0,1,9.86-11.44,12.13,12.13,0,0,1,14,9.57c.18-.2.31-.36.45-.49a2.78,2.78,0,0,1,3.18-.43c.09,0,.15.23.16.35a3,3,0,0,1-.06.63c1.17-.27,2.3-.61,3.29.51,0-.84.58-.64,1-.66a10.18,10.18,0,0,1,1.23,0,2.65,2.65,0,0,1,.76.29,1.69,1.69,0,0,1,1.92-.07c.06-.29.12-.54.15-.79s.15-.42.44-.41.82,0,1.32,0c-.08.58-.14,1.1-.22,1.61-.22,1.32-.46,2.63-.66,4-.05.35-.2.41-.51.41-.63,0-1.25,0-1.88,0a1.74,1.74,0,0,1-1.74-1.83c0-.42,0-.84,0-1.27-.59.93-.47,2.05-.79,3.08H58.1a2.54,2.54,0,0,0-.39,0c-1,.15-1.12.13-1.85-.55,0,.45-.32.56-.68.63a2.71,2.71,0,0,1-2.39-.57A12,12,0,0,1,45.61,499a11.46,11.46,0,0,1-8.09.44A11.91,11.91,0,0,1,29,487.57Z"/><path d="M114.26,485.62l-1.5,4.05h2.51c-.29-1.39-.58-2.73-.87-4.07Z"/><path d="M184.33,482.49c-.1,0-.25.24-.25.37s0,.32,0,.48c0,.47,0,1,0,1.42s0,1,0,1.43c0,.16,0,.32,0,.48s.15.36.24.37a2.32,2.32,0,1,0,0-4.55Z"/><path d="M223,483.27a.38.38,0,0,0,0,.15v.25c0,.86.23,1,1,.71l.14-.06a1,1,0,0,0,.47-1.25,1.18,1.18,0,0,0-1.36-.68C222.73,482.52,223.06,483,223,483.27Z"/><path d="M160.28,485.52a13.33,13.33,0,0,0,2.19.08.42.42,0,0,0,.3-.25c.17-1,.84-1.13,1.67-1a2.36,2.36,0,0,0,.65,0,1,1,0,0,1,1.33.86c.06.33.26.45.61.44.63,0,1.26,0,1.89,0,.34,0,.46-.11.46-.46,0-1,0-2.06,0-3.09,0-.17,0-.34,0-.52l.1,0c.09.13.18.26.26.4.5.82,1,1.65,1.49,2.48.75,1.25.75,1.23,2.2,1.22.37,0,.48-.14.47-.5,0-1.45,0-2.89,0-4.34,0-1,.17-.89-1-.91-.33,0-.43.12-.43.44,0,1,0,2,0,3a2.52,2.52,0,0,1,0,.37c-.07,0-.12-.05-.13-.07-.49-.79-1-1.59-1.45-2.38-.83-1.38-.83-1.37-2.42-1.35-.38,0-.49.13-.48.5,0,1.36,0,2.72,0,4.09,0,.17,0,.34,0,.51a.76.76,0,0,1-.29-.37c-.47-1.08-.93-2.16-1.39-3.25-.64-1.51-.63-1.5-2.26-1.48a.54.54,0,0,0-.58.4c-.52,1.25-1.05,2.48-1.59,3.72a.73.73,0,0,1-.28.38,1.33,1.33,0,0,1-1.75-.84,4,4,0,0,1,0-1.33,1.15,1.15,0,0,1,1.28-1.12,8.34,8.34,0,0,1,1,0c.46,0,.4-.29.39-.57s.12-.64-.39-.62-.93,0-1.39,0a2.25,2.25,0,0,0-2.27,2.09,6.75,6.75,0,0,0,0,1.49A2.08,2.08,0,0,0,160.28,485.52Zm4.36-4.73,1,2.29h-1.87C164,482.34,164.31,481.64,164.64,480.79Z"/><path d="M151,485.62c.3,0,.43-.1.41-.41s0-.83,0-1.24.14-.48.47-.46.73,0,1.1,0c.89,0,1.1.25,1.14,1.14s.05,1,1.06.95a2.16,2.16,0,0,0,.29,0c-.07-.93.37-2-.81-2.59.15-.13.26-.22.36-.32a1.67,1.67,0,0,0,.44-1.75,1.23,1.23,0,0,0-1.17-.94c-1.39-.06-2.78,0-4.2,0v5.67C150.36,485.62,150.66,485.6,151,485.62Zm1-4.58a12,12,0,0,0,1.2,0c.6,0,.88.24.86.66s-.3.63-.9.64h-1c-.72,0-.69,0-.73-.69C151.3,481.18,151.44,481,151.93,481Z"/><path d="M144.44,484.42v1.15H149v-1.1c-.89,0-1.73,0-2.58,0-.46,0-.6-.14-.6-.6s.09-.64.58-.61c.7,0,1.4,0,2.09,0,.46,0,.47-.24.46-.57s.06-.64-.45-.62c-.7,0-1.4,0-2.1,0-.42,0-.58-.11-.58-.56s.18-.52.57-.51c.86,0,1.72,0,2.65,0a5.53,5.53,0,0,1,0-.58c.06-.44-.09-.61-.56-.59-1.17,0-2.33,0-3.49,0-.39,0-.52.09-.51.5C144.46,481.73,144.44,483.08,144.44,484.42Z"/><path d="M156.3,485.27a1.88,1.88,0,0,0,0,.31h1.35c0-1.64,0-3.22,0-4.8,0-1,.21-.87-.95-.9-.34,0-.45.11-.45.46C156.31,482,156.3,483.63,156.3,485.27Z"/><path d="M153.68,489.85a4,4,0,0,0-.84-.08c-1.27,0-2.53,0-3.79,0a1.07,1.07,0,0,0-.94.41c-.43.5-.89,1-1.37,1.49-.49-.56-1-1-1.37-1.55a.89.89,0,0,0-.76-.35c-1.52,0-3,0-4.54,0-.16,0-.32,0-.47,0a1.76,1.76,0,0,0,0,.25c0,1.68,0,3.36,0,5,0,.39.19.43.5.43,1.51,0,3,0,4.53,0a1.12,1.12,0,0,0,.68-.31c.49-.48.94-1,1.47-1.57.52.58,1,1.1,1.43,1.59a.88.88,0,0,0,.53.29c.66,0,1.33,0,2,0,.31,0,.41-.14.4-.43s0-.7,0-1.05.13-.45.47-.45a15.25,15.25,0,0,0,2-.09,1.62,1.62,0,0,0,1.58-1.77A1.66,1.66,0,0,0,153.68,489.85Zm-8.08,3.06c-.39.41-.75.84-1.16,1.23a.84.84,0,0,1-.53.19c-.81,0-1.63,0-2.44,0-.48,0-.67-.13-.6-.61,0-.16,0-.33,0-.56h2.94V492c-.81,0-1.6,0-2.39,0-.42,0-.6-.09-.59-.55s.14-.58.57-.57c.82,0,1.63,0,2.44,0a1.29,1.29,0,0,1,.76.34c.36.32.65.72,1,1.07A.34.34,0,0,1,145.6,492.91Zm4.09,2.07-.87-1c-.33-.37-.67-.74-1-1.12-.08-.1-.14-.35-.08-.42.6-.68,1.22-1.34,1.83-2l.1.07Zm4-3.35c-.05.26-.26.67-.46.71a12.81,12.81,0,0,1-2,.1c-.07,0-.14-.12-.2-.19a.37.37,0,0,1,0-.15c-.12-1.16-.12-1.17,1.14-1.19.31,0,.63,0,.94.08A.56.56,0,0,1,153.68,491.63Z"/><path d="M161.22,490.79a1.47,1.47,0,0,0-1.53-1c-1.25,0-2.52,0-3.87,0v5.07c0,.64,0,.64.66.64h.25c.33,0,.44-.12.43-.44s0-.83,0-1.24.11-.42.41-.41.76,0,1.14,0c.95,0,1.16.23,1.17,1.2s.14,1,1.07.86a.44.44,0,0,0,.28-.3c0-.87.21-1.81-.84-2.35A1.69,1.69,0,0,0,161.22,490.79Zm-2.09,1.43h-.79v0h-.45c-.71,0-.69,0-.72-.71,0-.45.12-.64.59-.61s.94,0,1.4,0,.7.2.68.64A.64.64,0,0,1,159.13,492.22Z"/><path d="M163.94,494.33c-.15,0-.42-.05-.43-.12a2,2,0,0,1,0-.88c0-.09.35-.15.55-.15.82,0,1.65,0,2.49,0,0-.2,0-.33,0-.46,0-.68,0-.68-.66-.69s-1.33,0-2,0c-.44,0-.47-.22-.47-.56s.07-.57.49-.55,1,0,1.55,0h1.15v-1.14h-4.51c0,1.84,0,3.63,0,5.42a.41.41,0,0,0,.29.28c1.32,0,2.63,0,3.94,0a.37.37,0,0,0,.28-.25,6.57,6.57,0,0,0,0-.9Z"/><path d="M170.74,492.06c-.45,0-.9,0-1.34-.05s-.62-.13-.62-.52.3-.49.62-.5c.56,0,1.13,0,1.7,0,1,0,1,0,.9-1,0-.05,0-.09-.06-.16-1,0-2,0-3,0a1.58,1.58,0,0,0-1.56,1.3,1.61,1.61,0,0,0,1.56,2.07c.46.05.93.05,1.39.1.29,0,.57.17.49.49a1,1,0,0,1-.48.51,1.5,1.5,0,0,1-.64,0h-2.19a6.58,6.58,0,0,0,0,.9.44.44,0,0,0,.3.28c1,0,2,0,3-.05s1.49-.78,1.46-1.85A1.43,1.43,0,0,0,170.74,492.06Z"/><path d="M37.52,499.44a11.46,11.46,0,0,0,8.09-.44,12,12,0,0,0,7.18-8.91,2.71,2.71,0,0,0,2.39.57c.36-.07.66-.18.68-.63.73.68.83.7,1.85.55a2.54,2.54,0,0,1,.39,0h2.76c.32-1,.2-2.15.79-3.08,0,.43,0,.85,0,1.27a1.74,1.74,0,0,0,1.74,1.83c.63,0,1.25,0,1.88,0,.31,0,.46-.06.51-.41.2-1.33.44-2.64.66-4,.08-.51.14-1,.22-1.61-.5,0-.91,0-1.32,0s-.4.13-.44.41-.09.5-.15.79a1.69,1.69,0,0,0-1.92.07,2.65,2.65,0,0,0-.76-.29,10.18,10.18,0,0,0-1.23,0c-.45,0-1-.18-1,.66-1-1.12-2.12-.78-3.29-.51a3,3,0,0,0,.06-.63c0-.12-.07-.31-.16-.35a2.78,2.78,0,0,0-3.18.43c-.14.13-.27.29-.45.49a12.13,12.13,0,0,0-14-9.57,12,12,0,0,0-1.3,23.31ZM64.7,486.1a1.29,1.29,0,0,0,.26.12c.07-.32.12-.61.18-.89.1-.48.32-.6,1-.48.48.1.22.45.18.68-.2,1.37-.44,2.73-.66,4.1a.78.78,0,0,1-1.2.61.59.59,0,0,0-.41-.05A1.41,1.41,0,0,1,62,489.05a3.17,3.17,0,0,1,.59-2.54A1.48,1.48,0,0,1,64.7,486.1Zm-4.6.24c0-.24,0-.5.38-.46s.72-.23.8.32l.84-.43.11.13c-.11.35-.21.71-.32,1.07,0,0,0,.11-.07.12-.87.27-.73,1.07-.9,1.7a5.41,5.41,0,0,0-.16,1c0,.47-.25.68-.73.6a3.8,3.8,0,0,0-.52,0c.1-.73.19-1.41.28-2.09S60,487,60.1,486.34Zm-2.44-.56a5.3,5.3,0,0,1,.69,0,1.26,1.26,0,0,1,1.32,1.49c-.08.88-.22,1.74-.35,2.61,0,.16-.17.43-.27.44-.29,0-.67.21-.86-.22a6.59,6.59,0,0,1-.73.3,1.14,1.14,0,0,1-1.45-1.3,1.68,1.68,0,0,1,1.74-1.61c.24,0,.48,0,.72,0,.15-.51-.14-.63-.48-.63s-.88.05-1.36.09C56.69,485.93,56.74,485.87,57.66,485.78Zm.16,1.29a2.69,2.69,0,0,0-2.06,1.51c-.12.27-.76.4-1.17.43s-.64-.34-.65-.73a3.79,3.79,0,0,1,.15-1.26,1.2,1.2,0,0,1,2.08-.41c.14.15.12.44.18.71Zm-4.7-1.32a2.46,2.46,0,0,1,3-.83c.1.05.23.18.22.27,0,.33-.07.64-.12,1L55.5,486a1.2,1.2,0,0,0-1.4.48,2.39,2.39,0,0,0-.37,2.12,1.06,1.06,0,0,0,1.36.68c.17,0,.34-.1.52-.16.2,1-.06,1.32-1,1.35a1.87,1.87,0,0,1-2.11-1.65A3.75,3.75,0,0,1,53.12,485.75Zm-2.66.54c0-.26.12-.47.43-.41s.7-.21.74.32l.86-.43.12.13c-.29.44-.11,1-.76,1.39-.32.18-.4.86-.53,1.32s-.14.92-.23,1.37-.41.5-1,.38c-.39-.07-.21-.36-.19-.55C50.08,488.64,50.28,487.46,50.46,486.29Zm-2.72-.45a1.57,1.57,0,0,1,2.14,1.49,8.1,8.1,0,0,1-.13,1.15c-.7,0-1.34,0-2,0-.13,0-.34.05-.37.14a.43.43,0,0,0,.11.39,2.76,2.76,0,0,0,1,.33,4.31,4.31,0,0,0,1-.16c.08.89-.1,1.15-.91,1.22a2,2,0,0,1-2.12-.77,2.71,2.71,0,0,1,0-2.74A1.94,1.94,0,0,1,47.74,485.84Zm-3.68,3.59c.15-1.34.39-2.67.6-4a.38.38,0,0,1,.26-.22,8.74,8.74,0,0,1,.89,0v.61l.48.12a6.31,6.31,0,0,1-.1.76.34.34,0,0,1-.24.23c-.37,0-.43.22-.46.51a6.44,6.44,0,0,1-.17,1.07c-.14.52,0,.8.54.8.12.8,0,1-.7,1S44,490.08,44.06,489.43Zm-1.62-.77a1.17,1.17,0,0,0-.34-.2,1.41,1.41,0,0,1,.47-2.67,5.12,5.12,0,0,1,.79,0c.7,0,.71.06.6.75,0,.31-.19.34-.46.35s-.84.06-.91.24c-.16.41.35.46.6.62a1.32,1.32,0,0,1,.65,1.43,1.26,1.26,0,0,1-1,1.14,7.05,7.05,0,0,1-.76.08l-.57,0c-.61-.05-.77-.31-.51-.88a.53.53,0,0,1,.39-.15c.31,0,.63.05.93,0a.49.49,0,0,0,.35-.27C42.67,488.93,42.54,488.77,42.44,488.66Zm-3-1.8a11.07,11.07,0,0,0-1.28.06H38c-.09-.78,0-.94.7-1.09l.44-.06c1.36-.13,2.11.52,1.83,1.92-.13.65-.18,1.31-.3,2,0,.23-.11.6-.23.63a3.79,3.79,0,0,1-1,0v-.15l-.13.07c-.76.43-1.44.34-1.79-.23a1.58,1.58,0,0,1,.42-2,6.88,6.88,0,0,1,1.48-.44,4,4,0,0,0,.43-.19C39.73,487.12,39.61,486.87,39.47,486.86ZM33,485.19c0-.12.12-.3.19-.31a11.38,11.38,0,0,1,1.43,0c.06,0,.15.27.15.41,0,.81,0,1.62,0,2.43l.14,0c.19-.55.4-1.09.58-1.63.45-1.35.44-1.35,1.85-1.29.12,0,.23,0,.41,0-.15.91-.29,1.8-.44,2.69-.11.7-.28,1.4-.34,2.1,0,.53-.28.68-.76.62-.16,0-.32,0-.54,0,.18-1.17.35-2.3.53-3.43l-.08,0c-.37,1-.77,2-1.1,3.06-.13.4-.36.46-.71.42s-.27-.36-.28-.57c0-1,0-1.91,0-2.86H33.9c-.15.87-.31,1.72-.45,2.59s-.3,1-1.25.74C32.48,488.54,32.75,486.86,33,485.19Z"/><path class="cls-11" d="M164.64,480.79c-.33.85-.61,1.55-.91,2.29h1.87Z"/><path class="cls-11" d="M152.05,482.35h1c.6,0,.89-.22.9-.64s-.26-.64-.86-.66a12,12,0,0,1-1.2,0c-.49-.05-.63.14-.61.62C151.36,482.35,151.33,482.35,152.05,482.35Z"/><path class="cls-11" d="M144.63,491.29a1.29,1.29,0,0,0-.76-.34c-.81-.05-1.62,0-2.44,0-.43,0-.57.13-.57.57s.17.56.59.55c.79,0,1.58,0,2.39,0v1.15H140.9c0,.23,0,.4,0,.56-.07.48.12.64.6.61.81,0,1.63,0,2.44,0a.84.84,0,0,0,.53-.19c.41-.39.77-.82,1.16-1.23a.34.34,0,0,0,0-.55C145.28,492,145,491.61,144.63,491.29Z"/><path class="cls-11" d="M147.76,492.49c-.06.07,0,.32.08.42.31.38.65.75,1,1.12l.87,1v-4.42l-.1-.07C149,491.15,148.36,491.81,147.76,492.49Z"/><path class="cls-11" d="M153.13,491c-.31-.05-.63-.06-.94-.08-1.26,0-1.26,0-1.14,1.19a.37.37,0,0,0,0,.15c.06.07.13.19.2.19a12.81,12.81,0,0,0,2-.1c.2,0,.41-.45.46-.71A.56.56,0,0,0,153.13,491Z"/><path class="cls-11" d="M159.16,491c-.46,0-.93,0-1.4,0s-.6.16-.59.61c0,.71,0,.71.72.71h.45v0h.79a.64.64,0,0,0,.71-.62C159.86,491.16,159.54,491,159.16,491Z"/><path class="cls-11" d="M33.45,489.47c.14-.87.3-1.72.45-2.59h.18c0,.95,0,1.91,0,2.86,0,.21-.12.53.28.57s.58,0,.71-.42c.33-1,.73-2,1.1-3.06l.08,0c-.18,1.13-.35,2.26-.53,3.43.22,0,.38,0,.54,0,.48.06.72-.09.76-.62.06-.7.23-1.4.34-2.1.15-.89.29-1.78.44-2.69-.18,0-.29,0-.41,0-1.41-.06-1.4-.06-1.85,1.29-.18.54-.39,1.08-.58,1.63l-.14,0c0-.81,0-1.62,0-2.43,0-.14-.09-.41-.15-.41a11.38,11.38,0,0,0-1.43,0c-.07,0-.17.19-.19.31-.29,1.67-.56,3.35-.84,5C33.15,490.49,33.31,490.39,33.45,489.47Z"/><path class="cls-11" d="M62,489.05A1.41,1.41,0,0,0,64,490.19a.59.59,0,0,1,.41.05.78.78,0,0,0,1.2-.61c.22-1.37.46-2.73.66-4.1,0-.23.3-.58-.18-.68-.64-.12-.86,0-1,.48-.06.28-.11.57-.18.89a1.29,1.29,0,0,1-.26-.12,1.48,1.48,0,0,0-2.16.41A3.17,3.17,0,0,0,62,489.05Zm1.32-1.52a.75.75,0,0,1,.88-.63c.49.1.48.52.52,1.07a3.58,3.58,0,0,1-.39.93.77.77,0,0,1-.67.24.68.68,0,0,1-.43-.5A3,3,0,0,1,63.27,487.53Z"/><path class="cls-11" d="M38,487.89a1.58,1.58,0,0,0-.42,2c.35.57,1,.66,1.79.23l.13-.07v.15a3.79,3.79,0,0,0,1,0c.12,0,.2-.4.23-.63.12-.65.17-1.31.3-2,.28-1.4-.47-2.05-1.83-1.92l-.44.06c-.68.15-.79.31-.7,1.09h.18a11.07,11.07,0,0,1,1.28-.06c.14,0,.26.26.4.4a4,4,0,0,1-.43.19A6.88,6.88,0,0,0,38,487.89Zm1.71.64c.1.35-.35.94-.72.89-.17,0-.33-.19-.57-.34.19-.27.27-.5.43-.57a2.38,2.38,0,0,1,.76-.13S39.66,488.47,39.67,488.53Z"/><path class="cls-11" d="M58.47,487.46c-.24,0-.48,0-.72,0A1.68,1.68,0,0,0,56,489.08a1.14,1.14,0,0,0,1.45,1.3,6.59,6.59,0,0,0,.73-.3c.19.43.57.23.86.22.1,0,.24-.28.27-.44.13-.87.27-1.73.35-2.61a1.26,1.26,0,0,0-1.32-1.49,5.3,5.3,0,0,0-.69,0c-.92.09-1,.15-1,1.14.48,0,.92-.09,1.36-.09S58.62,487,58.47,487.46Zm-.94,2a.67.67,0,0,1-.34-.53c0-.41.52-.6,1.14-.47C58.26,489.11,57.93,489.54,57.53,489.42Z"/><path class="cls-11" d="M46.52,489.64a2,2,0,0,0,2.12.77c.81-.07,1-.33.91-1.22a4.31,4.31,0,0,1-1,.16,2.76,2.76,0,0,1-1-.33.43.43,0,0,1-.11-.39c0-.09.24-.14.37-.14.64,0,1.28,0,2,0a8.1,8.1,0,0,0,.13-1.15,1.57,1.57,0,0,0-2.14-1.49,1.94,1.94,0,0,0-1.18,1.06A2.71,2.71,0,0,0,46.52,489.64Zm1.75-2.85c.41.08.52.36.43.76H47.52C47.61,487,47.9,486.72,48.27,486.79Z"/><path class="cls-11" d="M52.51,488.81a1.87,1.87,0,0,0,2.11,1.65c.93,0,1.19-.37,1-1.35-.18.06-.35.12-.52.16a1.06,1.06,0,0,1-1.36-.68,2.39,2.39,0,0,1,.37-2.12,1.2,1.2,0,0,1,1.4-.48l.68.22c0-.38.11-.69.12-1,0-.09-.12-.22-.22-.27a2.46,2.46,0,0,0-3,.83A3.75,3.75,0,0,0,52.51,488.81Z"/><path class="cls-11" d="M42.3,489.32c-.3,0-.62,0-.93,0a.53.53,0,0,0-.39.15c-.26.57-.1.83.51.88l.57,0a7.05,7.05,0,0,0,.76-.08,1.26,1.26,0,0,0,1-1.14,1.32,1.32,0,0,0-.65-1.43c-.25-.16-.76-.21-.6-.62.07-.18.59-.22.91-.24s.42,0,.46-.35c.11-.69.1-.73-.6-.75a5.12,5.12,0,0,0-.79,0,1.41,1.41,0,0,0-.47,2.67,1.17,1.17,0,0,1,.34.2c.1.11.23.27.21.39A.49.49,0,0,1,42.3,489.32Z"/><path class="cls-11" d="M45.16,490.34c.68,0,.82-.25.7-1-.55,0-.68-.28-.54-.8a6.44,6.44,0,0,0,.17-1.07c0-.29.09-.52.46-.51a.34.34,0,0,0,.24-.23,6.31,6.31,0,0,0,.1-.76l-.48-.12v-.61a8.74,8.74,0,0,0-.89,0,.38.38,0,0,0-.26.22c-.21,1.34-.45,2.67-.6,4C44,490.08,44.45,490.4,45.16,490.34Z"/><path class="cls-11" d="M50.09,490.36c.59.12.92,0,1-.38s.11-.92.23-1.37.21-1.14.53-1.32c.65-.36.47-1,.76-1.39l-.12-.13-.86.43c0-.53-.47-.27-.74-.32s-.39.15-.43.41c-.18,1.17-.38,2.35-.56,3.52C49.88,490,49.7,490.29,50.09,490.36Z"/><path class="cls-11" d="M60.05,490.37c.48.08.7-.13.73-.6a5.41,5.41,0,0,1,.16-1c.17-.63,0-1.43.9-1.7,0,0,.06-.07.07-.12.11-.36.21-.72.32-1.07l-.11-.13-.84.43c-.08-.55-.51-.27-.8-.32s-.35.22-.38.46c-.1.63-.2,1.26-.29,1.9s-.18,1.36-.28,2.09A3.8,3.8,0,0,1,60.05,490.37Z"/><path class="cls-11" d="M54.09,487a3.79,3.79,0,0,0-.15,1.26c0,.39.25.76.65.73s1-.16,1.17-.43a2.69,2.69,0,0,1,2.06-1.51l-1.47.25c-.06-.27,0-.56-.18-.71A1.2,1.2,0,0,0,54.09,487Z"/><path d="M63.61,489.14a.77.77,0,0,0,.67-.24,3.58,3.58,0,0,0,.39-.93c0-.55,0-1-.52-1.07a.75.75,0,0,0-.88.63,3,3,0,0,0-.09,1.11A.68.68,0,0,0,63.61,489.14Zm-.11-1.43c.11-.22.38-.37.58-.55l.39.58a5.07,5.07,0,0,1-.3.89.62.62,0,0,1-.47.26c-.12,0-.28-.26-.3-.41A1.33,1.33,0,0,1,63.5,487.71Z"/><path d="M38.38,489.08c.24.15.4.32.57.34.37.05.82-.54.72-.89,0-.06-.07-.15-.1-.15a2.38,2.38,0,0,0-.76.13C38.65,488.58,38.57,488.81,38.38,489.08Z"/><path d="M57.19,488.89a.67.67,0,0,0,.34.53c.4.12.73-.31.8-1C57.71,488.29,57.21,488.48,57.19,488.89Zm.43.26s-.12-.1-.19-.15l.42-.43.2.19A5.22,5.22,0,0,1,57.62,489.15Z"/><path d="M48.27,486.79c-.37-.07-.66.23-.75.76H48.7C48.79,487.15,48.68,486.87,48.27,486.79Z"/><path class="cls-11" d="M63.7,488.89a.62.62,0,0,0,.47-.26,5.07,5.07,0,0,0,.3-.89l-.39-.58c-.2.18-.47.33-.58.55a1.33,1.33,0,0,0-.1.77C63.42,488.63,63.58,488.87,63.7,488.89Z"/><path class="cls-11" d="M57.43,489c.07.05.18.16.19.15a5.22,5.22,0,0,0,.43-.39l-.2-.19Z"/></g></g></svg>