<svg xmlns="http://www.w3.org/2000/svg" viewBox="0 0 1035.3 599.36"><defs><style>.cls-1{fill:none;stroke:#f0ece8;stroke-miterlimit:10;}.cls-2,.cls-4{font-size:24px;font-family:Roboto-Bold, Roboto;font-weight:700;}.cls-2,.cls-3{fill:#f0ece8;}.cls-5{letter-spacing:-0.04em;}.cls-6{letter-spacing:-0.01em;}.cls-7{letter-spacing:-0.02em;}.cls-8{letter-spacing:-0.01em;}.cls-9{letter-spacing:0.01em;}.cls-10{letter-spacing:-0.02em;}.cls-11{fill:#fff;}.cls-12{letter-spacing:-0.01em;}.cls-13{letter-spacing:-0.01em;}.cls-14{letter-spacing:-0.01em;}.cls-15{letter-spacing:-0.02em;}</style></defs><g id="Laag_2" data-name="Laag 2"><g id="Laag_4" data-name="Laag 4"><rect class="cls-1" x="911.37" y="132.84" width="95.99" height="50.32"/><text class="cls-2" transform="translate(933.89 164.46)">Add</text><rect class="cls-1" x="652.8" y="0.5" width="382" height="597.85" rx="18.19"/><rect class="cls-3" x="676.61" y="355.9" width="330.54" height="50.32"/><text class="cls-4" transform="translate(720.56 388.69) scale(0.97 1)">Consuming Confusion</text><text class="cls-2" transform="translate(767.97 62.96)">Shopping bag</text><text class="cls-2" transform="translate(676.26 335.42)"><tspan class="cls-5">T</tspan><tspan x="12.84" y="0">otal </tspan></text><rect class="cls-3" x="676.96" y="298.9" width="330.54" height="1.06"/><text class="cls-2" transform="translate(676.1 234.97)">O<tspan class="cls-6" x="16.51" y="0">r</tspan><tspan x="24.74" y="0">der </tspan><tspan class="cls-7" x="65.26" y="0">V</tspan><tspan x="79.99" y="0">alue</tspan></text><text class="cls-2" transform="translate(676.24 263.53)">Deli<tspan class="cls-8" x="41.25" y="0">v</tspan><tspan x="53.36" y="0">e</tspan><tspan class="cls-9" x="65.91" y="0">r</tspan><tspan x="74.57" y="0">y</tspan></text><text class="cls-2" transform="translate(676 450.85)"><tspan class="cls-10">W</tspan><tspan x="20.78" y="0">e accept</tspan></text><rect class="cls-1" x="677.32" y="132.84" width="218.69" height="50.32"/><path class="cls-11" d="M783.27,503h0Z"/><path class="cls-11" d="M842.78,484.81V482c0-.74,0-.74-.77-.74h-.15c-.29,0-.41.1-.41.41q0,3.1,0,6.21c0,.27.09.41.37.39h.5c.35,0,.47-.1.47-.45s0-.5,0-.75C842.77,486.31,842.78,485.56,842.78,484.81Z"/><path class="cls-11" d="M679.88,503.2h0Z"/><path d="M777.74,474.64a2.15,2.15,0,0,0-1.4-1.94,3.35,3.35,0,0,0-1.22-.19H731.33a4.22,4.22,0,0,0-.79.07,2,2,0,0,0-1.54,1.2,3.69,3.69,0,0,0-.26,1.39c0,5,0,10,0,15v10.65a2.23,2.23,0,0,0,1.28,2.27,3.44,3.44,0,0,0,1.35.25c7.29,0,14.58,0,21.87,0h21.82c1.85,0,2.7-.86,2.7-2.71q0-12.71,0-25.42A5,5,0,0,0,777.74,474.64Zm-36.07,19.41c-.76,0-1.52,0-2.28,0-.26,0-.43-.06-.51-.35-.79-3-1.59-5.95-2.39-8.93,0-.07,0-.15,0-.32a9.87,9.87,0,0,1,2.95,2.09,7.25,7.25,0,0,0-2.8-2.69c-1.14-.61-2.33-1.12-3.58-1.71a3.11,3.11,0,0,1,.43-.08c1.48,0,2.95,0,4.42,0,1.11,0,1.45.35,1.66,1.44.38,2,.78,4,1.17,6.05,0,.13.07.25.1.38l.11,0c.29-.77.58-1.54.86-2.31.63-1.69,1.26-3.38,1.87-5.08a.67.67,0,0,1,.76-.52c.87,0,1.74,0,2.68,0a4.3,4.3,0,0,1-.16.5c-1.48,3.66-3,7.3-4.43,11A.71.71,0,0,1,741.67,494.05Zm9.87-11.53q-.93,5.42-1.82,10.84c-.11.67-.11.67-.81.67H747c-.47,0-.58-.14-.5-.58.26-1.48.5-3,.75-4.46.36-2.14.74-4.28,1.08-6.42.05-.37.17-.52.55-.51.76,0,1.52,0,2.28,0C751.47,482.06,751.6,482.14,751.54,482.52Zm6.85,10.87a5.91,5.91,0,0,1-3,.79,30.64,30.64,0,0,1-3.28-.42c-.39-.06-.56-.27-.47-.7.14-.7.24-1.42.35-2.12a21.29,21.29,0,0,0,2.39.63,5.8,5.8,0,0,0,1.81-.08,1.06,1.06,0,0,0,.92-.87,1,1,0,0,0-.58-1.06c-.5-.32-1-.59-1.55-.88a4.32,4.32,0,0,1-.42-.27,3.16,3.16,0,0,1-1.69-3,3.68,3.68,0,0,1,2.29-3.08,7.26,7.26,0,0,1,5.19-.28c.32.09.5.23.42.63-.15.69-.23,1.39-.33,2-.89-.14-1.71-.32-2.54-.39a2.7,2.7,0,0,0-1.25.23.78.78,0,0,0-.17,1.45,12.38,12.38,0,0,0,1.31.8l.82.47A3.51,3.51,0,0,1,758.39,493.39Zm12.94.63c-.9,0-1.79,0-2.67,0-.08,0-.17-.13-.24-.22s0-.12,0-.19c-.12-.44-.11-1-.4-1.28s-.85-.08-1.3-.08c-.69,0-1.39,0-2.08,0-.39,0-.59.11-.67.48a5.37,5.37,0,0,1-.21.56c-.32.82-.09.76-1.12.76-.77,0-1.55,0-2.45,0l.88-2.13c1.21-2.85,2.44-5.69,3.63-8.56a1.79,1.79,0,0,1,1.85-1.27c.64,0,1.29,0,1.94,0a.43.43,0,0,1,.51.4q1.17,5.61,2.38,11.23C771.34,493.78,771.33,493.86,771.33,494Z"/><path d="M879.1,472.16H834.9a3.74,3.74,0,0,0-.75.06,2.34,2.34,0,0,0-1.81,2.58v25.64a2.36,2.36,0,0,0,2.68,2.67h44.1a2.3,2.3,0,0,0,2.52-2.52V474.71A2.3,2.3,0,0,0,879.1,472.16Zm-4.74,9.1c.7,0,1.4,0,2.1.05a1.94,1.94,0,0,1,1.91,1.6,1.92,1.92,0,0,1-1.3,2.34,2,2,0,0,0-.2.14l2.06,2.74a1.57,1.57,0,0,1-2.06-.51l-1.15-1.7c-.1-.14-.21-.27-.32-.41l-.15,0v2.07c0,.66,0,.66-.66.66s-.73,0-.73-.74c0-1.92,0-3.84,0-5.75C873.85,481.39,874,481.23,874.36,481.26Zm-5,0c1,0,2,0,3,0,.42,0,.53.15.49.53,0,.21,0,.42,0,.69-.73,0-1.39,0-2.06,0-.33,0-.48.09-.47.45,0,1.3-.11,1.06,1,1.08h.7c.64,0,.92.42.66,1,0,.09-.23.16-.35.17-.54,0-1.07,0-1.61,0-.31,0-.46.08-.44.42s0,.9,0,1.42h2.52a5.3,5.3,0,0,1,0,.91.46.46,0,0,1-.32.3c-1.07,0-2.14,0-3.21,0-.29,0-.36-.14-.36-.4q0-3.11,0-6.21C869,481.35,869.11,481.26,869.4,481.26Zm-6.46,0c.14,0,.31.24.37.4.48,1.17.94,2.35,1.41,3.53l.31.71,1.38-3.42.15-.37c.38-.95.71-1.1,1.8-.77-.21.51-.41,1-.62,1.51l-2.17,5.17c-.12.28-.23.48-.6.47s-.44-.23-.54-.48l-2.53-6.1c-.07-.18-.13-.37-.25-.67A9,9,0,0,1,862.94,481.29Zm-4.61-.31a3.91,3.91,0,1,1-3.93,3.86A3.94,3.94,0,0,1,858.33,481Zm-7.78.63a3.79,3.79,0,0,1,3-.27c.37.12.61.3.55.75a8.34,8.34,0,0,0,0,1c-1.75-.87-2.65-.83-3.46.13a2.57,2.57,0,0,0-.11,3.07,1.88,1.88,0,0,0,1.7.88,10.4,10.4,0,0,0,1.87-.46,8.8,8.8,0,0,1,0,1.13.58.58,0,0,1-.32.37,3.74,3.74,0,0,1-4.81-1.87A3.67,3.67,0,0,1,850.55,481.61Zm-9.83,4a3.5,3.5,0,0,1-3,2.58c-.78,0-1.57,0-2.35,0-.31,0-.42-.12-.41-.41q0-3.09,0-6.16c0-.33.12-.46.45-.44h1.1a6.38,6.38,0,0,1,2,.26,3.48,3.48,0,0,1,.85.45A3.42,3.42,0,0,1,840.72,485.64Zm1.6,2.63h-.5c-.28,0-.37-.12-.37-.39q0-3.11,0-6.21c0-.31.12-.43.41-.41H842c.77,0,.77,0,.77.74v2.81c0,.75,0,1.5,0,2.26,0,.25,0,.5,0,.75S842.67,488.31,842.32,488.27Zm1.4-1.51a5,5,0,0,0,.5-.46,1.78,1.78,0,0,0,1.51.91,1,1,0,0,0,1-.72.9.9,0,0,0-.6-1.08c-.39-.18-.81-.32-1.21-.49a1.72,1.72,0,0,1-1.24-1.84,2,2,0,0,1,1.57-1.85A2.87,2.87,0,0,1,848,482l-.68.89c-.21-.14-.37-.26-.54-.35a1.16,1.16,0,0,0-1.19,0,.64.64,0,0,0,0,1.18c.41.22.86.37,1.28.56a2,2,0,0,1,1.39,2.28,2.24,2.24,0,0,1-1.93,2,2.76,2.76,0,0,1-2.59-.85C843.38,487.29,843.33,487,843.72,486.76ZM881.14,500a3.64,3.64,0,0,1-.16,1.19,2,2,0,0,1-2,1.33H844.15c13-2.55,25.5-6.48,37-13.43,0,.23,0,.38,0,.53C881.16,493.12,881.16,496.58,881.14,500Z"/><path d="M827.1,472.24H783.42a2.36,2.36,0,0,0-2.66,2.63q0,12.78,0,25.55a3.41,3.41,0,0,0,.07.85,2.25,2.25,0,0,0,2.43,1.76h43.88a3.55,3.55,0,0,0,1-.08,2.28,2.28,0,0,0,1.7-2.45V474.94C829.83,473.11,829,472.24,827.1,472.24Zm-36.88,13.88c0,.8-.5.64-.91.64-1,0-2.07,0-3.09,0-.57,0-.89-.15-1-.69s-.38-.64-.88-.63a.72.72,0,0,0-.76.52c-.38.92-.12.77-1.17.78-.35,0-.7,0-1,0-.51.05-.48-.26-.48-.6s0-.64.45-.55a1.11,1.11,0,0,0,1.47-.95.69.69,0,0,1,.51-.32c.66,0,1.33,0,2,0a.62.62,0,0,1,.7.47c.38,1,.15.8,1.19.82h1.9v-4.13l.14,0c.08.15.16.3.23.45.48,1.09,1,2.17,1.43,3.29.19.49.51.41.87.43a.62.62,0,0,0,.73-.43c.46-1.13,1-2.25,1.48-3.37.06-.14.14-.27.21-.41l.12,0v4.07l.14.08c1.26.1,1.26.1,1.26-1.13s0-2.73,0-4.09c0-.36-.1-.52-.48-.5a12.89,12.89,0,0,1-1.39,0,.54.54,0,0,0-.59.41c-.45,1.12-.93,2.23-1.45,3.45-.15-.25-.25-.41-.33-.58-.43-1-.88-1.9-1.3-2.86a.58.58,0,0,0-.63-.42,10,10,0,0,1-1.34,0c-.36,0-.46.11-.45.46,0,1.46,0,2.93,0,4.39a.62.62,0,0,1-.09.34c-.07-.13-.15-.26-.21-.4-.62-1.45-1.25-2.9-1.85-4.35a.61.61,0,0,0-.66-.44c-1.58,0-1.57,0-2.18,1.46-.5,1.2-1,2.39-1.53,3.58a1,1,0,0,1-.27.39c0-1.21-.31-2.41.28-3.57.44-.87.78-1.8,1.2-2.68a.71.71,0,0,1,.51-.35c.94,0,1.89,0,2.84,0,.27,0,.52.33.78.5-.11-.66.42-.52.86-.52.94,0,1.89,0,2.84,0a.68.68,0,0,1,.78.5c.17.48.41.93.68,1.53.28-.62.52-1.11.7-1.61a.58.58,0,0,1,.64-.42c4.25,0,8.51,0,12.76,0a9.31,9.31,0,0,1,1.46.22,3.47,3.47,0,0,1,.77-.22q1.28,0,2.55,0a2.56,2.56,0,0,1,.66.22c.94-.07,1.91-.19,2.88-.22,1.19,0,2.39,0,3.59,0,.53,0,1.13-.17,1.35.67,0-.72.4-.68.84-.68.76,0,1.53,0,2.29,0,.56,0,1.08,0,1.26.7.14-.28.2-.55.36-.65a1.56,1.56,0,0,1,.69,0c.83,0,1.66,0,2.49,0,.32,0,.44.11.44.44q0,3.62,0,7.23c0,.31-.11.41-.41.41-1,0-2,0-3,0a.68.68,0,0,1-.71-.41,5.15,5.15,0,0,0-.37-.58c-.05,0-.09.06-.09.08-.06.9-.06.9-1,.9-1.1,0-2.2,0-3.29,0a.68.68,0,0,1-.8-.54c-.13-.42-.24-.83-.88-.77-.45,0-.73.12-.82.58s-.5.77-1.11.74a9.8,9.8,0,0,1-3.82-.47c0,.47-.3.46-.61.46-1.61,0-3.23,0-4.84,0-.48,0-.61-.16-.58-.6a9.61,9.61,0,0,0,0-1.2c0-.1-.13-.19-.2-.29-.06.1-.16.2-.17.31,0,.46,0,.93,0,1.39,0,.14-.21.36-.32.36-3.66,0-7.31,0-11,0a.42.42,0,0,1-.15-.06l-.06-.52c-.24.79-.87.58-1.4.59-.22,0-.43,0-.65,0C790.78,486.8,790.36,486.78,790.22,486.12Zm-6.79-3c.31-.77.59-1.45.86-2.13h.13l.86,2.13Zm46.25,5.83a4.55,4.55,0,0,1,0,.84h-.61c-.8,0-1.59,0-2.39,0a1.66,1.66,0,0,0-1.71,1.66,1.59,1.59,0,0,0,1.61,1.72c.4,0,.8,0,1.2.06s.71.08.71.52-.38.54-.74.54c-.7,0-1.4,0-2.1,0s-.49.3-.51.66.1.57.52.55c.63,0,1.27,0,1.9,0a2.93,2.93,0,0,0,2.11-.61,8.84,8.84,0,0,1,0,1.16.63.63,0,0,1-.37.38,6,6,0,0,1-1.32.21c-1.13,0-2.26,0-3.39,0a1,1,0,0,1-.59-.32,6.14,6.14,0,0,1-2.7.33c-3.23,0-6.45,0-9.67,0-.47,0-.68-.11-.63-.61a7.23,7.23,0,0,0,0-1.14c0-.11-.11-.21-.17-.31-.07.11-.2.21-.21.32,0,.45,0,.9,0,1.35,0,.27-.09.39-.37.39h-2.94c-.32,0-.4-.15-.4-.43,0-.54,0-1.08,0-1.62l-2.33.22c0,.44,0,.9,0,1.36s-.08.48-.44.47c-1.23,0-2.46,0-3.69,0a.92.92,0,0,1-.59-.27,9.26,9.26,0,0,1-.86-.95c-.31.33-.59.65-.9.94a1,1,0,0,1-.54.28c-2.25,0-4.49,0-6.73,0a1.12,1.12,0,0,1-.22-.05v-8l.58,0c2,0,4.09,0,6.14,0a1.15,1.15,0,0,1,1.06.48,7,7,0,0,0,.65.74,6.79,6.79,0,0,1,.82-.86,1.33,1.33,0,0,1,.76-.33c1.43,0,2.86,0,4.29,0,.67,0,1.34.14,2,.21a2.67,2.67,0,0,1,.62-.21c1.33,0,2.66,0,4,0a10.43,10.43,0,0,1,1.57.24,3.26,3.26,0,0,1,.75-.25c1.89,0,3.79,0,5.68,0a1.43,1.43,0,0,1,.66.26,7.4,7.4,0,0,1,2.93-.26c.63,0,1.27,0,1.9,0a.93.93,0,0,1,.51.28c1.23-.51,2.56-.22,3.86-.27C829.48,488.61,829.66,488.8,829.68,488.92Zm0,3.69a3.07,3.07,0,0,0-2.1-.57,3.23,3.23,0,0,1-.88-.13.5.5,0,0,1-.26-.41c0-.16.19-.43.31-.44.91-.05,1.82-.05,2.74-.05.06,0,.18.15.18.23C829.7,491.65,829.69,492.06,829.69,492.61Z"/><path d="M677.18,501.31a2.11,2.11,0,0,0,1.58,1.79,4.18,4.18,0,0,0,1.12.1H723a6.87,6.87,0,0,0,.79,0,2.19,2.19,0,0,0,2-2,5.39,5.39,0,0,0,0-.7V475.31a4.53,4.53,0,0,0,0-.74,2.2,2.2,0,0,0-1.82-1.9,5.37,5.37,0,0,0-.89-.05H679.87a5.86,5.86,0,0,0-.94.06,1.92,1.92,0,0,0-1.51,1.16,3.69,3.69,0,0,0-.27,1.44q0,12.62,0,25.24A4.19,4.19,0,0,0,677.18,501.31Zm4-15.6a12.23,12.23,0,0,1,9.67-9.83,12,12,0,0,1,10.26,2.58c.27.21.42.24.71,0a12.28,12.28,0,0,1,19.8,6.6c.23.94.29,1.92.43,2.88a12.4,12.4,0,0,1-8.77,11.75,12,12,0,0,1-11.41-2.24c-.33-.27-.51-.24-.82,0a12.05,12.05,0,0,1-9,2.71A12.3,12.3,0,0,1,681.15,485.71Z"/><path class="cls-11" d="M769,482.47a.43.43,0,0,0-.51-.4c-.65,0-1.3,0-1.94,0a1.79,1.79,0,0,0-1.85,1.27c-1.19,2.87-2.42,5.71-3.63,8.56l-.88,2.13c.9,0,1.68,0,2.45,0,1,0,.8.06,1.12-.76a5.37,5.37,0,0,0,.21-.56c.08-.37.28-.5.67-.48.69,0,1.39,0,2.08,0,.45,0,1-.14,1.3.08s.28.84.4,1.28c0,.07,0,.15,0,.19s.16.22.24.22c.88,0,1.77,0,2.67,0,0-.16,0-.24,0-.32Q770.13,488.09,769,482.47Zm-3.9,7.2c.53-1.4,1-2.73,1.51-4.05l.14,0c.29,1.34.57,2.68.87,4.07Z"/><path class="cls-11" d="M747.07,482.05c-.94,0-1.81,0-2.68,0a.67.67,0,0,0-.76.52c-.61,1.7-1.24,3.39-1.87,5.08-.28.77-.57,1.54-.86,2.31l-.11,0c0-.13-.07-.25-.1-.38-.39-2-.79-4-1.17-6.05-.21-1.09-.55-1.43-1.66-1.44-1.47,0-2.94,0-4.42,0a3.11,3.11,0,0,0-.43.08c1.25.59,2.44,1.1,3.58,1.71a7.25,7.25,0,0,1,2.8,2.69,9.87,9.87,0,0,0-2.95-2.09c0,.17,0,.25,0,.32.8,3,1.6,6,2.39,8.93.08.29.25.35.51.35.76,0,1.52,0,2.28,0a.71.71,0,0,0,.81-.54c1.47-3.66,2.95-7.3,4.43-11A4.3,4.3,0,0,0,747.07,482.05Z"/><path class="cls-11" d="M758.56,487.21l-.82-.47a12.38,12.38,0,0,1-1.31-.8.78.78,0,0,1,.17-1.45,2.7,2.7,0,0,1,1.25-.23c.83.07,1.65.25,2.54.39.1-.62.18-1.32.33-2,.08-.4-.1-.54-.42-.63a7.26,7.26,0,0,0-5.19.28,3.68,3.68,0,0,0-2.29,3.08,3.16,3.16,0,0,0,1.69,3,4.32,4.32,0,0,0,.42.27c.52.29,1.05.56,1.55.88a1,1,0,0,1,.58,1.06,1.06,1.06,0,0,1-.92.87,5.8,5.8,0,0,1-1.81.08,21.29,21.29,0,0,1-2.39-.63c-.11.7-.21,1.42-.35,2.12-.09.43.08.64.47.7a30.64,30.64,0,0,0,3.28.42,5.91,5.91,0,0,0,3-.79A3.51,3.51,0,0,0,758.56,487.21Z"/><path class="cls-11" d="M751.13,482.07c-.76,0-1.52,0-2.28,0-.38,0-.5.14-.55.51-.34,2.14-.72,4.28-1.08,6.42-.25,1.49-.49,3-.75,4.46-.08.44,0,.62.5.58h1.94c.7,0,.7,0,.81-.67q.9-5.42,1.82-10.84C751.6,482.14,751.47,482.06,751.13,482.07Z"/><path class="cls-11" d="M844.15,502.56H879a2,2,0,0,0,2-1.33,3.64,3.64,0,0,0,.16-1.19c0-3.46,0-6.92,0-10.38,0-.15,0-.3,0-.53C869.65,496.08,857.17,500,844.15,502.56Z"/><path class="cls-11" d="M858.3,488.79a3.91,3.91,0,1,0-3.9-4A3.95,3.95,0,0,0,858.3,488.79Z"/><path class="cls-11" d="M839.4,482a3.48,3.48,0,0,0-.85-.45,6.38,6.38,0,0,0-2-.26h-1.1c-.33,0-.45.11-.45.44q0,3.07,0,6.16c0,.29.1.42.41.41.78,0,1.57,0,2.35,0a3.5,3.5,0,0,0,3-2.58A3.42,3.42,0,0,0,839.4,482Zm-.34,4a2.35,2.35,0,0,1-2.44,1.1c-.09,0-.24-.24-.25-.37s0-.32,0-.48v-2.85c0-.16,0-.32,0-.48s.15-.36.25-.37a2.35,2.35,0,0,1,2.3.9A2.32,2.32,0,0,1,839.06,485.94Z"/><path class="cls-11" d="M873.86,487.53c0,.74,0,.74.73.74s.66,0,.66-.66v-2.07l.15,0c.11.14.22.27.32.41l1.15,1.7a1.57,1.57,0,0,0,2.06.51l-2.06-2.74a2,2,0,0,1,.2-.14,1.92,1.92,0,0,0,1.3-2.34,1.94,1.94,0,0,0-1.91-1.6c-.7-.05-1.4,0-2.1-.05-.4,0-.51.13-.51.52C873.87,483.69,873.86,485.61,873.86,487.53Zm1.68-5.14a1.18,1.18,0,0,1,1.36.68,1,1,0,0,1-.46,1.25l-.14.06c-.81.3-1,.15-1-.71v-.25a.75.75,0,0,1,0-.15C875.35,483,875,482.52,875.54,482.39Z"/><path class="cls-11" d="M869,487.87c0,.26.07.4.36.4,1.07,0,2.14,0,3.21,0a.46.46,0,0,0,.32-.3,5.3,5.3,0,0,0,0-.91h-2.52c0-.52,0-1,0-1.42s.13-.43.44-.42c.54,0,1.07,0,1.61,0,.12,0,.31-.08.35-.17.26-.6,0-1-.66-1h-.7c-1.15,0-1,.22-1-1.08,0-.36.14-.46.47-.45.67,0,1.33,0,2.06,0,0-.27,0-.48,0-.69,0-.38-.07-.54-.49-.53-1,0-2,0-3,0-.29,0-.43.09-.43.4Q869,484.77,869,487.87Z"/><path class="cls-11" d="M846.28,488.46a2.24,2.24,0,0,0,1.93-2,2,2,0,0,0-1.39-2.28c-.42-.19-.87-.34-1.28-.56a.64.64,0,0,1,0-1.18,1.16,1.16,0,0,1,1.19,0c.17.09.33.21.54.35L848,482a2.87,2.87,0,0,0-2.69-.72,2,2,0,0,0-1.57,1.85,1.72,1.72,0,0,0,1.24,1.84c.4.17.82.31,1.21.49a.9.9,0,0,1,.6,1.08,1,1,0,0,1-1,.72,1.78,1.78,0,0,1-1.51-.91,5,5,0,0,1-.5.46c-.39.28-.34.53,0,.85A2.76,2.76,0,0,0,846.28,488.46Z"/><path class="cls-11" d="M864.43,488c.1.25.18.47.54.48s.48-.19.6-.47l2.17-5.17c.21-.5.41-1,.62-1.51-1.09-.33-1.42-.18-1.8.77l-.15.37L865,485.93l-.31-.71c-.47-1.18-.93-2.36-1.41-3.53-.06-.16-.23-.38-.37-.4a9,9,0,0,0-1.29,0c.12.3.18.49.25.67Z"/><path class="cls-11" d="M853.75,488.22a.58.58,0,0,0,.32-.37,8.8,8.8,0,0,0,0-1.13,10.4,10.4,0,0,1-1.87.46,1.88,1.88,0,0,1-1.7-.88,2.57,2.57,0,0,1,.11-3.07c.81-1,1.71-1,3.46-.13a8.34,8.34,0,0,1,0-1c.06-.45-.18-.63-.55-.75a3.79,3.79,0,0,0-3,.27,3.67,3.67,0,0,0-1.61,4.74A3.74,3.74,0,0,0,853.75,488.22Z"/><path class="cls-11" d="M791.24,486.77c.22,0,.43,0,.65,0,.53,0,1.16.2,1.4-.59l.06.52a.42.42,0,0,0,.15.06c3.66,0,7.31,0,11,0,.11,0,.31-.22.32-.36,0-.46,0-.93,0-1.39,0-.11.11-.21.17-.31.07.1.19.19.2.29a9.61,9.61,0,0,1,0,1.2c0,.44.1.61.58.6,1.61,0,3.23,0,4.84,0,.31,0,.61,0,.61-.46a9.8,9.8,0,0,0,3.82.47c.61,0,1-.13,1.11-.74s.37-.55.82-.58c.64-.06.75.35.88.77a.68.68,0,0,0,.8.54c1.09,0,2.19,0,3.29,0,.9,0,.9,0,1-.9,0,0,0,0,.09-.08a5.15,5.15,0,0,1,.37.58.68.68,0,0,0,.71.41c1,0,2,0,3,0,.3,0,.41-.1.41-.41q0-3.62,0-7.23c0-.33-.12-.44-.44-.44-.83,0-1.66,0-2.49,0a1.56,1.56,0,0,0-.69,0c-.16.1-.22.37-.36.65-.18-.73-.7-.72-1.26-.7-.76,0-1.53,0-2.29,0-.44,0-.86,0-.84.68-.22-.84-.82-.67-1.35-.67-1.2,0-2.4,0-3.59,0-1,0-1.94.15-2.88.22a2.56,2.56,0,0,0-.66-.22q-1.27,0-2.55,0a3.47,3.47,0,0,0-.77.22,9.31,9.31,0,0,0-1.46-.22c-4.25,0-8.51,0-12.76,0a.58.58,0,0,0-.64.42c-.18.5-.42,1-.7,1.61-.27-.6-.51-1.05-.68-1.53a.68.68,0,0,0-.78-.5c-.95,0-1.9,0-2.84,0-.44,0-1-.14-.86.52-.26-.17-.51-.48-.78-.5-.95-.06-1.9,0-2.84,0a.71.71,0,0,0-.51.35c-.42.88-.76,1.81-1.2,2.68-.59,1.16-.23,2.36-.28,3.57a1,1,0,0,0,.27-.39c.51-1.19,1-2.38,1.53-3.58.61-1.47.6-1.46,2.18-1.46a.61.61,0,0,1,.66.44c.6,1.45,1.23,2.9,1.85,4.35.06.14.14.27.21.4a.62.62,0,0,0,.09-.34c0-1.46,0-2.93,0-4.39,0-.35.09-.48.45-.46a10,10,0,0,0,1.34,0,.58.58,0,0,1,.63.42c.42,1,.87,1.91,1.3,2.86.08.17.18.33.33.58.52-1.22,1-2.33,1.45-3.45a.54.54,0,0,1,.59-.41,12.89,12.89,0,0,0,1.39,0c.38,0,.49.14.48.5,0,1.36,0,2.73,0,4.09s0,1.23-1.26,1.13l-.14-.08v-4.07l-.12,0c-.07.14-.15.27-.21.41-.5,1.12-1,2.24-1.48,3.37a.62.62,0,0,1-.73.43c-.36,0-.68.06-.87-.43-.43-1.12-.95-2.2-1.43-3.29-.07-.15-.15-.3-.23-.45l-.14,0v4.13h-1.9c-1,0-.81.14-1.19-.82a.62.62,0,0,0-.7-.47c-.66,0-1.33,0-2,0a.69.69,0,0,0-.51.32,1.11,1.11,0,0,1-1.47.95c-.48-.09-.45.24-.45.55s0,.65.48.6c.34,0,.69,0,1,0,1.05,0,.79.14,1.17-.78a.72.72,0,0,1,.76-.52c.5,0,.77.14.88.63s.43.72,1,.69c1-.06,2.06,0,3.09,0,.41,0,.93.16.91-.64C790.36,486.78,790.78,486.8,791.24,486.77Zm19.5-4.77a2.24,2.24,0,0,1,2.27-2.09c.46,0,.93,0,1.39,0s.38.35.39.62.07.6-.39.57a8.34,8.34,0,0,0-1,0,1.17,1.17,0,0,0-1.29,1.12,4.24,4.24,0,0,0,0,1.33,1.33,1.33,0,0,0,1.75.84.73.73,0,0,0,.28-.38c.54-1.24,1.07-2.47,1.58-3.72a.56.56,0,0,1,.59-.4c1.62,0,1.62,0,2.26,1.48.46,1.09.92,2.17,1.39,3.25a.76.76,0,0,0,.29.37c0-.17,0-.34,0-.51,0-1.37,0-2.73,0-4.09,0-.37.11-.5.48-.5,1.6,0,1.6,0,2.43,1.35.48.79,1,1.59,1.45,2.38,0,0,.05,0,.13.07a2.46,2.46,0,0,0,0-.37c0-1,0-2,0-3,0-.32.1-.44.43-.44,1.13,0,1-.07,1,.91,0,1.45,0,2.89,0,4.34,0,.36-.1.49-.48.5-1.45,0-1.44,0-2.19-1.22-.49-.83-1-1.66-1.49-2.48-.08-.14-.17-.27-.26-.4l-.1,0c0,.18,0,.35,0,.52,0,1,0,2.06,0,3.09,0,.35-.11.47-.45.46-.63,0-1.27,0-1.9,0a.52.52,0,0,1-.61-.44c-.14-.75-.61-1-1.32-.86a2.36,2.36,0,0,1-.65,0c-.83-.11-1.5,0-1.67,1a.42.42,0,0,1-.3.25,13.33,13.33,0,0,1-2.19-.08,2.07,2.07,0,0,1-1.85-2A6.19,6.19,0,0,1,810.74,482Zm-1.7-2.12c1.16,0,.94-.09,1,.9,0,1.58,0,3.16,0,4.8h-1.35a1.88,1.88,0,0,1,0-.31c0-1.64,0-3.29,0-4.93C808.59,480,808.69,479.87,809,479.88Zm-6.7.07c1.42,0,2.81,0,4.2,0a1.24,1.24,0,0,1,1.17.94,1.68,1.68,0,0,1-.44,1.75c-.1.1-.21.19-.36.32,1.18.61.73,1.66.81,2.59a2.16,2.16,0,0,1-.29,0c-1,.06-1,.06-1.06-.95s-.25-1.11-1.14-1.14c-.37,0-.73,0-1.1,0s-.49.11-.47.46,0,.83,0,1.24-.11.43-.41.41-.59,0-.91,0Zm-5.1-.07c1.17,0,2.33,0,3.49,0,.48,0,.63.15.57.59a5.53,5.53,0,0,0,0,.58c-.93,0-1.8,0-2.66,0-.38,0-.56.06-.56.51s.15.58.58.56c.7,0,1.4,0,2.09,0,.52,0,.45.3.46.62s0,.59-.46.57c-.7,0-1.4,0-2.09,0-.5,0-.57.19-.58.61s.14.62.6.6c.84,0,1.69,0,2.58,0v1.1h-4.52v-1.15c0-1.34,0-2.69,0-4C796.73,480,796.86,479.87,797.24,479.88Z"/><path class="cls-11" d="M825.51,488.88a.93.93,0,0,0-.51-.28c-.63,0-1.27,0-1.9,0a7.4,7.4,0,0,0-2.93.26,1.43,1.43,0,0,0-.66-.26c-1.89,0-3.79,0-5.68,0a3.26,3.26,0,0,0-.75.25,10.43,10.43,0,0,0-1.57-.24c-1.33,0-2.66,0-4,0a2.67,2.67,0,0,0-.62.21c-.63-.07-1.3-.19-2-.21-1.43,0-2.86,0-4.29,0a1.33,1.33,0,0,0-.76.33,6.79,6.79,0,0,0-.82.86,7,7,0,0,1-.65-.74,1.15,1.15,0,0,0-1.06-.48c-2.05,0-4.09,0-6.14,0l-.58,0v8a1.12,1.12,0,0,0,.22.05c2.24,0,4.48,0,6.73,0a1,1,0,0,0,.54-.28c.31-.29.59-.61.9-.94a9.26,9.26,0,0,0,.86.95.92.92,0,0,0,.59.27c1.23,0,2.46,0,3.69,0,.36,0,.46-.13.44-.47s0-.92,0-1.36l2.33-.22c0,.54,0,1.08,0,1.62,0,.28.08.43.4.43h2.94c.28,0,.38-.12.37-.39,0-.45,0-.9,0-1.35,0-.11.14-.21.21-.32.06.1.17.2.17.31a7.23,7.23,0,0,1,0,1.14c0,.5.16.62.63.61,3.22,0,6.44,0,9.67,0a6.14,6.14,0,0,0,2.7-.33,1,1,0,0,0,.59.32c1.13,0,2.26,0,3.39,0a6,6,0,0,0,1.32-.21.63.63,0,0,0,.37-.38,8.84,8.84,0,0,0,0-1.16,2.93,2.93,0,0,1-2.11.61c-.63,0-1.27,0-1.9,0-.42,0-.54-.14-.52-.55s0-.69.51-.66,1.4,0,2.1,0c.36,0,.75-.07.74-.54s-.36-.5-.71-.52-.8,0-1.2-.06a1.59,1.59,0,0,1-1.61-1.72,1.66,1.66,0,0,1,1.71-1.66c.8,0,1.59,0,2.39,0h.61a4.55,4.55,0,0,0,0-.84c0-.12-.2-.31-.31-.31C828.07,488.66,826.74,488.37,825.51,488.88Zm-19.64,4.61a15.4,15.4,0,0,1-2,.09c-.33,0-.48.1-.46.45s0,.7,0,1.05-.08.43-.39.43c-.67,0-1.33,0-2,0a.93.93,0,0,1-.54-.29c-.47-.49-.91-1-1.43-1.59-.52.56-1,1.09-1.47,1.57a1.1,1.1,0,0,1-.67.31c-1.51,0-3,0-4.54,0-.3,0-.5,0-.49-.43,0-1.67,0-3.35,0-5a1.76,1.76,0,0,1,0-.25c.15,0,.31,0,.47,0,1.51,0,3,0,4.53,0a.87.87,0,0,1,.76.35c.43.51.88,1,1.38,1.55.48-.52.94-1,1.36-1.49a1.08,1.08,0,0,1,1-.41c1.26,0,2.52,0,3.78,0a3.92,3.92,0,0,1,.84.08,1.66,1.66,0,0,1,1.48,1.87A1.63,1.63,0,0,1,805.87,493.49Zm7.66,1.7a.44.44,0,0,1-.28.3c-.94.17-1.06.06-1.08-.86s-.21-1.18-1.16-1.2c-.38,0-.76,0-1.14,0s-.43.11-.42.41,0,.83,0,1.24-.1.47-.43.44h-.25c-.66,0-.66,0-.66-.64v-5.07c1.35,0,2.61,0,3.87,0a1.46,1.46,0,0,1,1.52,1,1.67,1.67,0,0,1-.82,2C813.74,493.38,813.53,494.32,813.53,495.19Zm5.42.05a.37.37,0,0,1-.28.25c-1.31,0-2.63,0-3.94,0a.44.44,0,0,1-.3-.28c0-1.79,0-3.58,0-5.42h4.51v1.14h-1.16c-.51,0-1,0-1.54,0s-.5.19-.5.55,0,.58.48.56c.67,0,1.33,0,2,0s.67,0,.66.69c0,.13,0,.26,0,.46-.84,0-1.66,0-2.48,0-.2,0-.53.06-.56.15a2.17,2.17,0,0,0,0,.88c0,.07.29.12.44.12H819A6.66,6.66,0,0,1,819,495.24Zm4.17.2c-1,.08-2,.06-3,.05a.42.42,0,0,1-.3-.28,6.58,6.58,0,0,1,0-.9H822a1.51,1.51,0,0,0,.64,0,1,1,0,0,0,.48-.51c.08-.32-.2-.47-.49-.49-.46,0-.93,0-1.39-.1a1.61,1.61,0,0,1-1.56-2.07,1.58,1.58,0,0,1,1.56-1.3c1-.05,2,0,3,0,0,.07,0,.11.06.16.12,1,.1,1-.91,1-.56,0-1.13,0-1.69,0-.32,0-.62.1-.62.5s.3.49.61.52.9,0,1.35.05a1.44,1.44,0,0,1,1.54,1.53C824.6,494.66,824.1,495.37,823.12,495.44Z"/><path class="cls-11" d="M829.5,491c-.92,0-1.83,0-2.74.05-.12,0-.29.28-.31.44a.5.5,0,0,0,.26.41,3.23,3.23,0,0,0,.88.13,3.07,3.07,0,0,1,2.1.57c0-.55,0-1,0-1.37C829.68,491.16,829.56,491,829.5,491Z"/><path class="cls-11" d="M784.42,481h-.13c-.27.68-.55,1.36-.86,2.13h1.85Z"/><path class="cls-11" d="M692,500.19a12.05,12.05,0,0,0,9-2.71c.31-.26.49-.29.82,0a12,12,0,0,0,11.41,2.24A12.4,12.4,0,0,0,722,488c-.14-1-.2-1.94-.43-2.88a12.28,12.28,0,0,0-19.8-6.6c-.29.23-.44.2-.71,0a12,12,0,0,0-10.26-2.58,12.31,12.31,0,0,0,1.2,24.31Zm-10.77-12.62a12,12,0,0,1,9.87-11.44,12.14,12.14,0,0,1,14,9.57c.18-.2.31-.36.45-.49a2.77,2.77,0,0,1,3.17-.43c.09,0,.16.23.17.35a3.9,3.9,0,0,1-.06.63c1.17-.27,2.29-.61,3.29.51,0-.84.58-.64,1-.66a10.11,10.11,0,0,1,1.23,0,2.65,2.65,0,0,1,.76.29,1.68,1.68,0,0,1,1.91-.07,6.92,6.92,0,0,0,.16-.79c0-.28.14-.42.44-.41s.82,0,1.32,0c-.08.58-.14,1.1-.23,1.61-.21,1.32-.45,2.63-.65,4-.05.35-.2.41-.51.41-.63,0-1.25,0-1.88,0a1.74,1.74,0,0,1-1.74-1.83c0-.42,0-.84,0-1.27-.59.93-.47,2.05-.8,3.08H710.4a2.54,2.54,0,0,0-.39,0c-1,.15-1.12.13-1.85-.55,0,.45-.32.56-.69.63a2.7,2.7,0,0,1-2.38-.57A12,12,0,0,1,697.9,499a11.43,11.43,0,0,1-8.08.44A11.93,11.93,0,0,1,681.25,487.57Z"/><path d="M766.56,485.62c-.49,1.32-1,2.65-1.51,4.05h2.52c-.3-1.39-.58-2.73-.87-4.07Z"/><path d="M836.63,482.49c-.1,0-.25.24-.25.37s0,.32,0,.48v2.85c0,.16,0,.32,0,.48s.16.36.25.37a2.35,2.35,0,0,0,2.44-1.1,2.32,2.32,0,0,0-.13-2.55A2.35,2.35,0,0,0,836.63,482.49Z"/><path d="M875.26,483.27a.75.75,0,0,0,0,.15v.25c0,.86.23,1,1,.71l.14-.06a1,1,0,0,0,.46-1.25,1.18,1.18,0,0,0-1.36-.68C875,482.52,875.35,483,875.26,483.27Z"/><path d="M812.58,485.52a13.33,13.33,0,0,0,2.19.08.42.42,0,0,0,.3-.25c.17-1,.84-1.13,1.67-1a2.36,2.36,0,0,0,.65,0c.71-.12,1.18.11,1.32.86a.52.52,0,0,0,.61.44c.63,0,1.27,0,1.9,0,.34,0,.46-.11.45-.46,0-1,0-2.06,0-3.09,0-.17,0-.34,0-.52l.1,0c.09.13.18.26.26.4.5.82,1,1.65,1.49,2.48.75,1.25.74,1.23,2.19,1.22.38,0,.49-.14.48-.5,0-1.45,0-2.89,0-4.34,0-1,.18-.89-1-.91-.33,0-.44.12-.43.44,0,1,0,2,0,3a2.46,2.46,0,0,1,0,.37c-.08,0-.12-.05-.13-.07-.49-.79-1-1.59-1.45-2.38-.83-1.38-.83-1.37-2.43-1.35-.37,0-.48.13-.48.5,0,1.36,0,2.72,0,4.09,0,.17,0,.34,0,.51a.76.76,0,0,1-.29-.37c-.47-1.08-.93-2.16-1.39-3.25-.64-1.51-.64-1.5-2.26-1.48a.56.56,0,0,0-.59.4c-.51,1.25-1,2.48-1.58,3.72a.73.73,0,0,1-.28.38,1.33,1.33,0,0,1-1.75-.84,4.24,4.24,0,0,1,0-1.33,1.17,1.17,0,0,1,1.29-1.12,8.34,8.34,0,0,1,1,0c.46,0,.4-.29.39-.57s.12-.64-.39-.62-.93,0-1.39,0a2.24,2.24,0,0,0-2.27,2.09,6.19,6.19,0,0,0,0,1.49A2.07,2.07,0,0,0,812.58,485.52Zm4.36-4.73,1,2.29H816C816.32,482.34,816.6,481.64,816.94,480.79Z"/><path d="M803.25,485.62c.3,0,.42-.1.41-.41s0-.83,0-1.24.13-.48.47-.46.73,0,1.1,0c.89,0,1.1.25,1.14,1.14s0,1,1.06.95a2.16,2.16,0,0,0,.29,0c-.08-.93.37-2-.81-2.59.15-.13.26-.22.36-.32a1.68,1.68,0,0,0,.44-1.75,1.24,1.24,0,0,0-1.17-.94c-1.39-.06-2.78,0-4.2,0v5.67C802.66,485.62,803,485.6,803.25,485.62Zm1-4.58a11.78,11.78,0,0,0,1.19,0q.9,0,.87.66c0,.42-.31.63-.9.64h-1c-.72,0-.69,0-.73-.69C803.6,481.18,803.74,481,804.23,481Z"/><path d="M796.74,484.42v1.15h4.52v-1.1c-.89,0-1.74,0-2.58,0-.46,0-.61-.14-.6-.6s.08-.64.58-.61c.69,0,1.39,0,2.09,0,.46,0,.47-.24.46-.57s.06-.64-.46-.62c-.69,0-1.39,0-2.09,0-.43,0-.58-.11-.58-.56s.18-.52.56-.51c.86,0,1.73,0,2.66,0a5.53,5.53,0,0,1,0-.58c.06-.44-.09-.61-.57-.59-1.16,0-2.32,0-3.49,0-.38,0-.51.09-.51.5C796.76,481.73,796.74,483.08,796.74,484.42Z"/><path d="M808.6,485.27a1.88,1.88,0,0,0,0,.31H810c0-1.64,0-3.22,0-4.8,0-1,.21-.87-1-.9-.35,0-.45.11-.45.46C808.6,482,808.6,483.63,808.6,485.27Z"/><path d="M806,489.85a3.92,3.92,0,0,0-.84-.08c-1.26,0-2.52,0-3.78,0a1.08,1.08,0,0,0-1,.41c-.42.5-.88,1-1.36,1.49-.5-.56-.95-1-1.38-1.55a.87.87,0,0,0-.76-.35c-1.51,0-3,0-4.53,0-.16,0-.32,0-.47,0a1.76,1.76,0,0,0,0,.25c0,1.68,0,3.36,0,5,0,.39.19.43.49.43,1.52,0,3,0,4.54,0a1.1,1.1,0,0,0,.67-.31c.5-.48,1-1,1.47-1.57.52.58,1,1.1,1.43,1.59a.93.93,0,0,0,.54.29c.66,0,1.32,0,2,0,.31,0,.4-.14.39-.43s0-.7,0-1.05.13-.45.46-.45a15.4,15.4,0,0,0,2-.09,1.63,1.63,0,0,0,1.58-1.77A1.66,1.66,0,0,0,806,489.85Zm-8.07,3.06c-.39.41-.76.84-1.16,1.23a.84.84,0,0,1-.53.19c-.81,0-1.63,0-2.44,0-.49,0-.68-.13-.6-.61,0-.16,0-.33,0-.56h2.93V492c-.8,0-1.59,0-2.39,0-.41,0-.59-.09-.59-.55s.15-.58.58-.57c.81,0,1.63,0,2.44,0a1.32,1.32,0,0,1,.76.34,14,14,0,0,1,1,1.07A.34.34,0,0,1,797.9,492.91ZM802,495l-.87-1c-.33-.37-.67-.74-1-1.12-.08-.1-.13-.35-.07-.42.59-.68,1.21-1.34,1.83-2l.1.07Zm4-3.35c-.05.26-.26.67-.46.71a12.87,12.87,0,0,1-2,.1c-.06,0-.14-.12-.19-.19a.68.68,0,0,1,0-.15c-.11-1.16-.11-1.17,1.15-1.19.31,0,.63,0,.93.08S806,491.28,806,491.63Z"/><path d="M813.51,490.79a1.46,1.46,0,0,0-1.52-1c-1.26,0-2.52,0-3.87,0v5.07c0,.64,0,.64.66.64H809c.33,0,.44-.12.43-.44s0-.83,0-1.24.12-.42.42-.41.76,0,1.14,0c1,0,1.15.23,1.16,1.2s.14,1,1.08.86a.44.44,0,0,0,.28-.3c0-.87.21-1.81-.84-2.35A1.67,1.67,0,0,0,813.51,490.79Zm-2.08,1.43h-.8v0h-.45c-.7,0-.68,0-.71-.71,0-.45.12-.64.59-.61s.93,0,1.4,0,.69.2.67.64S811.83,492.21,811.43,492.22Z"/><path d="M816.24,494.33c-.15,0-.42-.05-.44-.12a2.17,2.17,0,0,1,0-.88c0-.09.36-.15.56-.15.82,0,1.64,0,2.48,0,0-.2,0-.33,0-.46,0-.68,0-.68-.66-.69s-1.33,0-2,0c-.44,0-.47-.22-.48-.56s.08-.57.5-.55,1,0,1.54,0h1.16v-1.14h-4.51c0,1.84,0,3.63,0,5.42a.44.44,0,0,0,.3.28c1.31,0,2.63,0,3.94,0a.37.37,0,0,0,.28-.25,6.66,6.66,0,0,0,0-.9Z"/><path d="M823,492.06c-.45,0-.9,0-1.35-.05s-.61-.13-.61-.52.3-.49.62-.5c.56,0,1.13,0,1.69,0,1,0,1,0,.91-1,0-.05,0-.09-.06-.16-1,0-2,0-3,0a1.58,1.58,0,0,0-1.56,1.3,1.61,1.61,0,0,0,1.56,2.07c.46.05.93.05,1.39.1.29,0,.57.17.49.49a1,1,0,0,1-.48.51,1.51,1.51,0,0,1-.64,0h-2.19a6.58,6.58,0,0,0,0,.9.42.42,0,0,0,.3.28c1,0,2,0,3-.05s1.48-.78,1.46-1.85A1.44,1.44,0,0,0,823,492.06Z"/><path d="M689.82,499.44a11.43,11.43,0,0,0,8.08-.44,12,12,0,0,0,7.19-8.91,2.7,2.7,0,0,0,2.38.57c.37-.07.67-.18.69-.63.73.68.83.7,1.85.55a2.54,2.54,0,0,1,.39,0h2.75c.33-1,.21-2.15.8-3.08,0,.43,0,.85,0,1.27a1.74,1.74,0,0,0,1.74,1.83c.63,0,1.25,0,1.88,0,.31,0,.46-.06.51-.41.2-1.33.44-2.64.65-4,.09-.51.15-1,.23-1.61-.5,0-.91,0-1.32,0s-.41.13-.44.41a6.92,6.92,0,0,1-.16.79,1.68,1.68,0,0,0-1.91.07,2.65,2.65,0,0,0-.76-.29,10.11,10.11,0,0,0-1.23,0c-.45,0-1-.18-1,.66-1-1.12-2.12-.78-3.29-.51a3.9,3.9,0,0,0,.06-.63c0-.12-.08-.31-.17-.35a2.77,2.77,0,0,0-3.17.43c-.14.13-.27.29-.45.49a12.14,12.14,0,0,0-14-9.57,12,12,0,0,0-1.3,23.31ZM717,486.1a1.07,1.07,0,0,0,.26.12c.06-.32.12-.61.18-.89.1-.48.32-.6,1-.48.47.1.21.45.18.68-.21,1.37-.44,2.73-.66,4.1a.78.78,0,0,1-1.2.61.6.6,0,0,0-.41-.05,1.41,1.41,0,0,1-2.06-1.14,3.17,3.17,0,0,1,.59-2.54A1.48,1.48,0,0,1,717,486.1Zm-4.6.24c0-.24.05-.5.38-.46s.72-.23.8.32l.84-.43.11.13c-.11.35-.21.71-.32,1.07,0,0,0,.11-.07.12-.88.27-.73,1.07-.9,1.7a5.41,5.41,0,0,0-.16,1c0,.47-.25.68-.73.6a3.93,3.93,0,0,0-.52,0c.1-.73.19-1.41.28-2.09S712.3,487,712.4,486.34Zm-2.45-.56a5.46,5.46,0,0,1,.7,0,1.27,1.27,0,0,1,1.32,1.49c-.08.88-.22,1.74-.36,2.61,0,.16-.16.43-.26.44-.29,0-.67.21-.87-.22a6.44,6.44,0,0,1-.72.3,1.14,1.14,0,0,1-1.45-1.3,1.67,1.67,0,0,1,1.73-1.61c.25,0,.49,0,.73,0,.15-.51-.14-.63-.48-.63s-.88.05-1.36.09C709,485.93,709,485.87,710,485.78Zm.17,1.29a2.68,2.68,0,0,0-2.06,1.51c-.12.27-.76.4-1.17.43a.66.66,0,0,1-.65-.73,3.55,3.55,0,0,1,.15-1.26,1.2,1.2,0,0,1,2.08-.41c.13.15.11.44.17.71Zm-4.7-1.32a2.46,2.46,0,0,1,3-.83c.1.05.23.18.22.27,0,.33-.07.64-.12,1l-.68-.22a1.2,1.2,0,0,0-1.4.48,2.36,2.36,0,0,0-.37,2.12,1.05,1.05,0,0,0,1.35.68,4.48,4.48,0,0,0,.52-.16c.21,1,0,1.32-1,1.35a1.87,1.87,0,0,1-2.11-1.65A3.75,3.75,0,0,1,705.42,485.75Zm-2.66.54c0-.26.12-.47.43-.41s.7-.21.74.32l.86-.43.11.13c-.28.44-.1,1-.75,1.39-.32.18-.4.86-.53,1.32s-.14.92-.23,1.37-.41.5-1,.38c-.39-.07-.22-.36-.19-.55C702.37,488.64,702.57,487.46,702.76,486.29Zm-2.73-.45a1.58,1.58,0,0,1,2.15,1.49,8.1,8.1,0,0,1-.13,1.15c-.7,0-1.34,0-2,0-.13,0-.34.05-.37.14s0,.35.11.39a2.77,2.77,0,0,0,1,.33,4.39,4.39,0,0,0,1.06-.16c.08.89-.11,1.15-.92,1.22a2,2,0,0,1-2.11-.77,2.71,2.71,0,0,1,0-2.74A2,2,0,0,1,700,485.84Zm-3.67,3.59c.15-1.34.38-2.67.6-4a.35.35,0,0,1,.26-.22,8.58,8.58,0,0,1,.88,0v.61l.49.12a6.31,6.31,0,0,1-.1.76.34.34,0,0,1-.24.23c-.37,0-.43.22-.46.51a9.53,9.53,0,0,1-.17,1.07c-.15.52,0,.8.54.8.11.8,0,1-.7,1S696.29,490.08,696.36,489.43Zm-1.63-.77a1,1,0,0,0-.34-.2,1.41,1.41,0,0,1,.47-2.67,5.22,5.22,0,0,1,.79,0c.7,0,.72.06.61.75,0,.31-.19.34-.46.35s-.84.06-.91.24c-.17.41.34.46.6.62a1.3,1.3,0,0,1,.64,1.43,1.25,1.25,0,0,1-1,1.14,7,7,0,0,1-.77.08l-.56,0c-.61-.05-.77-.31-.51-.88a.52.52,0,0,1,.39-.15c.31,0,.62.05.93,0a.46.46,0,0,0,.34-.27C695,488.93,694.84,488.77,694.73,488.66Zm-3-1.8a11.07,11.07,0,0,0-1.28.06h-.18c-.09-.78,0-.94.7-1.09a3.32,3.32,0,0,1,.44-.06c1.36-.13,2.1.52,1.82,1.92-.13.65-.18,1.31-.29,2,0,.23-.11.6-.23.63a3.77,3.77,0,0,1-1,0v-.15l-.13.07c-.77.43-1.44.34-1.8-.23a1.6,1.6,0,0,1,.42-2,7.24,7.24,0,0,1,1.48-.44,3.3,3.3,0,0,0,.43-.19C692,487.12,691.91,486.87,691.77,486.86Zm-6.43-1.67c0-.12.12-.3.19-.31a11.4,11.4,0,0,1,1.43,0c.06,0,.15.27.15.41,0,.81,0,1.62,0,2.43l.14,0c.19-.55.39-1.09.58-1.63.44-1.35.44-1.35,1.85-1.29.11,0,.23,0,.4,0-.14.91-.28,1.8-.43,2.69-.11.7-.28,1.4-.34,2.1-.05.53-.28.68-.76.62-.16,0-.32,0-.54,0,.18-1.17.35-2.3.53-3.43l-.08,0c-.37,1-.77,2-1.1,3.06a.56.56,0,0,1-.71.42c-.4,0-.28-.36-.28-.57,0-1,0-1.91,0-2.86h-.18c-.15.87-.31,1.72-.44,2.59s-.3,1-1.26.74C684.77,488.54,685.05,486.86,685.34,485.19Z"/><path class="cls-11" d="M816.94,480.79c-.34.85-.62,1.55-.91,2.29h1.87Z"/><path class="cls-11" d="M804.35,482.35h1c.59,0,.89-.22.9-.64s-.27-.64-.87-.66a11.78,11.78,0,0,1-1.19,0c-.49-.05-.63.14-.61.62C803.66,482.35,803.63,482.35,804.35,482.35Z"/><path class="cls-11" d="M796.93,491.29a1.32,1.32,0,0,0-.76-.34c-.81-.05-1.63,0-2.44,0-.43,0-.57.13-.58.57s.18.56.59.55c.8,0,1.59,0,2.39,0v1.15H793.2c0,.23,0,.4,0,.56-.08.48.11.64.6.61.81,0,1.63,0,2.44,0a.84.84,0,0,0,.53-.19c.4-.39.77-.82,1.16-1.23a.34.34,0,0,0,0-.55A14,14,0,0,0,796.93,491.29Z"/><path class="cls-11" d="M800.06,492.49c-.06.07,0,.32.07.42.32.38.66.75,1,1.12l.87,1v-4.42l-.1-.07C801.27,491.15,800.65,491.81,800.06,492.49Z"/><path class="cls-11" d="M805.42,491c-.3-.05-.62-.06-.93-.08-1.26,0-1.26,0-1.15,1.19a.68.68,0,0,0,0,.15c0,.07.13.19.19.19a12.87,12.87,0,0,0,2-.1c.2,0,.41-.45.46-.71S805.78,491,805.42,491Z"/><path class="cls-11" d="M811.46,491c-.47,0-.94,0-1.4,0s-.6.16-.59.61c0,.71,0,.71.71.71h.45v0h.8c.4,0,.69-.21.7-.62S811.84,491,811.46,491Z"/><path class="cls-11" d="M685.75,489.47c.13-.87.29-1.72.44-2.59h.18c0,.95,0,1.91,0,2.86,0,.21-.12.53.28.57a.56.56,0,0,0,.71-.42c.33-1,.73-2,1.1-3.06l.08,0c-.18,1.13-.35,2.26-.53,3.43.22,0,.38,0,.54,0,.48.06.71-.09.76-.62.06-.7.23-1.4.34-2.1.15-.89.29-1.78.43-2.69-.17,0-.29,0-.4,0-1.41-.06-1.41-.06-1.85,1.29-.19.54-.39,1.08-.58,1.63l-.14,0c0-.81,0-1.62,0-2.43,0-.14-.09-.41-.15-.41a11.4,11.4,0,0,0-1.43,0c-.07,0-.17.19-.19.31-.29,1.67-.57,3.35-.85,5C685.45,490.49,685.61,490.39,685.75,489.47Z"/><path class="cls-11" d="M714.25,489.05a1.41,1.41,0,0,0,2.06,1.14.6.6,0,0,1,.41.05.78.78,0,0,0,1.2-.61c.22-1.37.45-2.73.66-4.1,0-.23.29-.58-.18-.68-.64-.12-.86,0-1,.48-.06.28-.12.57-.18.89a1.07,1.07,0,0,1-.26-.12,1.48,1.48,0,0,0-2.16.41A3.17,3.17,0,0,0,714.25,489.05Zm1.32-1.52a.75.75,0,0,1,.88-.63c.49.1.47.52.52,1.07a4,4,0,0,1-.39.93.8.8,0,0,1-.68.24.69.69,0,0,1-.42-.5A2.6,2.6,0,0,1,715.57,487.53Z"/><path class="cls-11" d="M690.25,487.89a1.6,1.6,0,0,0-.42,2c.36.57,1,.66,1.8.23l.13-.07v.15a3.77,3.77,0,0,0,1,0c.12,0,.19-.4.23-.63.11-.65.16-1.31.29-2,.28-1.4-.46-2.05-1.82-1.92a3.32,3.32,0,0,0-.44.06c-.68.15-.79.31-.7,1.09h.18a11.07,11.07,0,0,1,1.28-.06c.14,0,.26.26.39.4a3.3,3.3,0,0,1-.43.19A7.24,7.24,0,0,0,690.25,487.89Zm1.72.64c.09.35-.35.94-.72.89-.18,0-.33-.19-.57-.34.19-.27.27-.5.43-.57a2.33,2.33,0,0,1,.76-.13S692,488.47,692,488.53Z"/><path class="cls-11" d="M710.77,487.46c-.24,0-.48,0-.73,0a1.67,1.67,0,0,0-1.73,1.61,1.14,1.14,0,0,0,1.45,1.3,6.44,6.44,0,0,0,.72-.3c.2.43.58.23.87.22.1,0,.24-.28.26-.44.14-.87.28-1.73.36-2.61a1.27,1.27,0,0,0-1.32-1.49,5.46,5.46,0,0,0-.7,0c-.91.09-1,.15-1,1.14.48,0,.92-.09,1.36-.09S710.92,487,710.77,487.46Zm-.94,2a.67.67,0,0,1-.34-.53c0-.41.51-.6,1.13-.47C710.56,489.11,710.23,489.54,709.83,489.42Z"/><path class="cls-11" d="M698.82,489.64a2,2,0,0,0,2.11.77c.81-.07,1-.33.92-1.22a4.39,4.39,0,0,1-1.06.16,2.77,2.77,0,0,1-1-.33c-.09,0-.15-.28-.11-.39s.24-.14.37-.14c.64,0,1.28,0,2,0a8.1,8.1,0,0,0,.13-1.15,1.58,1.58,0,0,0-2.15-1.49,2,2,0,0,0-1.18,1.06A2.71,2.71,0,0,0,698.82,489.64Zm1.75-2.85c.4.08.51.36.43.76h-1.18C699.91,487,700.2,486.72,700.57,486.79Z"/><path class="cls-11" d="M704.81,488.81a1.87,1.87,0,0,0,2.11,1.65c.93,0,1.19-.37,1-1.35a4.48,4.48,0,0,1-.52.16,1.05,1.05,0,0,1-1.35-.68,2.36,2.36,0,0,1,.37-2.12,1.2,1.2,0,0,1,1.4-.48l.68.22c0-.38.11-.69.12-1,0-.09-.12-.22-.22-.27a2.46,2.46,0,0,0-3,.83A3.75,3.75,0,0,0,704.81,488.81Z"/><path class="cls-11" d="M694.6,489.32c-.31,0-.62,0-.93,0a.52.52,0,0,0-.39.15c-.26.57-.1.83.51.88l.56,0a7,7,0,0,0,.77-.08,1.25,1.25,0,0,0,1-1.14,1.3,1.3,0,0,0-.64-1.43c-.26-.16-.77-.21-.6-.62.07-.18.59-.22.91-.24s.41,0,.46-.35c.11-.69.09-.73-.61-.75a5.22,5.22,0,0,0-.79,0,1.41,1.41,0,0,0-.47,2.67,1,1,0,0,1,.34.2c.11.11.24.27.21.39A.46.46,0,0,1,694.6,489.32Z"/><path class="cls-11" d="M697.46,490.34c.67,0,.81-.25.7-1-.56,0-.69-.28-.54-.8a9.53,9.53,0,0,0,.17-1.07c0-.29.09-.52.46-.51a.34.34,0,0,0,.24-.23,6.31,6.31,0,0,0,.1-.76l-.49-.12v-.61a8.58,8.58,0,0,0-.88,0,.35.35,0,0,0-.26.22c-.22,1.34-.45,2.67-.6,4C696.29,490.08,696.75,490.4,697.46,490.34Z"/><path class="cls-11" d="M702.39,490.36c.59.12.92,0,1-.38s.11-.92.23-1.37.21-1.14.53-1.32c.65-.36.47-1,.75-1.39l-.11-.13-.86.43c0-.53-.47-.27-.74-.32s-.39.15-.43.41c-.19,1.17-.39,2.35-.56,3.52C702.17,490,702,490.29,702.39,490.36Z"/><path class="cls-11" d="M712.35,490.37c.48.08.7-.13.73-.6a5.41,5.41,0,0,1,.16-1c.17-.63,0-1.43.9-1.7,0,0,.06-.07.07-.12.11-.36.21-.72.32-1.07l-.11-.13-.84.43c-.08-.55-.51-.27-.8-.32s-.35.22-.38.46c-.1.63-.2,1.26-.29,1.9s-.18,1.36-.28,2.09A3.93,3.93,0,0,1,712.35,490.37Z"/><path class="cls-11" d="M706.39,487a3.55,3.55,0,0,0-.15,1.26.66.66,0,0,0,.65.73c.41,0,1.05-.16,1.17-.43a2.68,2.68,0,0,1,2.06-1.51l-1.48.25c-.06-.27,0-.56-.17-.71A1.2,1.2,0,0,0,706.39,487Z"/><path d="M715.9,489.14a.8.8,0,0,0,.68-.24A4,4,0,0,0,717,488c-.05-.55,0-1-.52-1.07a.75.75,0,0,0-.88.63,2.6,2.6,0,0,0-.09,1.11A.69.69,0,0,0,715.9,489.14Zm-.11-1.43a2.55,2.55,0,0,1,.58-.55l.4.58a4.3,4.3,0,0,1-.31.89.58.58,0,0,1-.46.26.55.55,0,0,1-.3-.41A1.42,1.42,0,0,1,715.79,487.71Z"/><path d="M690.68,489.08c.24.15.39.32.57.34.37.05.81-.54.72-.89,0-.06-.07-.15-.1-.15a2.33,2.33,0,0,0-.76.13C691,488.58,690.87,488.81,690.68,489.08Z"/><path d="M709.49,488.89a.67.67,0,0,0,.34.53c.4.12.73-.31.79-1C710,488.29,709.51,488.48,709.49,488.89Zm.43.26s-.12-.1-.19-.15l.42-.43.2.19A5.22,5.22,0,0,1,709.92,489.15Z"/><path d="M700.57,486.79c-.37-.07-.66.23-.75.76H701C701.08,487.15,701,486.87,700.57,486.79Z"/><path class="cls-11" d="M716,488.89a.58.58,0,0,0,.46-.26,4.3,4.3,0,0,0,.31-.89l-.4-.58a2.55,2.55,0,0,0-.58.55,1.42,1.42,0,0,0-.09.77A.55.55,0,0,0,716,488.89Z"/><path class="cls-11" d="M709.73,489c.07.05.18.16.19.15a5.22,5.22,0,0,0,.43-.39l-.2-.19Z"/><text class="cls-2" transform="translate(95.98 61.78) scale(0.97 1)">What is Sustainability?</text><rect class="cls-3" x="47.23" y="44.49" width="37.86" height="48.2"/><rect class="cls-3" x="94.98" y="79.34" width="12.91" height="13.35"/><rect class="cls-3" x="111.31" y="79.34" width="30.31" height="13.35"/><text class="cls-2" transform="translate(94.98 122.81) scale(0.97 1)">How can I c<tspan class="cls-12" x="124.3" y="0">r</tspan><tspan x="132.53" y="0">eate change?</tspan></text><rect class="cls-3" x="47.23" y="104.52" width="37.86" height="48.2"/><rect class="cls-3" x="94.98" y="139.37" width="12.91" height="13.35"/><rect class="cls-3" x="111.31" y="139.37" width="30.31" height="13.35"/><text class="cls-2" transform="translate(94.98 182.36) scale(0.97 1)">Why do I <tspan class="cls-13" x="99.01" y="0">f</tspan><tspan x="107.1" y="0">eel </tspan><tspan class="cls-14" x="144.58" y="0">r</tspan><tspan x="152.81" y="0">esponsible for change?</tspan></text><rect class="cls-3" x="47.23" y="164.08" width="37.86" height="48.2"/><rect class="cls-3" x="94.98" y="198.93" width="12.91" height="13.35"/><rect class="cls-3" x="111.31" y="198.93" width="30.31" height="13.35"/><text class="cls-2" transform="translate(94.98 242.39) scale(0.97 1)">Who is <tspan class="cls-12" x="78.97" y="0">r</tspan><tspan x="87.2" y="0">esponsible for sustainability?</tspan></text><rect class="cls-3" x="47.23" y="224.11" width="37.86" height="48.2"/><rect class="cls-3" x="94.98" y="258.96" width="12.91" height="13.35"/><rect class="cls-3" x="111.31" y="258.96" width="30.31" height="13.35"/><text class="cls-2" transform="translate(96.01 302.1) scale(0.97 1)">Who is accountable?</text><rect class="cls-3" x="48.26" y="283.81" width="37.86" height="48.2"/><rect class="cls-3" x="96.01" y="318.66" width="12.91" height="13.35"/><rect class="cls-3" x="112.35" y="318.66" width="30.31" height="13.35"/><text class="cls-2" transform="translate(96.01 362.13) scale(0.97 1)">Who is telling the truth?</text><rect class="cls-3" x="48.26" y="343.84" width="37.86" height="48.2"/><rect class="cls-3" x="96.01" y="378.69" width="12.91" height="13.35"/><rect class="cls-3" x="112.35" y="378.69" width="30.31" height="13.35"/><text class="cls-2" transform="translate(95.58 422.16) scale(0.97 1)"><tspan class="cls-15">A</tspan><tspan x="14.71" y="0">m I confused?</tspan></text><rect class="cls-3" x="47.83" y="403.87" width="37.86" height="48.2"/><rect class="cls-3" x="95.58" y="438.72" width="12.91" height="13.35"/><rect class="cls-3" x="111.91" y="438.72" width="30.31" height="13.35"/><text class="cls-2" transform="translate(95.58 481.71) scale(0.97 1)">A<tspan class="cls-12" x="15.27" y="0">r</tspan><tspan x="23.5" y="0">e we being confused?</tspan></text><rect class="cls-3" x="47.83" y="463.43" width="37.86" height="48.2"/><rect class="cls-3" x="95.58" y="498.28" width="12.91" height="13.35"/><rect class="cls-3" x="111.91" y="498.28" width="30.31" height="13.35"/><rect class="cls-1" x="0.5" y="1.41" width="636.69" height="597.44" rx="18.19"/></g></g></svg>