<svg xmlns="http://www.w3.org/2000/svg" viewBox="0 0 570.91 469.38"><defs><style>.cls-1{font-size:24px;font-family:Roboto-Bold, Roboto;font-weight:700;}.cls-1,.cls-2{fill:#f0ece8;}.cls-3{letter-spacing:-0.01em;}.cls-4{letter-spacing:-0.01em;}.cls-5{letter-spacing:-0.01em;}.cls-6{letter-spacing:-0.02em;}</style></defs><g id="Laag_2" data-name="Laag 2"><g id="Laag_4" data-name="Laag 4"><text class="cls-1" transform="translate(47.75 20.53) scale(0.97 1)">What is Sustainability?</text><rect class="cls-2" y="2.25" width="37.86" height="48.2"/><rect class="cls-2" x="47.75" y="37.1" width="12.91" height="13.35"/><rect class="cls-2" x="64.08" y="37.1" width="30.31" height="13.35"/><text class="cls-1" transform="translate(47.75 80.56) scale(0.97 1)">How can I c<tspan class="cls-3" x="124.3" y="0">r</tspan><tspan x="132.53" y="0">eate change?</tspan></text><rect class="cls-2" y="62.28" width="37.86" height="48.2"/><rect class="cls-2" x="47.75" y="97.13" width="12.91" height="13.35"/><rect class="cls-2" x="64.08" y="97.13" width="30.31" height="13.35"/><text class="cls-1" transform="translate(47.75 140.12) scale(0.97 1)">Why do I <tspan class="cls-4" x="99.01" y="0">f</tspan><tspan x="107.1" y="0">eel </tspan><tspan class="cls-5" x="144.58" y="0">r</tspan><tspan x="152.81" y="0">esponsible for change?</tspan></text><rect class="cls-2" y="121.84" width="37.86" height="48.2"/><rect class="cls-2" x="47.75" y="156.69" width="12.91" height="13.35"/><rect class="cls-2" x="64.08" y="156.69" width="30.31" height="13.35"/><text class="cls-1" transform="translate(47.75 200.15) scale(0.97 1)">Who is <tspan class="cls-3" x="78.97" y="0">r</tspan><tspan x="87.2" y="0">esponsible for sustainability?</tspan></text><rect class="cls-2" y="181.87" width="37.86" height="48.2"/><rect class="cls-2" x="47.75" y="216.72" width="12.91" height="13.35"/><rect class="cls-2" x="64.08" y="216.72" width="30.31" height="13.35"/><text class="cls-1" transform="translate(48.79 259.85) scale(0.97 1)">Who is accountable?</text><rect class="cls-2" x="1.03" y="241.57" width="37.86" height="48.2"/><rect class="cls-2" x="48.79" y="276.42" width="12.91" height="13.35"/><rect class="cls-2" x="65.12" y="276.42" width="30.31" height="13.35"/><text class="cls-1" transform="translate(48.79 319.88) scale(0.97 1)">Who is telling the truth?</text><rect class="cls-2" x="1.03" y="301.6" width="37.86" height="48.2"/><rect class="cls-2" x="48.79" y="336.45" width="12.91" height="13.35"/><rect class="cls-2" x="65.12" y="336.45" width="30.31" height="13.35"/><text class="cls-1" transform="translate(48.35 379.91) scale(0.97 1)"><tspan class="cls-6">A</tspan><tspan x="14.71" y="0">m I confused?</tspan></text><rect class="cls-2" x="0.6" y="361.63" width="37.86" height="48.2"/><rect class="cls-2" x="48.35" y="396.48" width="12.91" height="13.35"/><rect class="cls-2" x="64.68" y="396.48" width="30.31" height="13.35"/><text class="cls-1" transform="translate(48.35 439.47) scale(0.97 1)">A<tspan class="cls-3" x="15.27" y="0">r</tspan><tspan x="23.5" y="0">e we being confused?</tspan></text><rect class="cls-2" x="0.6" y="421.19" width="37.86" height="48.2"/><rect class="cls-2" x="48.35" y="456.04" width="12.91" height="13.35"/><rect class="cls-2" x="64.68" y="456.04" width="30.31" height="13.35"/></g></g></svg>