<svg xmlns="http://www.w3.org/2000/svg" viewBox="0 0 187.85 291.03"><defs><style>.cls-1{fill:#f0ece8;}.cls-2{fill:#fff;}.cls-3{font-size:12px;fill:#1d1d1b;font-family:Roboto-Bold, Roboto;font-weight:700;}.cls-4{font-family:PlayfairDisplay-BoldItalic, Playfair Display;font-style:italic;}</style></defs><g id="Laag_2" data-name="Laag 2"><g id="Laag_6" data-name="Laag 6"><rect class="cls-1" width="187.85" height="291.03" rx="6.97"/><g id="g08Neu"><path class="cls-2" d="M166.21,15.41a1.37,1.37,0,0,1-.15-.18,4.17,4.17,0,0,0-4.32-1.88,4.29,4.29,0,0,0-3.52,3.16c-.89,2.73.08,5,2,6.89,1.5,1.46,3.09,2.82,4.64,4.22l1.34,1.2c2.15-1.94,4.35-3.76,6.36-5.77a6.13,6.13,0,0,0,1.65-6.73,4.41,4.41,0,0,0-5-3A4.68,4.68,0,0,0,166.21,15.41Z"/><path d="M166.21,15.41a4.68,4.68,0,0,1,3-2.05,4.41,4.41,0,0,1,5,3,6.13,6.13,0,0,1-1.65,6.73c-2,2-4.21,3.83-6.36,5.77l-1.34-1.2c-1.55-1.4-3.14-2.76-4.64-4.22-1.94-1.9-2.91-4.16-2-6.89a4.29,4.29,0,0,1,3.52-3.16,4.17,4.17,0,0,1,4.32,1.88A1.37,1.37,0,0,0,166.21,15.41Z"/></g><text class="cls-3" transform="translate(52.83 134.6)">I wish not to be <tspan class="cls-4"><tspan x="6.43" y="14.4">manipulated</tspan></tspan></text></g></g></svg>